<svg width="293" height="143" viewBox="0 0 293 143" fill="none" xmlns="http://www.w3.org/2000/svg">
<g clip-path="url(#clip0_2_5136)">
<path d="M285 0.5H8C3.85786 0.5 0.5 3.85786 0.5 8V52C0.5 56.1421 3.85786 59.5 8 59.5H285C289.142 59.5 292.5 56.1421 292.5 52V8C292.5 3.85786 289.142 0.5 285 0.5Z" fill="white" stroke="#E2E2E8"/>
<path d="M285 74.5H8C3.85786 74.5 0.5 77.8579 0.5 82V135C0.5 139.142 3.85786 142.5 8 142.5H285C289.142 142.5 292.5 139.142 292.5 135V82C292.5 77.8579 289.142 74.5 285 74.5Z" fill="white" stroke="#E2E2E8"/>
<mask id="mask0_2_5136" style="mask-type:alpha" maskUnits="userSpaceOnUse" x="14" y="16" width="28" height="28">
<path d="M42 16H14V44H42V16Z" fill="#D9D9D9"/>
</mask>
<g mask="url(#mask0_2_5136)">
<path d="M24.5021 27.6646C24.8327 27.6646 25.11 27.5526 25.334 27.3286C25.5572 27.1054 25.6688 26.8285 25.6688 26.498V25.3313H23.3354V26.498C23.3354 26.8285 23.4474 27.1054 23.6714 27.3286C23.8947 27.5526 24.1716 27.6646 24.5021 27.6646ZM25.6688 22.998H30.3355C30.3355 22.3563 30.1072 21.8072 29.6506 21.3506C29.1933 20.8933 28.6438 20.6646 28.0021 20.6646C27.3604 20.6646 26.8113 20.8933 26.3548 21.3506C25.8974 21.8072 25.6688 22.3563 25.6688 22.998ZM31.5021 27.6646C31.8327 27.6646 32.11 27.5526 32.334 27.3286C32.5572 27.1054 32.6688 26.8285 32.6688 26.498V25.3313H30.3355V26.498C30.3355 26.8285 30.4474 27.1054 30.6714 27.3286C30.8947 27.5526 31.1716 27.6646 31.5021 27.6646ZM22.1688 41.6646C21.5271 41.6646 20.978 41.4364 20.5214 40.9798C20.0641 40.5225 19.8354 39.973 19.8354 39.3313V25.3313C19.8354 24.6896 20.0641 24.1405 20.5214 23.684C20.978 23.2266 21.5271 22.998 22.1688 22.998H23.3354C23.3354 21.7146 23.7924 20.616 24.7063 19.7021C25.6202 18.7882 26.7188 18.3313 28.0021 18.3313C29.2854 18.3313 30.3841 18.7882 31.2979 19.7021C32.2118 20.616 32.6688 21.7146 32.6688 22.998H33.8355C34.4771 22.998 35.0266 23.2266 35.484 23.684C35.9405 24.1405 36.1688 24.6896 36.1688 25.3313V39.3313C36.1688 39.973 35.9405 40.5225 35.484 40.9798C35.0266 41.4364 34.4771 41.6646 33.8355 41.6646H22.1688Z" fill="#9E7CE8"/>
</g>
<path d="M54.57 35.238C56.964 35.238 58.168 33.754 58.546 31.878L57.258 31.654C56.978 33.138 55.984 34.076 54.57 34.076C52.54 34.076 51.49 32.312 51.49 29.988C51.49 27.58 52.596 25.956 54.542 25.956C56.082 25.956 56.992 26.95 57.188 28.448L58.546 28.308C58.294 26.25 57.034 24.822 54.612 24.822C51.658 24.822 50.09 26.95 50.09 30.002C50.09 32.886 51.49 35.238 54.57 35.238ZM62.3134 35.168C63.4614 35.168 64.3434 34.622 64.6654 33.726C64.6794 34.174 64.7214 34.636 64.7774 35H66.0234C65.8554 34.454 65.7854 33.712 65.7854 32.634V30.744C65.7854 28.7 64.9454 27.832 63.0274 27.832C61.3894 27.832 60.2694 28.77 60.1714 30.198H61.4454C61.5014 29.316 62.0894 28.812 63.0414 28.812C64.1194 28.812 64.5814 29.33 64.5814 30.618V30.73L63.2794 30.884C62.1314 31.024 61.4594 31.192 60.9274 31.458C60.2974 31.808 59.9474 32.41 59.9474 33.11C59.9474 34.356 60.8854 35.168 62.3134 35.168ZM62.5794 34.188C61.7254 34.188 61.2074 33.768 61.2074 33.082C61.2074 32.396 61.6554 32.032 62.6914 31.878L64.5954 31.598V31.948C64.5954 33.306 63.7974 34.188 62.5794 34.188ZM69.2303 29.596V28H68.1243V35H69.3143V32.004C69.3143 31.164 69.3423 30.226 70.0143 29.554C70.3503 29.218 70.8263 29.008 71.5543 29.008H71.6103V27.846C71.5263 27.832 71.4423 27.832 71.3583 27.832C70.2943 27.832 69.5663 28.616 69.2303 29.596ZM74.2615 29.596V28H73.1555V35H74.3455V32.004C74.3455 31.164 74.3735 30.226 75.0455 29.554C75.3815 29.218 75.8575 29.008 76.5855 29.008H76.6415V27.846C76.5575 27.832 76.4735 27.832 76.3895 27.832C75.3255 27.832 74.5975 28.616 74.2615 29.596ZM78.4882 37.8C79.6642 37.8 80.5042 37.212 81.1482 35.448L83.8782 28H82.5902L80.9662 32.872C80.8542 33.222 80.7702 33.502 80.7282 33.698H80.7002C80.6582 33.502 80.5882 33.222 80.4622 32.872L78.6702 28H77.3402L80.1262 34.916L79.9442 35.434C79.6222 36.344 79.1882 36.722 78.3482 36.722C78.1942 36.722 78.0262 36.722 77.8442 36.694V37.744C78.0682 37.786 78.2782 37.8 78.4882 37.8ZM84.449 30.548V31.668H88.495V30.548H84.449ZM93.0824 35.168C95.0564 35.168 96.3444 33.782 96.3444 31.5C96.3444 29.218 95.0564 27.832 93.0824 27.832C91.1084 27.832 89.8204 29.218 89.8204 31.5C89.8204 33.782 91.1084 35.168 93.0824 35.168ZM93.0824 34.132C91.8224 34.132 91.0804 33.236 91.0804 31.5C91.0804 29.764 91.8224 28.868 93.0824 28.868C94.3424 28.868 95.0844 29.764 95.0844 31.5C95.0844 33.236 94.3424 34.132 93.0824 34.132ZM98.2297 35H99.4197V31.346C99.4197 29.792 100.134 28.854 101.296 28.854C102.318 28.854 102.836 29.484 102.836 30.716V35H104.026V30.646C104.026 28.784 103.228 27.832 101.688 27.832C100.582 27.832 99.8117 28.336 99.3497 29.386V28H98.2297V35ZM113.39 35.168C115.14 35.168 116.274 33.684 116.274 31.5C116.274 29.358 115.168 27.832 113.46 27.832C112.368 27.832 111.598 28.434 111.234 29.218V24.85H110.044V35H110.954L111.164 33.796C111.528 34.608 112.326 35.168 113.39 35.168ZM113.068 34.118C111.892 34.118 111.206 33.166 111.206 31.71V31.346C111.206 29.82 111.906 28.882 113.082 28.882C114.328 28.882 115.014 29.932 115.014 31.5C115.014 33.096 114.286 34.118 113.068 34.118ZM119.899 35.168C121.047 35.168 121.929 34.622 122.251 33.726C122.265 34.174 122.307 34.636 122.363 35H123.609C123.441 34.454 123.371 33.712 123.371 32.634V30.744C123.371 28.7 122.531 27.832 120.613 27.832C118.975 27.832 117.855 28.77 117.757 30.198H119.031C119.087 29.316 119.675 28.812 120.627 28.812C121.705 28.812 122.167 29.33 122.167 30.618V30.73L120.865 30.884C119.717 31.024 119.045 31.192 118.513 31.458C117.883 31.808 117.533 32.41 117.533 33.11C117.533 34.356 118.471 35.168 119.899 35.168ZM120.165 34.188C119.311 34.188 118.793 33.768 118.793 33.082C118.793 32.396 119.241 32.032 120.277 31.878L122.181 31.598V31.948C122.181 33.306 121.383 34.188 120.165 34.188ZM131.019 27.888C131.215 27.888 131.383 27.916 131.523 27.944V26.908C131.369 26.866 131.215 26.852 131.061 26.852C130.123 26.852 129.605 27.412 129.395 28.126C129.003 27.944 128.555 27.832 128.023 27.832C126.399 27.832 125.433 28.84 125.433 30.198C125.433 30.884 125.671 31.472 126.119 31.906C125.531 32.13 125.125 32.606 125.125 33.306C125.125 33.81 125.349 34.258 125.937 34.524C125.195 34.762 124.803 35.322 124.803 35.98C124.803 36.974 125.489 37.898 127.953 37.898C130.389 37.898 131.425 36.988 131.425 35.672C131.425 34.412 130.627 33.698 129.045 33.698H127.337C126.469 33.698 126.175 33.376 126.175 32.984C126.175 32.662 126.385 32.424 126.679 32.298C127.057 32.48 127.505 32.592 128.023 32.592C129.647 32.592 130.613 31.556 130.613 30.198C130.613 29.54 130.389 28.966 129.969 28.546C130.137 28.098 130.487 27.888 131.019 27.888ZM128.023 31.682C127.127 31.682 126.553 31.052 126.553 30.198C126.553 29.344 127.127 28.742 128.023 28.742C128.919 28.742 129.493 29.358 129.493 30.212C129.493 31.066 128.919 31.682 128.023 31.682ZM128.779 34.748C129.745 34.748 130.235 35.098 130.235 35.756C130.235 36.386 129.801 36.918 128.093 36.918C126.833 36.918 125.965 36.638 125.965 35.77C125.965 35.35 126.203 34.944 126.707 34.72C126.889 34.734 127.085 34.748 127.295 34.748H128.779Z" fill="#100024"/>
<path d="M182.34 34.5V25.98H181.2V34.5H182.34ZM184.619 34.5H185.639V31.368C185.639 30.036 186.251 29.232 187.247 29.232C188.123 29.232 188.567 29.772 188.567 30.828V34.5H189.587V30.768C189.587 29.172 188.903 28.356 187.583 28.356C186.635 28.356 185.975 28.788 185.579 29.688V28.5H184.619V34.5ZM193.788 34.644C195.132 34.644 196.032 33.852 196.248 32.484L195.276 32.328C195.12 33.264 194.616 33.756 193.8 33.756C192.732 33.756 192.108 32.928 192.108 31.488C192.108 30.084 192.732 29.244 193.764 29.244C194.58 29.244 195.108 29.748 195.216 30.66L196.26 30.54C196.104 29.16 195.192 28.356 193.788 28.356C192.084 28.356 191.028 29.544 191.028 31.5C191.028 33.42 192.108 34.644 193.788 34.644ZM198.965 25.8H197.945V34.5H198.965V25.8ZM203.061 34.644C203.901 34.644 204.645 34.104 204.921 33.372V34.5H205.881V28.5H204.861V31.728C204.861 32.952 204.213 33.768 203.253 33.768C202.461 33.768 202.029 33.216 202.029 32.208V28.5H201.009V32.328C201.009 33.732 201.549 34.644 203.061 34.644ZM209.941 34.644C210.877 34.644 211.525 34.188 211.885 33.384V34.5H212.845V25.8H211.825V29.388C211.441 28.68 210.853 28.356 210.061 28.356C208.561 28.356 207.505 29.652 207.505 31.5C207.505 33.384 208.489 34.644 209.941 34.644ZM210.217 33.744C209.197 33.744 208.585 32.904 208.585 31.5C208.585 30.084 209.197 29.256 210.217 29.256C211.225 29.256 211.849 30.06 211.849 31.368V31.644C211.849 32.928 211.213 33.744 210.217 33.744ZM219.804 31.08C219.804 29.28 218.868 28.356 217.248 28.356C215.532 28.356 214.524 29.568 214.524 31.572C214.524 33.552 215.544 34.644 217.26 34.644C218.472 34.644 219.348 34.068 219.768 32.976L218.928 32.604C218.664 33.336 218.1 33.744 217.332 33.744C216.264 33.744 215.556 32.976 215.544 31.8H219.804V31.08ZM218.772 30.972H215.544C215.568 29.844 216.168 29.16 217.224 29.16C218.208 29.16 218.772 29.736 218.772 30.84V30.972ZM223.382 34.644C224.318 34.644 224.966 34.188 225.326 33.384V34.5H226.286V25.8H225.266V29.388C224.882 28.68 224.294 28.356 223.502 28.356C222.002 28.356 220.946 29.652 220.946 31.5C220.946 33.384 221.93 34.644 223.382 34.644ZM223.658 33.744C222.638 33.744 222.026 32.904 222.026 31.5C222.026 30.084 222.638 29.256 223.658 29.256C224.666 29.256 225.29 30.06 225.29 31.368V31.644C225.29 32.928 224.654 33.744 223.658 33.744ZM232.535 34.5H233.651L234.791 30.18C234.839 29.988 234.899 29.688 234.923 29.508H234.947C234.971 29.688 235.031 29.988 235.079 30.18L236.219 34.5H237.335L239.027 28.5H237.971L236.891 32.784C236.843 33 236.795 33.252 236.759 33.492H236.735C236.699 33.252 236.627 33 236.579 32.784L235.487 28.5H234.383L233.291 32.784C233.243 33 233.171 33.252 233.135 33.492H233.111C233.075 33.252 233.027 33 232.979 32.784L231.899 28.5H230.843L232.535 34.5ZM240.34 27.384H241.504V26.1H240.34V27.384ZM240.412 34.5H241.432V28.5H240.412V34.5ZM242.688 29.34H243.804V32.7C243.804 33.816 244.14 34.608 245.436 34.608C245.82 34.608 246.06 34.572 246.324 34.5V33.564C246.12 33.612 245.964 33.648 245.7 33.648C245.088 33.648 244.824 33.348 244.824 32.664V29.34H246.324V28.5H244.824V26.496L243.804 26.928V28.5H242.688V29.34ZM247.878 34.5H248.898V31.368C248.898 30.012 249.486 29.232 250.518 29.232C251.382 29.232 251.826 29.784 251.826 30.84V34.5H252.846V30.768C252.846 29.184 252.162 28.356 250.866 28.356C249.93 28.356 249.258 28.788 248.898 29.628V25.8H247.878V34.5ZM260.727 28.5H259.227V27.696C259.227 26.964 259.479 26.628 260.091 26.628C260.283 26.628 260.511 26.652 260.727 26.688V25.812C260.499 25.752 260.247 25.728 259.959 25.728C258.891 25.728 258.207 26.46 258.207 27.552V28.5H257.103V29.34H258.207V34.5H259.227V29.34H260.727V28.5ZM263.533 34.644C264.517 34.644 265.273 34.176 265.549 33.408C265.561 33.792 265.597 34.188 265.645 34.5H266.713C266.569 34.032 266.509 33.396 266.509 32.472V30.852C266.509 29.1 265.789 28.356 264.145 28.356C262.741 28.356 261.781 29.16 261.697 30.384H262.789C262.837 29.628 263.341 29.196 264.157 29.196C265.081 29.196 265.477 29.64 265.477 30.744V30.84L264.361 30.972C263.377 31.092 262.801 31.236 262.345 31.464C261.805 31.764 261.505 32.28 261.505 32.88C261.505 33.948 262.309 34.644 263.533 34.644ZM263.761 33.804C263.029 33.804 262.585 33.444 262.585 32.856C262.585 32.268 262.969 31.956 263.857 31.824L265.489 31.584V31.884C265.489 33.048 264.805 33.804 263.761 33.804ZM269.462 29.868V28.5H268.514V34.5H269.534V31.932C269.534 31.212 269.558 30.408 270.134 29.832C270.422 29.544 270.83 29.364 271.454 29.364H271.502V28.368C271.43 28.356 271.358 28.356 271.286 28.356C270.374 28.356 269.75 29.028 269.462 29.868ZM277.508 31.08C277.508 29.28 276.572 28.356 274.952 28.356C273.236 28.356 272.228 29.568 272.228 31.572C272.228 33.552 273.248 34.644 274.964 34.644C276.176 34.644 277.052 34.068 277.472 32.976L276.632 32.604C276.368 33.336 275.804 33.744 275.036 33.744C273.968 33.744 273.26 32.976 273.248 31.8H277.508V31.08ZM276.476 30.972H273.248C273.271 29.844 273.872 29.16 274.928 29.16C275.912 29.16 276.476 29.736 276.476 30.84V30.972Z" fill="#696972"/>
<mask id="mask1_2_5136" style="mask-type:alpha" maskUnits="userSpaceOnUse" x="14" y="94" width="28" height="29">
<path d="M42 94.5H14V122.5H42V94.5Z" fill="#D9D9D9"/>
</mask>
<g mask="url(#mask1_2_5136)">
<path d="M22.1632 118.998C21.5215 118.998 20.9724 118.77 20.5158 118.313C20.0585 117.856 19.8298 117.306 19.8298 116.665V103.831C19.8298 103.19 20.0585 102.641 20.5158 102.184C20.9724 101.727 21.5215 101.498 22.1632 101.498H24.4965V97.998C24.4965 97.6674 24.6085 97.3901 24.8325 97.1661C25.0557 96.9429 25.3326 96.8313 25.6632 96.8313H30.3298C30.6604 96.8313 30.9377 96.9429 31.1617 97.1661C31.3849 97.3901 31.4965 97.6674 31.4965 97.998V101.498H33.8298C34.4715 101.498 35.021 101.727 35.4783 102.184C35.9349 102.641 36.1632 103.19 36.1632 103.831V116.665C36.1632 117.306 35.9349 117.856 35.4783 118.313C35.021 118.77 34.4715 118.998 33.8298 118.998C33.8298 119.329 33.7178 119.605 33.4938 119.829C33.2706 120.053 32.9937 120.165 32.6632 120.165C32.3326 120.165 32.0557 120.053 31.8325 119.829C31.6085 119.605 31.4965 119.329 31.4965 118.998H24.4965C24.4965 119.329 24.3849 119.605 24.1617 119.829C23.9377 120.053 23.6604 120.165 23.3298 120.165C22.9993 120.165 22.722 120.053 22.498 119.829C22.2748 119.605 22.1632 119.329 22.1632 118.998ZM26.2465 101.498H29.7465V98.5813H26.2465V101.498ZM23.3298 115.498H25.0798V104.998H23.3298V115.498ZM27.1215 115.498H28.8715V104.998H27.1215V115.498ZM30.9132 115.498H32.6632V104.998H30.9132V115.498Z" fill="#9E7CE8"/>
</g>
<path d="M54.57 104.238C56.964 104.238 58.168 102.754 58.546 100.878L57.258 100.654C56.978 102.138 55.984 103.076 54.57 103.076C52.54 103.076 51.49 101.312 51.49 98.988C51.49 96.58 52.596 94.956 54.542 94.956C56.082 94.956 56.992 95.95 57.188 97.448L58.546 97.308C58.294 95.25 57.034 93.822 54.612 93.822C51.658 93.822 50.09 95.95 50.09 99.002C50.09 101.886 51.49 104.238 54.57 104.238ZM60.579 104H61.769V100.346C61.769 98.764 62.455 97.854 63.659 97.854C64.667 97.854 65.185 98.498 65.185 99.73V104H66.375V99.646C66.375 97.798 65.577 96.832 64.065 96.832C62.973 96.832 62.189 97.336 61.769 98.316V93.85H60.579V104ZM74.2148 100.01C74.2148 97.91 73.1228 96.832 71.2328 96.832C69.2308 96.832 68.0548 98.246 68.0548 100.584C68.0548 102.894 69.2448 104.168 71.2468 104.168C72.6608 104.168 73.6828 103.496 74.1728 102.222L73.1928 101.788C72.8848 102.642 72.2268 103.118 71.3308 103.118C70.0848 103.118 69.2588 102.222 69.2448 100.85H74.2148V100.01ZM73.0108 99.884H69.2448C69.2728 98.568 69.9728 97.77 71.2048 97.77C72.3528 97.77 73.0108 98.442 73.0108 99.73V99.884ZM78.767 104.168C80.335 104.168 81.385 103.244 81.637 101.648L80.503 101.466C80.321 102.558 79.733 103.132 78.781 103.132C77.535 103.132 76.807 102.166 76.807 100.486C76.807 98.848 77.535 97.868 78.739 97.868C79.691 97.868 80.307 98.456 80.433 99.52L81.651 99.38C81.469 97.77 80.405 96.832 78.767 96.832C76.779 96.832 75.547 98.218 75.547 100.5C75.547 102.74 76.807 104.168 78.767 104.168ZM88.1941 104H89.6641L86.9341 99.702L89.4961 97H87.9421L84.8061 100.444V93.85H83.6161V104H84.8061V101.858L86.0801 100.57L88.1941 104ZM96.4589 100.01C96.4589 97.91 95.3669 96.832 93.4769 96.832C91.4749 96.832 90.2989 98.246 90.2989 100.584C90.2989 102.894 91.4889 104.168 93.4909 104.168C94.9049 104.168 95.9269 103.496 96.4169 102.222L95.4369 101.788C95.1289 102.642 94.4709 103.118 93.5749 103.118C92.3289 103.118 91.5029 102.222 91.4889 100.85H96.4589V100.01ZM95.2549 99.884H91.4889C91.5169 98.568 92.2169 97.77 93.4489 97.77C94.5969 97.77 95.2549 98.442 95.2549 99.73V99.884ZM100.633 104.168C101.725 104.168 102.481 103.636 102.901 102.698V104H104.021V93.85H102.831V98.036C102.383 97.21 101.697 96.832 100.773 96.832C99.0231 96.832 97.7911 98.344 97.7911 100.5C97.7911 102.698 98.9391 104.168 100.633 104.168ZM100.955 103.118C99.7651 103.118 99.0511 102.138 99.0511 100.5C99.0511 98.848 99.7651 97.882 100.955 97.882C102.131 97.882 102.859 98.82 102.859 100.346V100.668C102.859 102.166 102.117 103.118 100.955 103.118ZM113.663 104.168C115.413 104.168 116.547 102.684 116.547 100.5C116.547 98.358 115.441 96.832 113.733 96.832C112.641 96.832 111.871 97.434 111.507 98.218V93.85H110.317V104H111.227L111.437 102.796C111.801 103.608 112.599 104.168 113.663 104.168ZM113.341 103.118C112.165 103.118 111.479 102.166 111.479 100.71V100.346C111.479 98.82 112.179 97.882 113.355 97.882C114.601 97.882 115.287 98.932 115.287 100.5C115.287 102.096 114.559 103.118 113.341 103.118ZM120.173 104.168C121.321 104.168 122.203 103.622 122.525 102.726C122.539 103.174 122.581 103.636 122.637 104H123.883C123.715 103.454 123.645 102.712 123.645 101.634V99.744C123.645 97.7 122.805 96.832 120.887 96.832C119.249 96.832 118.129 97.77 118.031 99.198H119.305C119.361 98.316 119.949 97.812 120.901 97.812C121.979 97.812 122.441 98.33 122.441 99.618V99.73L121.139 99.884C119.991 100.024 119.319 100.192 118.787 100.458C118.157 100.808 117.807 101.41 117.807 102.11C117.807 103.356 118.745 104.168 120.173 104.168ZM120.439 103.188C119.585 103.188 119.067 102.768 119.067 102.082C119.067 101.396 119.515 101.032 120.551 100.878L122.455 100.598V100.948C122.455 102.306 121.657 103.188 120.439 103.188ZM131.293 96.888C131.489 96.888 131.657 96.916 131.797 96.944V95.908C131.643 95.866 131.489 95.852 131.335 95.852C130.397 95.852 129.879 96.412 129.669 97.126C129.277 96.944 128.829 96.832 128.297 96.832C126.673 96.832 125.707 97.84 125.707 99.198C125.707 99.884 125.945 100.472 126.393 100.906C125.805 101.13 125.399 101.606 125.399 102.306C125.399 102.81 125.623 103.258 126.211 103.524C125.469 103.762 125.077 104.322 125.077 104.98C125.077 105.974 125.763 106.898 128.227 106.898C130.663 106.898 131.699 105.988 131.699 104.672C131.699 103.412 130.901 102.698 129.319 102.698H127.611C126.743 102.698 126.449 102.376 126.449 101.984C126.449 101.662 126.659 101.424 126.953 101.298C127.331 101.48 127.779 101.592 128.297 101.592C129.921 101.592 130.887 100.556 130.887 99.198C130.887 98.54 130.663 97.966 130.243 97.546C130.411 97.098 130.761 96.888 131.293 96.888ZM128.297 100.682C127.401 100.682 126.827 100.052 126.827 99.198C126.827 98.344 127.401 97.742 128.297 97.742C129.193 97.742 129.767 98.358 129.767 99.212C129.767 100.066 129.193 100.682 128.297 100.682ZM129.053 103.748C130.019 103.748 130.509 104.098 130.509 104.756C130.509 105.386 130.075 105.918 128.367 105.918C127.107 105.918 126.239 105.638 126.239 104.77C126.239 104.35 126.477 103.944 126.981 103.72C127.163 103.734 127.359 103.748 127.569 103.748H129.053Z" fill="#100024"/>
<path d="M52.412 124.144C53.252 124.144 53.996 123.604 54.272 122.872V124H55.232V118H54.212V121.228C54.212 122.452 53.564 123.268 52.604 123.268C51.812 123.268 51.38 122.716 51.38 121.708V118H50.36V121.828C50.36 123.232 50.9 124.144 52.412 124.144ZM57.3954 126.34H58.4154V123.052C58.6794 123.64 59.3274 124.144 60.2514 124.144C61.7034 124.144 62.7354 122.92 62.7354 121C62.7354 119.104 61.7634 117.856 60.3114 117.856C59.4354 117.856 58.7394 118.288 58.3554 119.116V118H57.3954V126.34ZM60.0114 123.244C59.0154 123.244 58.3914 122.428 58.3914 121.132V120.844C58.3914 119.548 59.0394 118.756 60.0474 118.756C61.0554 118.756 61.6554 119.584 61.6554 121C61.6554 122.404 61.0314 123.244 60.0114 123.244ZM66.5736 118.84H67.6896V122.2C67.6896 123.316 68.0256 124.108 69.3216 124.108C69.7056 124.108 69.9456 124.072 70.2096 124V123.064C70.0056 123.112 69.8496 123.148 69.5856 123.148C68.9736 123.148 68.7096 122.848 68.7096 122.164V118.84H70.2096V118H68.7096V115.996L67.6896 116.428V118H66.5736V118.84ZM73.9014 124.144C75.5934 124.144 76.6974 122.956 76.6974 121C76.6974 119.044 75.5934 117.856 73.9014 117.856C72.2094 117.856 71.1054 119.044 71.1054 121C71.1054 122.956 72.2094 124.144 73.9014 124.144ZM73.9014 123.256C72.8214 123.256 72.1854 122.488 72.1854 121C72.1854 119.512 72.8214 118.744 73.9014 118.744C74.9814 118.744 75.6174 119.512 75.6174 121C75.6174 122.488 74.9814 123.256 73.9014 123.256ZM80.7706 124H86.2426V123.028H82.2226C83.0386 122.464 83.6266 121.984 84.2746 121.384C85.5586 120.196 86.1466 119.176 86.1466 118C86.1466 116.38 85.1746 115.48 83.5546 115.48C81.8746 115.48 80.8666 116.428 80.8666 117.904C80.8666 118.12 80.8906 118.336 80.9506 118.576L82.0306 118.684C81.9706 118.384 81.9346 118.132 81.9346 117.916C81.9346 117.004 82.5226 116.416 83.4946 116.416C84.4546 116.416 85.0186 116.992 85.0186 118.012C85.0186 119.008 84.6586 119.704 83.6026 120.724C82.5346 121.744 81.4546 122.608 80.7706 123.112V124ZM90.2148 124.18C91.9548 124.18 93.0468 123.232 93.0468 121.636C93.0468 120.448 92.4108 119.788 91.2468 119.584C92.1828 119.356 92.7588 118.624 92.7588 117.664C92.7588 116.308 91.8108 115.48 90.1788 115.48C88.4748 115.48 87.4188 116.464 87.4188 118.072L88.4268 118.288C88.4268 117.052 89.0388 116.38 90.1188 116.38C91.1028 116.38 91.6788 116.896 91.6788 117.784C91.6788 118.672 91.1628 119.224 90.0468 119.224H89.6268V120.112H90.0948C91.3428 120.112 91.9668 120.664 91.9668 121.66C91.9668 122.716 91.3788 123.28 90.2508 123.28C89.0988 123.28 88.3668 122.62 88.3188 121.492L87.2628 121.624C87.3108 123.184 88.4748 124.18 90.2148 124.18ZM98.7154 124H99.9754L97.6354 120.316L99.8314 118H98.4994L95.8114 120.952V115.3H94.7914V124H95.8114V122.164L96.9034 121.06L98.7154 124ZM105.727 117.904C105.895 117.904 106.039 117.928 106.159 117.952V117.064C106.027 117.028 105.895 117.016 105.763 117.016C104.959 117.016 104.515 117.496 104.335 118.108C103.999 117.952 103.615 117.856 103.159 117.856C101.767 117.856 100.939 118.72 100.939 119.884C100.939 120.472 101.143 120.976 101.527 121.348C101.023 121.54 100.675 121.948 100.675 122.548C100.675 122.98 100.867 123.364 101.371 123.592C100.735 123.796 100.399 124.276 100.399 124.84C100.399 125.692 100.987 126.484 103.099 126.484C105.187 126.484 106.075 125.704 106.075 124.576C106.075 123.496 105.391 122.884 104.035 122.884H102.571C101.827 122.884 101.575 122.608 101.575 122.272C101.575 121.996 101.755 121.792 102.007 121.684C102.331 121.84 102.715 121.936 103.159 121.936C104.551 121.936 105.379 121.048 105.379 119.884C105.379 119.32 105.187 118.828 104.827 118.468C104.971 118.084 105.271 117.904 105.727 117.904ZM103.159 121.156C102.391 121.156 101.899 120.616 101.899 119.884C101.899 119.152 102.391 118.636 103.159 118.636C103.927 118.636 104.419 119.164 104.419 119.896C104.419 120.628 103.927 121.156 103.159 121.156ZM103.807 123.784C104.635 123.784 105.055 124.084 105.055 124.648C105.055 125.188 104.683 125.644 103.219 125.644C102.139 125.644 101.395 125.404 101.395 124.66C101.395 124.3 101.599 123.952 102.031 123.76C102.187 123.772 102.355 123.784 102.535 123.784H103.807Z" fill="#696972"/>
<path d="M239.966 110.438C239.966 108.674 238.972 107.834 236.858 107.386L236.732 107.358V104.166C237.684 104.334 238.23 104.95 238.482 105.93L239.756 105.566C239.434 104.082 238.328 103.214 236.732 103.074V101.8H235.892V103.074C234.086 103.2 232.882 104.208 232.882 105.608C232.882 107.12 233.708 107.96 235.654 108.38L235.892 108.436V112.09C234.828 111.95 234.1 111.362 233.708 110.102L232.42 110.354C232.784 112.118 234.086 113.07 235.892 113.196V114.498H236.732V113.196C238.734 113.07 239.966 111.964 239.966 110.438ZM234.198 105.608C234.198 104.684 234.87 104.194 235.892 104.124V107.176C234.66 106.868 234.198 106.406 234.198 105.608ZM236.732 112.104V108.618C238.118 108.968 238.65 109.43 238.65 110.438C238.65 111.446 237.922 112.02 236.732 112.104ZM248.368 110.536V109.556H246.772V103.27H245.372L241.018 109.682V110.536H245.582V113H246.772V110.536H248.368ZM245.582 105.986V109.556H242.292C242.6 109.192 242.838 108.856 243.216 108.282L244.882 105.776C245.218 105.272 245.4 104.964 245.582 104.502H245.61C245.582 105.006 245.582 105.202 245.582 105.986ZM253.309 113.21C255.773 113.21 257.061 111.25 257.061 108.142C257.061 105.02 255.773 103.06 253.309 103.06C250.845 103.06 249.557 105.02 249.557 108.142C249.557 111.25 250.845 113.21 253.309 113.21ZM253.309 112.16C251.629 112.16 250.817 110.606 250.817 108.142C250.817 105.664 251.629 104.11 253.309 104.11C254.989 104.11 255.801 105.664 255.801 108.142C255.801 110.606 254.989 112.16 253.309 112.16ZM259.952 111.348H258.314V113H259.952V111.348ZM264.958 113.21C267.422 113.21 268.71 111.25 268.71 108.142C268.71 105.02 267.422 103.06 264.958 103.06C262.494 103.06 261.206 105.02 261.206 108.142C261.206 111.25 262.494 113.21 264.958 113.21ZM264.958 112.16C263.278 112.16 262.466 110.606 262.466 108.142C262.466 105.664 263.278 104.11 264.958 104.11C266.638 104.11 267.45 105.664 267.45 108.142C267.45 110.606 266.638 112.16 264.958 112.16ZM273.858 113.21C276.322 113.21 277.61 111.25 277.61 108.142C277.61 105.02 276.322 103.06 273.858 103.06C271.394 103.06 270.106 105.02 270.106 108.142C270.106 111.25 271.394 113.21 273.858 113.21ZM273.858 112.16C272.178 112.16 271.366 110.606 271.366 108.142C271.366 105.664 272.178 104.11 273.858 104.11C275.538 104.11 276.35 105.664 276.35 108.142C276.35 110.606 275.538 112.16 273.858 112.16Z" fill="#4B4B55"/>
</g>
<defs>
<clipPath id="clip0_2_5136">
<rect width="293" height="143" fill="white"/>
</clipPath>
</defs>
</svg>
