<svg width="137" height="32" viewBox="0 0 137 32" fill="none" xmlns="http://www.w3.org/2000/svg">
<g clip-path="url(#clip0_2_5346)">
<mask id="mask0_2_5346" style="mask-type:luminance" maskUnits="userSpaceOnUse" x="0" y="0" width="137" height="32">
<path d="M0.23999 0H136.24V32H0.23999V0Z" fill="white"/>
</mask>
<g mask="url(#mask0_2_5346)">
<path d="M81.292 7.50579C80.857 7.50579 80.48 7.76879 80.329 8.16479L74.077 23.6658C73.907 24.0798 74.227 24.5498 74.681 24.5498C74.945 24.5498 75.191 24.3798 75.285 24.1358L76.608 20.8058H84.9L84.446 19.6958H77.08L77.06 19.6778L81.311 8.99179H81.329L87.337 24.1548C87.431 24.3998 87.677 24.5688 87.941 24.5688C88.0467 24.5694 88.1509 24.544 88.2445 24.4949C88.3381 24.4458 88.4182 24.3745 88.4778 24.2872C88.5374 24.2 88.5747 24.0994 88.5864 23.9944C88.5981 23.8893 88.5839 23.783 88.545 23.6848L82.293 8.18279C82.105 7.75079 81.726 7.50579 81.292 7.50579ZM117.332 7.50579C116.897 7.50579 116.52 7.76879 116.369 8.16479L110.117 23.6658C109.946 24.0798 110.268 24.5498 110.721 24.5498C110.985 24.5498 111.231 24.3798 111.325 24.1358L112.648 20.8058H120.94L120.486 19.6958H113.12L113.101 19.6778L117.351 8.99179H117.37L123.377 24.1548C123.471 24.3998 123.717 24.5688 123.981 24.5688C124.087 24.5694 124.191 24.544 124.284 24.4949C124.378 24.4458 124.458 24.3745 124.518 24.2872C124.577 24.2 124.615 24.0994 124.626 23.9944C124.638 23.8893 124.624 23.783 124.585 23.6848L118.295 8.14479C118.215 7.95537 118.081 7.79371 117.91 7.68005C117.739 7.56639 117.538 7.50577 117.332 7.50579ZM95.515 22.9888H95.497L89.075 7.88179C89.0256 7.76807 88.9435 7.67159 88.8392 7.60464C88.7348 7.53768 88.6129 7.50328 88.489 7.50579C88.3855 7.50481 88.2835 7.52944 88.1919 7.57747C88.1003 7.62551 88.0219 7.69546 87.9639 7.7811C87.9059 7.86674 87.87 7.9654 87.8594 8.06829C87.8487 8.17118 87.8637 8.2751 87.903 8.37079L94.533 23.9288C94.685 24.3058 95.063 24.5498 95.478 24.5498C95.894 24.5498 96.252 24.3058 96.423 23.9298L98.746 18.4548L98.085 16.9308L95.515 22.9888ZM110.117 7.50579C109.994 7.50596 109.873 7.54146 109.769 7.60809C109.665 7.67472 109.583 7.7697 109.531 7.88179L103.128 22.9888H103.109L96.725 7.86379C96.6597 7.71778 96.5401 7.60298 96.3915 7.54384C96.2429 7.48469 96.0771 7.48586 95.9293 7.54709C95.7816 7.60833 95.6635 7.7248 95.6003 7.87172C95.5372 8.01865 95.5338 8.18443 95.591 8.33379L102.202 23.9108C102.372 24.2868 102.731 24.5308 103.146 24.5308C103.562 24.5308 103.94 24.2868 104.091 23.9108L110.665 8.37079C110.872 7.95779 110.57 7.50579 110.117 7.50579ZM48.085 15.9148V15.8958C49.502 15.2188 50.409 13.9398 50.409 12.1158C50.409 9.31179 48.236 7.50579 45.535 7.50579H40.171C39.471 7.50579 38.905 8.07079 38.905 8.76579V23.2708C38.905 23.9668 39.472 24.5308 40.171 24.5308H46.159C48.841 24.5308 50.994 22.7628 50.994 19.9598C50.975 17.9098 49.804 16.5358 48.085 15.9148ZM45.781 22.2548H41.511C41.511 22.2548 41.493 22.2548 41.493 22.2358V9.80079C41.493 9.80079 41.493 9.78179 41.512 9.78179H45.12C46.48 9.78179 47.689 10.7978 47.783 12.1338C47.896 13.6388 46.725 14.9368 45.233 14.9368H42.57V17.0818H45.78C46.4589 17.0839 47.1095 17.3537 47.5907 17.8326C48.0719 18.3115 48.3447 18.9609 48.35 19.6398C48.35 21.0698 47.217 22.2548 45.781 22.2548ZM55.641 7.50579C54.923 7.50579 54.338 8.08879 54.338 8.80379V23.2338C54.338 23.5794 54.4752 23.9108 54.7196 24.1552C54.964 24.3995 55.2954 24.5368 55.641 24.5368C55.9865 24.5368 56.318 24.3995 56.5623 24.1552C56.8067 23.9108 56.944 23.5794 56.944 23.2338V8.80279C56.944 8.08779 56.359 7.50579 55.641 7.50579ZM60.08 8.65379C60.08 9.29379 60.59 9.80079 61.233 9.80079H69.072C69.072 9.80079 69.072 9.81979 69.091 9.81979L60.175 22.6688C59.929 23.0258 59.892 23.5158 60.118 23.8918C60.251 24.1548 60.478 24.3618 60.742 24.4558C61.289 24.6628 61.856 24.4558 62.158 24.0228L72.358 9.31279C72.478 9.14034 72.5485 8.93829 72.5618 8.72858C72.5751 8.51888 72.5307 8.30954 72.4334 8.1233C72.3361 7.93706 72.1897 7.78104 72.0099 7.67217C71.8302 7.56331 71.6241 7.50577 71.414 7.50579H61.252C60.59 7.50579 60.08 8.01379 60.08 8.65379ZM72.376 23.7228C72.603 22.9888 72.036 22.2548 71.281 22.2548H64.273L62.687 24.5498H71.281C71.791 24.5498 72.244 24.2118 72.376 23.7228ZM128.363 12.5848L125.209 7.78779C125.145 7.70085 125.063 7.62895 124.968 7.57713C124.874 7.5253 124.769 7.49481 124.661 7.48779C124.555 7.49005 124.451 7.52096 124.362 7.57724C124.272 7.63352 124.199 7.71308 124.15 7.80748C124.102 7.90189 124.08 8.00762 124.087 8.11348C124.094 8.21934 124.129 8.32138 124.189 8.40879L129.534 16.4608V23.8908C129.534 24.2488 129.817 24.5308 130.177 24.5308C130.261 24.5316 130.345 24.5156 130.423 24.4837C130.501 24.4519 130.572 24.4048 130.632 24.3452C130.692 24.2857 130.739 24.2148 130.771 24.1368C130.803 24.0588 130.82 23.9752 130.819 23.8908V16.6308C130.823 16.4144 130.757 16.2025 130.629 16.0278L128.363 12.5858V12.5848ZM135.635 7.50579C135.535 7.50399 135.436 7.52708 135.347 7.57298C135.258 7.61889 135.182 7.68617 135.125 7.76879L130.8 14.3538L131.499 15.4068L136.145 8.42679C136.204 8.33626 136.238 8.23118 136.242 8.12294C136.246 8.01469 136.221 7.90739 136.168 7.81265C136.116 7.7179 136.038 7.63933 135.944 7.58542C135.85 7.53151 135.743 7.50332 135.635 7.50579Z" fill="#2B265B"/>
<path d="M0.23999 15.972C0.23999 7.149 7.41799 0 16.277 0C25.136 0 32.314 7.149 32.314 15.972C32.314 24.795 25.136 31.944 16.277 31.944C7.41799 31.944 0.23999 24.794 0.23999 15.972Z" fill="#00BCD6"/>
<path d="M14.048 16.5169V17.1759C14.048 17.7589 14.52 18.2289 15.106 18.2289H17.505C18.09 18.2289 18.563 17.7589 18.563 17.1759V16.5169H23.493V15.3699H18.563V14.7679C18.563 14.1849 18.09 13.7139 17.505 13.7139H15.105C14.52 13.7139 14.048 14.1839 14.048 14.7679V15.3509H9.06201V16.4979H14.048V16.5169ZM15.106 14.7669H17.524V17.1759H15.106V14.7669Z" fill="white"/>
<path d="M23.832 7.69402C23.7973 7.62648 23.7493 7.56668 23.6908 7.51821C23.6324 7.46974 23.5648 7.43362 23.492 7.41202C23.3504 7.36146 23.1946 7.36828 23.058 7.43102C22.208 7.84502 21.301 8.18302 20.376 8.44702L19.96 8.56002L19.79 8.16502C19.5055 7.46749 19.0191 6.87089 18.3931 6.45181C17.7672 6.03272 17.0303 5.81027 16.277 5.81302C15.5235 5.81007 14.7864 6.03243 14.1602 6.45153C13.5341 6.87062 13.0475 7.46733 12.763 8.16502L12.613 8.56002L12.178 8.44702C11.256 8.187 10.3586 7.8467 9.49597 7.43002C9.42959 7.39425 9.35598 7.37397 9.28065 7.37068C9.20532 7.36739 9.13022 7.38118 9.06097 7.41102C8.98819 7.43262 8.92054 7.46874 8.8621 7.51721C8.80367 7.56568 8.75566 7.62548 8.72097 7.69302C7.45974 10.2564 6.80681 13.0762 6.81297 15.933C6.81297 18.83 7.45597 21.596 8.72097 24.173C8.75566 24.2406 8.80367 24.3004 8.8621 24.3488C8.92054 24.3973 8.98819 24.4334 9.06097 24.455C9.12884 24.4876 9.20317 24.5046 9.27847 24.5046C9.35377 24.5046 9.42811 24.4876 9.49597 24.455C11.6063 23.4215 13.9261 22.8874 16.276 22.894C18.656 22.894 20.942 23.421 23.058 24.455C23.1345 24.4917 23.2181 24.5112 23.303 24.512C23.3678 24.5086 23.4318 24.4958 23.493 24.474C23.6365 24.4239 23.7572 24.3238 23.833 24.192C25.0938 21.6285 25.7464 18.8088 25.74 15.952C25.74 13.055 25.098 10.272 23.832 7.69402ZM16.277 6.94202C18.166 6.94202 18.807 8.40902 18.94 8.78502L18.128 8.88002C16.9 9.03002 15.672 9.03002 14.445 8.88002L13.613 8.78502C13.765 8.42802 14.445 6.94202 16.277 6.94202ZM24.587 16.517L24.55 17.025C24.4733 18.2591 24.2709 19.482 23.946 20.675C23.7519 21.3734 23.512 22.0582 23.228 22.725L23.039 23.177L22.586 22.989C20.5852 22.1626 18.4407 21.7404 16.276 21.747C14.086 21.747 11.97 22.161 9.96797 22.989L9.51497 23.177L9.32497 22.726C9.04666 22.0567 8.80726 21.3719 8.60797 20.675C8.28275 19.4821 8.08003 18.2591 8.00297 17.025L7.96597 16.517V15.37L8.00297 14.843C8.04097 14.223 8.11697 13.601 8.21097 12.999C8.43797 11.683 8.79697 10.384 9.32597 9.16202L9.51497 8.71002L9.96797 8.89802C11.9684 9.72432 14.1126 10.1464 16.277 10.14C18.467 10.14 20.602 9.72602 22.586 8.89802L23.039 8.71002L23.228 9.16202C23.738 10.403 24.116 11.682 24.342 12.999C24.437 13.601 24.512 14.222 24.55 14.843L24.588 15.37L24.587 16.517Z" fill="white"/>
</g>
</g>
<defs>
<clipPath id="clip0_2_5346">
<rect width="137" height="32" fill="white"/>
</clipPath>
</defs>
</svg>
