<svg width="293" height="131" viewBox="0 0 293 131" fill="none" xmlns="http://www.w3.org/2000/svg">
<g clip-path="url(#clip0_2_5118)">
<path d="M285 0.5H8C3.85786 0.5 0.5 3.85786 0.5 8V123C0.5 127.142 3.85786 130.5 8 130.5H285C289.142 130.5 292.5 127.142 292.5 123V8C292.5 3.85786 289.142 0.5 285 0.5Z" fill="white" stroke="#E2E2E8"/>
<path d="M45.7631 26.9085C44.8565 27.8019 42.8988 28.5771 41.9397 28.9319C40.6257 29.4312 40.0476 29.602 39.3118 29.8385C38.4841 30.1144 36.8154 30.6137 36.8154 30.6137C40.271 31.6385 42.7017 31.9539 42.7017 31.9539C42.7017 31.9539 43.8317 31.5991 45.6317 30.64C46.604 30.1407 47.0771 29.8122 47.4187 29.4969C47.5501 29.3786 47.8654 29.0501 47.9573 28.6165C47.9573 28.5903 47.9836 28.4983 47.9836 28.4195C47.9836 28.4195 47.9836 28.3669 47.9836 28.3143C47.9836 28.2618 47.9705 28.2224 47.9705 28.2224C47.9705 28.2224 47.9573 28.1173 47.9311 28.0516C47.9048 27.9859 47.7997 27.7625 47.6157 27.618C47.4975 27.526 47.2873 27.2764 46.5383 27.0136C46.2887 26.9216 45.8682 26.8428 45.8682 26.8428L45.7631 26.9085Z" fill="url(#paint0_linear_2_5118)"/>
<path d="M47.9721 28.4066C47.9721 28.4066 47.9721 28.3147 47.9458 28.2358C47.9327 28.157 47.8932 28.0913 47.8407 28.0256C47.7881 27.9336 47.6961 27.8417 47.591 27.7234C47.4991 27.6446 47.4071 27.5658 47.2888 27.4869C46.8158 27.1847 46.2114 27.0008 45.6727 26.9351C44.8449 26.83 43.8858 26.8431 43.7938 26.8431C43.4916 26.8431 41.4945 26.8562 40.9952 26.8694C38.7221 26.922 35.9498 26.922 35.2271 26.922C27.7247 26.9614 24.4531 26.7906 20.8136 26.0679C17.7259 25.4504 16.0046 24.8722 16.0046 24.8722C18.7376 24.7803 34.649 24.1233 37.5527 24.0445C39.4579 23.9919 40.7981 23.9788 41.8887 24.0445C42.4405 24.0708 42.953 24.1233 43.6099 24.2284C44.188 24.3335 44.7136 24.4912 45.0289 24.6095C45.6727 24.846 46.2245 25.2007 46.4873 25.5555C46.4873 25.5555 46.5662 25.6343 46.6713 25.7788C46.7895 25.9496 46.9341 26.1599 46.9866 26.2387C47.3808 26.83 47.5648 27.211 47.6304 27.3424C47.6961 27.4738 47.7618 27.6183 47.8275 27.7628C47.8801 27.9074 47.9064 27.9862 47.9326 28.0388C47.9721 28.1833 47.9852 28.3147 47.9852 28.3541L47.9721 28.4066Z" fill="#CE210F"/>
<path d="M63.6 33.9999H70.368V32.7199H65.12V22.6399H63.6V33.9999ZM81.0555 22.6399H79.5355V27.5519H73.8075V22.6399H72.2875V33.9999H73.8075V28.8319H79.5355V33.9999H81.0555V22.6399ZM90.8643 33.9999H92.5763L89.6643 29.0719C91.5683 28.6399 92.2243 27.2479 92.2243 25.9679C92.2243 24.3039 91.4403 22.6399 88.4643 22.6399H84.2563V33.9999H85.7763V29.2799H88.0803L90.8643 33.9999ZM85.7763 23.9199H88.2883C90.0323 23.9199 90.6243 24.7999 90.6243 25.9679C90.6243 27.1039 90.0483 27.9999 88.2883 27.9999H85.7763V23.9199Z" fill="#100024"/>
<mask id="mask0_2_5118" style="mask-type:alpha" maskUnits="userSpaceOnUse" x="100" y="18" width="21" height="20">
<path d="M120.703 18H100.703V38H120.703V18Z" fill="#D9D9D9"/>
</mask>
<g mask="url(#mask0_2_5118)">
<path d="M110.703 34.6668L109.516 33.5002L114.182 28.8335H104.036V27.1668H114.182L109.516 22.5002L110.703 21.3335L117.37 28.0002L110.703 34.6668Z" fill="black"/>
</g>
<path d="M132.35 30.9439V22.6399H130.83V30.8319C130.83 32.4159 129.998 32.7519 129.07 32.7519C128.734 32.7519 128.174 32.7519 127.726 32.6719V34.0799C128.062 34.1759 128.574 34.1919 129.054 34.1919C130.75 34.1919 132.35 33.4879 132.35 30.9439ZM142.343 23.9199V22.6399H135.303V33.9999H136.823V28.8159H142.071V27.5359H136.823V23.9199H142.343ZM151.576 33.9999H153.352L148.824 27.1839L153 22.6399H151.096L146.104 28.2719V22.6399H144.584V33.9999H146.104V30.1119L147.784 28.2719L151.576 33.9999Z" fill="#100024"/>
<path d="M225.222 32.1349H226.311V31.9479C226.311 29.6819 227.202 27.2839 229.017 25.2599V24.4899H224.067V25.4029H227.895C226.201 27.5149 225.222 29.7479 225.222 32.0249V32.1349ZM230.23 32.1349H231.165V29.2639C231.165 28.0209 231.704 27.3059 232.65 27.3059C233.442 27.3059 233.849 27.8119 233.849 28.7799V32.1349H234.784V28.7139C234.784 27.2619 234.157 26.5029 232.969 26.5029C232.111 26.5029 231.495 26.8989 231.165 27.6689V24.1599H230.23V32.1349ZM244.516 30.1989V29.4289H243.262V24.4899H242.162L238.741 29.5279V30.1989H242.327V32.1349H243.262V30.1989H244.516ZM242.327 26.6239V29.4289H239.742C239.984 29.1429 240.171 28.8789 240.468 28.4279L241.777 26.4589C242.041 26.0629 242.184 25.8209 242.327 25.4579H242.349C242.327 25.8539 242.327 26.0079 242.327 26.6239ZM247.97 32.2999C249.587 32.2999 250.621 31.1999 250.621 29.5939C250.621 27.9439 249.741 26.9209 248.289 26.9209C247.464 26.9209 246.848 27.2729 246.485 27.9439L246.771 25.3479H250.247V24.4899H246.023L245.572 28.9229L246.518 29.0219C246.727 28.2189 247.233 27.7459 248.047 27.7459C249.103 27.7459 249.631 28.5049 249.631 29.6489C249.631 30.7709 249.037 31.4529 248.025 31.4529C247.134 31.4529 246.628 30.9029 246.474 30.1439L245.451 30.2649C245.649 31.5079 246.617 32.2999 247.97 32.2999ZM252.111 26.6349V32.1349H253.046V28.9229C253.046 27.9219 253.519 27.3059 254.289 27.3059C254.949 27.3059 255.323 27.7569 255.323 28.5599V32.1349H256.258V28.8789C256.258 27.8779 256.709 27.3059 257.49 27.3059C258.183 27.3059 258.535 27.7459 258.535 28.6039V32.1349H259.47V28.5269C259.47 27.2509 258.854 26.5029 257.798 26.5029C257.05 26.5029 256.489 26.8659 256.126 27.6029C255.873 26.8879 255.323 26.5029 254.564 26.5029C253.827 26.5029 253.299 26.8659 252.991 27.5919V26.6349H252.111Z" fill="#100024"/>
<path d="M273 54H20C17.7909 54 16 55.7909 16 58V115C16 117.209 17.7909 119 20 119H273C275.209 119 277 117.209 277 115V58C277 55.7909 275.209 54 273 54Z" fill="#F6F5F9"/>
<path d="M44.0064 78.2742C42.3795 78.2729 40.7887 78.7541 39.4352 79.657C38.0817 80.5598 37.0264 81.8438 36.4027 83.3464C35.7789 84.8491 35.6148 86.503 35.9311 88.0989C36.2473 89.6948 37.0297 91.1611 38.1794 92.3124C39.329 93.4636 40.7942 94.2481 42.3897 94.5666C43.9852 94.8851 45.6393 94.7233 47.1428 94.1017C48.6463 93.4801 49.9318 92.4266 50.8365 91.0744C51.7413 89.7222 52.2248 88.1321 52.2258 86.5051C52.2272 84.3237 51.362 82.2311 49.8206 80.6876C48.2792 79.144 46.1878 78.2759 44.0064 78.2742ZM45.9729 89.629L42.6851 87.1567C42.583 87.0801 42.5001 86.9807 42.443 86.8665C42.3859 86.7523 42.3562 86.6264 42.3561 86.4987V82.3851L43.9161 82.3787V86.1567L46.8968 88.3903L45.9729 89.629Z" fill="#5AAA9C"/>
<path d="M79.776 69.48H78.636V73.164H74.34V69.48H73.2V78H74.34V74.124H78.636V78H79.776V69.48ZM84.3126 78.144C86.0046 78.144 87.1086 76.956 87.1086 75C87.1086 73.044 86.0046 71.856 84.3126 71.856C82.6206 71.856 81.5166 73.044 81.5166 75C81.5166 76.956 82.6206 78.144 84.3126 78.144ZM84.3126 77.256C83.2326 77.256 82.5966 76.488 82.5966 75C82.5966 73.512 83.2326 72.744 84.3126 72.744C85.3926 72.744 86.0286 73.512 86.0286 75C86.0286 76.488 85.3926 77.256 84.3126 77.256ZM89.8045 69.3H88.7845V78H89.8045V69.3ZM93.9252 78.144C94.8612 78.144 95.5092 77.688 95.8692 76.884V78H96.8292V69.3H95.8092V72.888C95.4252 72.18 94.8372 71.856 94.0452 71.856C92.5452 71.856 91.4892 73.152 91.4892 75C91.4892 76.884 92.4732 78.144 93.9252 78.144ZM94.2012 77.244C93.1812 77.244 92.5692 76.404 92.5692 75C92.5692 73.584 93.1812 72.756 94.2012 72.756C95.2092 72.756 95.8332 73.56 95.8332 74.868V75.144C95.8332 76.428 95.1972 77.244 94.2012 77.244ZM104.206 78.144C105.67 78.144 106.498 77.388 106.498 76.308C106.498 75.432 106.018 74.88 104.938 74.676L103.774 74.46C103.186 74.352 102.85 74.112 102.85 73.608C102.85 73.02 103.318 72.684 104.086 72.684C104.902 72.684 105.37 73.104 105.502 73.704L106.51 73.476C106.39 72.468 105.478 71.856 104.134 71.856C102.718 71.856 101.854 72.624 101.854 73.656C101.854 74.568 102.43 75.144 103.45 75.336L104.626 75.552C105.166 75.648 105.49 75.864 105.49 76.392C105.49 76.908 105.046 77.304 104.242 77.304C103.366 77.304 102.802 76.872 102.658 76.116L101.626 76.296C101.83 77.484 102.79 78.144 104.206 78.144ZM108.189 80.34H109.209V77.052C109.473 77.64 110.121 78.144 111.045 78.144C112.497 78.144 113.529 76.92 113.529 75C113.529 73.104 112.557 71.856 111.105 71.856C110.229 71.856 109.533 72.288 109.149 73.116V72H108.189V80.34ZM110.805 77.244C109.809 77.244 109.185 76.428 109.185 75.132V74.844C109.185 73.548 109.833 72.756 110.841 72.756C111.849 72.756 112.449 73.584 112.449 75C112.449 76.404 111.825 77.244 110.805 77.244ZM116.638 78.144C117.622 78.144 118.378 77.676 118.654 76.908C118.666 77.292 118.702 77.688 118.75 78H119.818C119.674 77.532 119.614 76.896 119.614 75.972V74.352C119.614 72.6 118.894 71.856 117.25 71.856C115.846 71.856 114.886 72.66 114.802 73.884H115.894C115.942 73.128 116.446 72.696 117.262 72.696C118.186 72.696 118.582 73.14 118.582 74.244V74.34L117.466 74.472C116.482 74.592 115.906 74.736 115.45 74.964C114.91 75.264 114.61 75.78 114.61 76.38C114.61 77.448 115.414 78.144 116.638 78.144ZM116.866 77.304C116.134 77.304 115.69 76.944 115.69 76.356C115.69 75.768 116.074 75.456 116.962 75.324L118.594 75.084V75.384C118.594 76.548 117.91 77.304 116.866 77.304ZM123.78 78.144C125.124 78.144 126.024 77.352 126.24 75.984L125.268 75.828C125.112 76.764 124.608 77.256 123.792 77.256C122.724 77.256 122.1 76.428 122.1 74.988C122.1 73.584 122.724 72.744 123.756 72.744C124.572 72.744 125.1 73.248 125.208 74.16L126.252 74.04C126.096 72.66 125.184 71.856 123.78 71.856C122.076 71.856 121.02 73.044 121.02 75C121.02 76.92 122.1 78.144 123.78 78.144ZM132.617 74.58C132.617 72.78 131.681 71.856 130.061 71.856C128.345 71.856 127.337 73.068 127.337 75.072C127.337 77.052 128.357 78.144 130.073 78.144C131.285 78.144 132.161 77.568 132.581 76.476L131.741 76.104C131.477 76.836 130.913 77.244 130.145 77.244C129.077 77.244 128.369 76.476 128.357 75.3H132.617V74.58ZM131.585 74.472H128.357C128.381 73.344 128.981 72.66 130.037 72.66C131.021 72.66 131.585 73.236 131.585 74.34V74.472ZM140.2 72H138.7V71.196C138.7 70.464 138.952 70.128 139.564 70.128C139.756 70.128 139.984 70.152 140.2 70.188V69.312C139.972 69.252 139.72 69.228 139.432 69.228C138.364 69.228 137.68 69.96 137.68 71.052V72H136.576V72.84H137.68V78H138.7V72.84H140.2V72ZM143.656 78.144C145.348 78.144 146.452 76.956 146.452 75C146.452 73.044 145.348 71.856 143.656 71.856C141.964 71.856 140.86 73.044 140.86 75C140.86 76.956 141.964 78.144 143.656 78.144ZM143.656 77.256C142.576 77.256 141.94 76.488 141.94 75C141.94 73.512 142.576 72.744 143.656 72.744C144.736 72.744 145.372 73.512 145.372 75C145.372 76.488 144.736 77.256 143.656 77.256ZM149.016 73.368V72H148.068V78H149.088V75.432C149.088 74.712 149.112 73.908 149.688 73.332C149.976 73.044 150.384 72.864 151.008 72.864H151.056V71.868C150.984 71.856 150.912 71.856 150.84 71.856C149.928 71.856 149.304 72.528 149.016 73.368ZM157.79 78.18C159.53 78.18 160.622 77.232 160.622 75.636C160.622 74.448 159.986 73.788 158.822 73.584C159.758 73.356 160.334 72.624 160.334 71.664C160.334 70.308 159.386 69.48 157.754 69.48C156.05 69.48 154.994 70.464 154.994 72.072L156.002 72.288C156.002 71.052 156.614 70.38 157.694 70.38C158.678 70.38 159.254 70.896 159.254 71.784C159.254 72.672 158.738 73.224 157.622 73.224H157.202V74.112H157.67C158.918 74.112 159.542 74.664 159.542 75.66C159.542 76.716 158.954 77.28 157.826 77.28C156.674 77.28 155.942 76.62 155.894 75.492L154.838 75.624C154.886 77.184 156.05 78.18 157.79 78.18ZM167.32 78.144C168.256 78.144 168.904 77.688 169.264 76.884V78H170.224V69.3H169.204V72.888C168.82 72.18 168.232 71.856 167.44 71.856C165.94 71.856 164.884 73.152 164.884 75C164.884 76.884 165.868 78.144 167.32 78.144ZM167.596 77.244C166.576 77.244 165.964 76.404 165.964 75C165.964 73.584 166.576 72.756 167.596 72.756C168.604 72.756 169.228 73.56 169.228 74.868V75.144C169.228 76.428 168.592 77.244 167.596 77.244ZM173.931 78.144C174.915 78.144 175.671 77.676 175.947 76.908C175.959 77.292 175.995 77.688 176.043 78H177.111C176.967 77.532 176.907 76.896 176.907 75.972V74.352C176.907 72.6 176.187 71.856 174.543 71.856C173.139 71.856 172.179 72.66 172.095 73.884H173.187C173.235 73.128 173.739 72.696 174.555 72.696C175.479 72.696 175.875 73.14 175.875 74.244V74.34L174.759 74.472C173.775 74.592 173.199 74.736 172.743 74.964C172.203 75.264 171.903 75.78 171.903 76.38C171.903 77.448 172.707 78.144 173.931 78.144ZM174.159 77.304C173.427 77.304 172.983 76.944 172.983 76.356C172.983 75.768 173.367 75.456 174.255 75.324L175.887 75.084V75.384C175.887 76.548 175.203 77.304 174.159 77.304ZM178.936 80.4C179.944 80.4 180.664 79.896 181.216 78.384L183.556 72H182.452L181.06 76.176C180.964 76.476 180.892 76.716 180.856 76.884H180.832C180.796 76.716 180.736 76.476 180.628 76.176L179.092 72H177.952L180.34 77.928L180.184 78.372C179.908 79.152 179.536 79.476 178.816 79.476C178.684 79.476 178.54 79.476 178.384 79.452V80.352C178.576 80.388 178.756 80.4 178.936 80.4ZM186.683 78.144C188.147 78.144 188.975 77.388 188.975 76.308C188.975 75.432 188.495 74.88 187.415 74.676L186.251 74.46C185.663 74.352 185.326 74.112 185.326 73.608C185.326 73.02 185.795 72.684 186.562 72.684C187.379 72.684 187.847 73.104 187.979 73.704L188.987 73.476C188.867 72.468 187.955 71.856 186.611 71.856C185.195 71.856 184.331 72.624 184.331 73.656C184.331 74.568 184.907 75.144 185.927 75.336L187.103 75.552C187.643 75.648 187.967 75.864 187.967 76.392C187.967 76.908 187.523 77.304 186.719 77.304C185.843 77.304 185.279 76.872 185.135 76.116L184.103 76.296C184.307 77.484 185.267 78.144 186.683 78.144Z" fill="#100024"/>
<path d="M75.872 96.1899H73.1V104H74.145V100.81H75.872C77.489 100.81 78.523 99.9079 78.523 98.4999C78.523 97.0919 77.489 96.1899 75.872 96.1899ZM75.762 99.9299H74.145V97.0699H75.762C76.774 97.0699 77.423 97.6309 77.423 98.4999C77.423 99.3689 76.774 99.9299 75.762 99.9299ZM80.9927 104.132C81.8947 104.132 82.5877 103.703 82.8407 102.999C82.8517 103.351 82.8847 103.714 82.9287 104H83.9077C83.7757 103.571 83.7207 102.988 83.7207 102.141V100.656C83.7207 99.0499 83.0607 98.3679 81.5537 98.3679C80.2667 98.3679 79.3867 99.1049 79.3097 100.227H80.3107C80.3547 99.5339 80.8167 99.1379 81.5647 99.1379C82.4117 99.1379 82.7747 99.5449 82.7747 100.557V100.645L81.7517 100.766C80.8497 100.876 80.3217 101.008 79.9037 101.217C79.4087 101.492 79.1337 101.965 79.1337 102.515C79.1337 103.494 79.8707 104.132 80.9927 104.132ZM81.2017 103.362C80.5307 103.362 80.1237 103.032 80.1237 102.493C80.1237 101.954 80.4757 101.668 81.2897 101.547L82.7857 101.327V101.602C82.7857 102.669 82.1587 103.362 81.2017 103.362ZM85.5804 106.2C86.5044 106.2 87.1644 105.738 87.6704 104.352L89.8154 98.4999H88.8034L87.5274 102.328C87.4394 102.603 87.3734 102.823 87.3404 102.977H87.3184C87.2854 102.823 87.2304 102.603 87.1314 102.328L85.7234 98.4999H84.6784L86.8674 103.934L86.7244 104.341C86.4714 105.056 86.1304 105.353 85.4704 105.353C85.3494 105.353 85.2174 105.353 85.0744 105.331V106.156C85.2504 106.189 85.4154 106.2 85.5804 106.2ZM96.4601 104.132C97.8351 104.132 98.7261 102.966 98.7261 101.25C98.7261 99.5669 97.8571 98.3679 96.5151 98.3679C95.6571 98.3679 95.0521 98.8409 94.7661 99.4569V96.0249H93.8311V104H94.5461L94.7111 103.054C94.9971 103.692 95.6241 104.132 96.4601 104.132ZM96.2071 103.307C95.2831 103.307 94.7441 102.559 94.7441 101.415V101.129C94.7441 99.9299 95.2941 99.1929 96.2181 99.1929C97.1971 99.1929 97.7361 100.018 97.7361 101.25C97.7361 102.504 97.1641 103.307 96.2071 103.307ZM100.179 106.2C101.103 106.2 101.763 105.738 102.269 104.352L104.414 98.4999H103.402L102.126 102.328C102.038 102.603 101.972 102.823 101.939 102.977H101.917C101.884 102.823 101.829 102.603 101.73 102.328L100.322 98.4999H99.277L101.466 103.934L101.323 104.341C101.07 105.056 100.729 105.353 100.069 105.353C99.948 105.353 99.816 105.353 99.673 105.331V106.156C99.849 106.189 100.014 106.2 100.179 106.2ZM107.77 104H112.786V103.109H109.101C109.849 102.592 110.388 102.152 110.982 101.602C112.159 100.513 112.698 99.5779 112.698 98.4999C112.698 97.0149 111.807 96.1899 110.322 96.1899C108.782 96.1899 107.858 97.0589 107.858 98.4119C107.858 98.6099 107.88 98.8079 107.935 99.0279L108.925 99.1269C108.87 98.8519 108.837 98.6209 108.837 98.4229C108.837 97.5869 109.376 97.0479 110.267 97.0479C111.147 97.0479 111.664 97.5759 111.664 98.5109C111.664 99.4239 111.334 100.062 110.366 100.997C109.387 101.932 108.397 102.724 107.77 103.186V104ZM114.659 104H115.748V103.813C115.748 101.547 116.639 99.1489 118.454 97.1249V96.3549H113.504V97.2679H117.332C115.638 99.3799 114.659 101.613 114.659 103.89V104ZM119.104 105.287L122.206 95.6399H121.337L118.235 105.287H119.104ZM125.653 104.165C127.589 104.165 128.601 102.625 128.601 100.183C128.601 97.7299 127.589 96.1899 125.653 96.1899C123.717 96.1899 122.705 97.7299 122.705 100.183C122.705 102.625 123.717 104.165 125.653 104.165ZM125.653 103.34C124.333 103.34 123.695 102.119 123.695 100.183C123.695 98.2359 124.333 97.0149 125.653 97.0149C126.973 97.0149 127.611 98.2359 127.611 100.183C127.611 102.119 126.973 103.34 125.653 103.34ZM130.417 104H131.506V103.813C131.506 101.547 132.397 99.1489 134.212 97.1249V96.3549H129.262V97.2679H133.09C131.396 99.3799 130.417 101.613 130.417 103.89V104ZM134.863 105.287L137.965 95.6399H137.096L133.994 105.287H134.863ZM138.739 104H143.755V103.109H140.07C140.818 102.592 141.357 102.152 141.951 101.602C143.128 100.513 143.667 99.5779 143.667 98.4999C143.667 97.0149 142.776 96.1899 141.291 96.1899C139.751 96.1899 138.827 97.0589 138.827 98.4119C138.827 98.6099 138.849 98.8079 138.904 99.0279L139.894 99.1269C139.839 98.8519 139.806 98.6209 139.806 98.4229C139.806 97.5869 140.345 97.0479 141.236 97.0479C142.116 97.0479 142.633 97.5759 142.633 98.5109C142.633 99.4239 142.303 100.062 141.335 100.997C140.356 101.932 139.366 102.724 138.739 103.186V104ZM144.691 104H149.707V103.109H146.022C146.77 102.592 147.309 102.152 147.903 101.602C149.08 100.513 149.619 99.5779 149.619 98.4999C149.619 97.0149 148.728 96.1899 147.243 96.1899C145.703 96.1899 144.779 97.0589 144.779 98.4119C144.779 98.6099 144.801 98.8079 144.856 99.0279L145.846 99.1269C145.791 98.8519 145.758 98.6209 145.758 98.4229C145.758 97.5869 146.297 97.0479 147.188 97.0479C148.068 97.0479 148.585 97.5759 148.585 98.5109C148.585 99.4239 148.255 100.062 147.287 100.997C146.308 101.932 145.318 102.724 144.691 103.186V104ZM151.324 105.54C152.083 105.221 152.314 104.803 152.314 103.923V102.702H151.027V104H151.731V104.033C151.731 104.572 151.621 104.814 151.071 105.056L151.324 105.54ZM158.018 104H159.008V96.3549H158.172C157.985 97.1579 157.358 97.5979 156.621 97.5979H156.379V98.4889H156.775C157.193 98.4889 157.787 98.3239 158.018 98.0049V104ZM166.383 102.064V101.294H165.129V96.3549H164.029L160.608 101.393V102.064H164.194V104H165.129V102.064H166.383ZM164.194 98.4889V101.294H161.609C161.851 101.008 162.038 100.744 162.335 100.293L163.644 98.3239C163.908 97.9279 164.051 97.6859 164.194 97.3229H164.216C164.194 97.7189 164.194 97.8729 164.194 98.4889ZM168.825 98.4999H167.538V99.7979H168.825V98.4999ZM168.825 102.702H167.538V104H168.825V102.702ZM172.684 104.165C174.279 104.165 175.28 103.296 175.28 101.833C175.28 100.744 174.697 100.139 173.63 99.9519C174.488 99.7429 175.016 99.0719 175.016 98.1919C175.016 96.9489 174.147 96.1899 172.651 96.1899C171.089 96.1899 170.121 97.0919 170.121 98.5659L171.045 98.7639C171.045 97.6309 171.606 97.0149 172.596 97.0149C173.498 97.0149 174.026 97.4879 174.026 98.3019C174.026 99.1159 173.553 99.6219 172.53 99.6219H172.145V100.436H172.574C173.718 100.436 174.29 100.942 174.29 101.855C174.29 102.823 173.751 103.34 172.717 103.34C171.661 103.34 170.99 102.735 170.946 101.701L169.978 101.822C170.022 103.252 171.089 104.165 172.684 104.165ZM179.332 104.165C181.268 104.165 182.28 102.625 182.28 100.183C182.28 97.7299 181.268 96.1899 179.332 96.1899C177.396 96.1899 176.384 97.7299 176.384 100.183C176.384 102.625 177.396 104.165 179.332 104.165ZM179.332 103.34C178.012 103.34 177.374 102.119 177.374 100.183C177.374 98.2359 178.012 97.0149 179.332 97.0149C180.652 97.0149 181.29 98.2359 181.29 100.183C181.29 102.119 180.652 103.34 179.332 103.34Z" fill="#4B4B55"/>
</g>
<defs>
<linearGradient id="paint0_linear_2_5118" x1="44.6152" y1="25.8193" x2="40.5861" y2="32.7978" gradientUnits="userSpaceOnUse">
<stop stop-color="#E6EBEF"/>
<stop offset="0.0764" stop-color="#BBCEE5"/>
<stop offset="0.1854" stop-color="#85A9D8"/>
<stop offset="0.2796" stop-color="#5D8FCF"/>
<stop offset="0.3543" stop-color="#457EC9"/>
<stop offset="0.4" stop-color="#3C78C7"/>
<stop offset="0.9" stop-color="#2E5C99"/>
</linearGradient>
<clipPath id="clip0_2_5118">
<rect width="293" height="131" fill="white"/>
</clipPath>
</defs>
</svg>
