<svg width="102" height="24" viewBox="0 0 102 24" fill="none" xmlns="http://www.w3.org/2000/svg">
<g clip-path="url(#clip0_2_4681)">
<path d="M90.6108 9.64152C92.7342 9.64152 93.4596 11.3719 93.7416 12.6686H87.4836C87.8172 10.8993 88.8798 9.64152 90.6108 9.64152ZM91.1988 18.2069C89.2032 18.2069 87.8724 16.9148 87.486 15.0869H96.5742C96.5742 15.0869 96.6462 14.6303 96.6462 14.0699C96.6462 10.1141 94.65 7.22508 90.6108 7.22508C86.8932 7.22508 84.4968 10.3027 84.4968 13.9438C84.4968 17.585 86.5884 20.6627 91.0356 20.6627C94.4718 20.6627 96.6678 18.508 96.6678 18.508L95.2038 16.5487C95.2038 16.5487 93.4998 18.2069 91.1988 18.2069ZM98.8272 20.3756H101.849V3.0325H98.8272V20.3756ZM81.4668 2.76283C82.734 2.76283 84.1896 3.09778 84.1896 3.09778V5.66475C83.1438 5.27471 80.2332 4.46027 80.2332 6.93528V7.48848H84.1896V9.97734H80.2332V20.3755H77.2122V6.651C77.2122 2.88275 80.1984 2.76283 81.4668 2.76283ZM72.8934 2.76283C74.1612 2.76283 75.6162 3.09778 75.6162 3.09778V5.66475C74.5704 5.27471 71.6604 4.46027 71.6604 6.93528V7.48848H75.6162V9.97734H71.6604V20.3755H68.6388V9.97734H66.4056V7.48848H68.6388V6.651C68.6388 2.88275 71.6256 2.76283 72.8934 2.76283ZM61.623 7.48782H64.6446V20.3749H61.623V18.6101C60.894 19.4707 59.539 20.6381 57.5485 20.6381C54.3964 20.6381 52.7977 18.4371 52.7977 15.9063C52.7977 13.3753 52.7977 7.48782 52.7977 7.48782H55.8191C55.8191 7.48782 55.8191 13.6569 55.8191 15.0447C55.8191 16.4327 56.4961 17.8799 58.6492 17.8799C60.0588 17.8799 61.0284 16.9861 61.623 15.8738V7.48782ZM42.2893 17.5693H38.4829V6.43068H42.2893C45.3649 6.43068 47.6065 8.92434 47.6065 12.0002C47.6065 15.0761 45.3649 17.5693 42.2893 17.5693ZM42.2897 3.62534H35.414V20.3767H42.2897C46.9153 20.3767 50.6651 16.6267 50.6651 12.0011C50.6651 7.3752 46.9153 3.62534 42.2897 3.62534Z" fill="black"/>
<path d="M0 6.00012V18.0001C1.65687 18.0001 3.00004 15.3137 3.00004 12C3.00004 8.68644 1.65687 6.00012 0 6.00012ZM5.70703 3.62344V20.3747C9.02076 20.3747 11.7071 16.6247 11.7071 11.999C11.7071 7.37328 9.02076 3.62344 5.70703 3.62344ZM26.414 12C26.414 18.6275 21.0415 24 14.414 24V0C21.0415 0 26.414 5.37269 26.414 12Z" fill="black"/>
</g>
<defs>
<clipPath id="clip0_2_4681">
<rect width="102" height="24" fill="white"/>
</clipPath>
</defs>
</svg>
