<svg width="38" height="25" viewBox="0 0 38 25" fill="none" xmlns="http://www.w3.org/2000/svg">
<path d="M9.52999 24.7241L13.206 17.0981H15.678C15.685 17.1231 15.694 17.1481 15.698 17.1741L16.105 19.2051L16.527 21.3091L16.935 23.3401L17.195 24.6431C17.201 24.6701 17.202 24.6971 17.205 24.7241H14.92L14.777 23.8111H13.428L12.412 23.8101C12.371 23.8101 12.345 23.8181 12.327 23.8611C12.208 24.1501 12.087 24.4361 11.965 24.7241H9.52999ZM14.126 19.5011L14.104 19.5001L12.933 22.2411H14.508L14.126 19.5011ZM24.272 24.7231C24.304 24.6511 24.334 24.5781 24.369 24.5071L25.514 22.1581L26.388 20.3621L27.585 17.9051L27.942 17.1701L27.98 17.0981H30.441L30.519 17.4841L30.931 19.5671L31.366 21.7741L31.76 23.7691L31.948 24.7231H29.646C29.646 24.7011 29.649 24.6791 29.646 24.6571L29.57 24.0611C29.56 23.9801 29.548 23.9001 29.535 23.8101H27.205C27.19 23.8101 27.175 23.8121 27.16 23.8101C27.124 23.8071 27.102 23.8201 27.088 23.8571C26.972 24.1461 26.854 24.4341 26.736 24.7231H24.272ZM29.302 22.2421C29.168 21.3341 29.036 20.4331 28.902 19.5331C28.902 19.5231 28.897 19.5141 28.893 19.5051C28.893 19.5031 28.889 19.5021 28.887 19.5021H28.874C28.494 20.4111 28.111 21.3221 27.727 22.2421H29.302ZM19.491 24.7221L19.619 23.8261L19.746 22.9361L19.888 21.9441L20.013 21.0691L20.155 20.0781L20.281 19.1961L20.309 18.9941C20.203 18.9911 20.102 18.9931 20.002 18.9921H18.158L18.518 17.0591H25.102C25.069 17.2751 25.019 17.4851 24.979 17.6981C24.939 17.9141 24.893 18.1301 24.85 18.3461L24.721 18.9921H22.69C22.677 19.0721 22.665 19.1451 22.655 19.2181L22.418 20.8711L22.174 22.5911L21.907 24.4581L21.867 24.7221H19.491ZM5.55 24.7251L5.903 22.9261C6.043 22.2071 6.183 21.4881 6.325 20.7691L6.68999 18.9121L7.02299 17.2071C7.029 17.1731 7.03699 17.1391 7.04499 17.1011H9.513L9.444 17.4461C9.17214 18.8024 8.90047 20.1587 8.629 21.5151L8.279 23.2551L7.985 24.7251H5.55ZM2.042 10.3901H2.158C4.816 10.3901 7.474 10.3901 10.131 10.3921C10.221 10.3921 10.301 10.3671 10.383 10.3401C10.399 10.3351 10.415 10.3171 10.423 10.3001C10.4373 10.2712 10.449 10.2411 10.458 10.2101C10.476 10.1581 10.434 10.0631 10.38 10.0451C10.2995 10.014 10.2143 9.9968 10.128 9.9941H2.073C1.98658 9.99797 1.90005 9.98955 1.816 9.9691C1.71989 9.93714 1.62765 9.89454 1.541 9.8421C1.29951 9.69988 1.08045 9.52262 0.890995 9.3161C0.666995 9.0811 0.469996 8.8231 0.271996 8.5661C0.265996 8.5581 0.261996 8.5491 0.257996 8.5401C0.315996 8.5241 11.639 8.5161 11.841 8.5321L11.858 8.5921C11.975 9.1271 12.153 9.6401 12.405 10.1261C12.646 10.5921 12.948 11.0131 13.317 11.3851C13.457 11.5251 13.586 11.6761 13.727 11.8151C14.233 12.3051 14.807 12.7041 15.42 13.0491C15.806 13.2671 16.204 13.4601 16.608 13.6411L16.669 13.6711C16.6224 13.8109 16.5596 13.9448 16.482 14.0701C16.2453 14.4498 15.9307 14.775 15.559 15.0241C15.1962 15.2801 14.7879 15.4644 14.356 15.5671C14.175 15.6094 13.9898 15.6309 13.804 15.6311L7.747 15.6301C7.648 15.6301 7.549 15.6221 7.451 15.6131C7.40931 15.6084 7.36854 15.5977 7.33 15.5811C7.21815 15.5347 7.10713 15.4864 6.997 15.4361C6.7901 15.3344 6.59855 15.2042 6.428 15.0491C6.15779 14.8225 5.92847 14.5512 5.75 14.2471C5.732 14.2161 5.717 14.1841 5.693 14.1391H5.80099C7.87899 14.1391 9.95799 14.1381 12.037 14.1401C12.127 14.1401 12.207 14.1131 12.289 14.0891C12.304 14.0841 12.316 14.0691 12.327 14.0561C12.334 14.0471 12.335 14.0331 12.342 14.0231C12.402 13.9331 12.35 13.8641 12.302 13.7951C12.292 13.7844 12.2792 13.7768 12.265 13.7731C12.167 13.7394 12.0646 13.7205 11.961 13.7171C9.94399 13.7191 7.927 13.7171 5.911 13.7191C5.626 13.7191 5.364 13.6431 5.118 13.5071C4.62891 13.2337 4.21973 12.8373 3.931 12.3571L3.911 12.3191C3.931 12.3151 3.94599 12.3111 3.96099 12.3101H4.021C6.365 12.3101 8.70799 12.3101 11.051 12.3121C11.1455 12.3111 11.2369 12.2787 11.311 12.2201C11.3553 12.1842 11.3856 12.134 11.397 12.0781C11.405 12.0361 11.377 11.9831 11.355 11.9401C11.345 11.9201 11.313 11.9101 11.289 11.9001C11.1983 11.8677 11.1023 11.8528 11.006 11.8561C10.434 11.8561 9.862 11.8541 9.291 11.8521L6.21099 11.8371C5.46099 11.8331 4.71099 11.8271 3.96099 11.8241C3.78099 11.8241 3.611 11.7781 3.446 11.7051C3.27847 11.638 3.11912 11.5522 2.971 11.4491C2.933 11.4211 2.895 11.3931 2.862 11.3601C2.654 11.1511 2.44 10.9501 2.252 10.7201C2.172 10.6231 2.119 10.5091 2.042 10.3901ZM26.195 12.0731L26.273 12.1901C26.281 12.2021 26.291 12.2161 26.303 12.2211C26.398 12.2621 26.486 12.3111 26.597 12.3111C28.931 12.3081 31.264 12.3091 33.597 12.3091H33.703C33.692 12.3361 33.686 12.3541 33.676 12.3691C33.5312 12.6 33.3582 12.812 33.161 13.0001C32.971 13.1851 32.766 13.3531 32.535 13.4861C32.3421 13.6037 32.1269 13.68 31.903 13.7101C31.8538 13.7152 31.8044 13.7176 31.755 13.7171L25.631 13.7161C25.531 13.7161 25.44 13.7401 25.349 13.7721C25.283 13.7961 25.265 13.8651 25.232 13.9191C25.228 13.9241 25.234 13.9391 25.238 13.9471C25.262 13.9871 25.288 14.0271 25.313 14.0661C25.3186 14.0743 25.3266 14.0806 25.336 14.0841C25.41 14.1021 25.484 14.1211 25.559 14.1371C25.582 14.1421 25.608 14.1381 25.633 14.1381H31.91C31.888 14.1851 31.873 14.2211 31.855 14.2541C31.7 14.5318 31.4961 14.7791 31.253 14.9841C31.192 15.0381 31.127 15.0881 31.065 15.1421C30.823 15.3551 30.534 15.4821 30.237 15.5951C30.2088 15.6046 30.1796 15.6107 30.15 15.6131C30.051 15.6201 29.953 15.6301 29.854 15.6301C27.842 15.6311 25.83 15.6311 23.818 15.6291C23.673 15.6291 23.528 15.6151 23.382 15.6061C23.3498 15.6037 23.3181 15.5966 23.288 15.5851C23.032 15.4871 22.775 15.3911 22.521 15.2881C22.439 15.2551 22.366 15.2001 22.286 15.1601C22.075 15.0531 21.894 14.9021 21.709 14.7561C21.629 14.6931 21.566 14.6061 21.493 14.5321C21.3543 14.3839 21.2291 14.2236 21.119 14.0531C21.06 13.9691 21.025 13.8681 20.98 13.7741C20.964 13.7411 20.95 13.7071 20.933 13.6681L21.091 13.5981C21.7217 13.3229 22.3285 12.9958 22.905 12.6201C23.339 12.3301 23.745 12.0061 24.105 11.6271C24.384 11.3331 24.662 11.0381 24.889 10.6981C25.2866 10.1102 25.5758 9.45587 25.743 8.7661C25.762 8.6891 25.777 8.6121 25.795 8.5311H37.337C37.269 8.6311 37.215 8.7301 37.144 8.8141C36.9465 9.05555 36.7355 9.28559 36.512 9.5031C36.385 9.6231 36.259 9.7461 36.102 9.8311C35.919 9.9311 35.728 9.9941 35.517 9.9941L27.507 9.9931C27.41 9.9931 27.322 10.0211 27.232 10.0461C27.187 10.0591 27.14 10.1541 27.152 10.1991C27.1632 10.2347 27.1769 10.2694 27.193 10.3031C27.199 10.3161 27.21 10.3311 27.221 10.3351C27.289 10.3561 27.353 10.3901 27.428 10.3901C27.613 10.3881 27.798 10.3891 27.984 10.3891H35.526C35.519 10.4101 35.516 10.4241 35.509 10.4361C35.4135 10.6096 35.3027 10.7743 35.178 10.9281C35.125 10.9931 35.059 11.0481 34.999 11.1061C34.949 11.1551 34.896 11.2001 34.85 11.2511C34.7377 11.377 34.6057 11.4837 34.459 11.5671C34.352 11.6271 34.236 11.6731 34.122 11.7201C34.0481 11.7541 33.9711 11.7809 33.892 11.8001C33.8069 11.8158 33.7205 11.8232 33.634 11.8221C32.965 11.8261 32.297 11.8271 31.629 11.8301L28.541 11.8451C27.881 11.8481 27.22 11.8501 26.559 11.8581C26.475 11.8591 26.391 11.8931 26.308 11.9131C26.295 11.9161 26.283 11.9301 26.275 11.9421L26.195 12.0731ZM15.562 6.3701H13.007C13.006 6.3431 13.004 6.3171 13.004 6.2901C13.012 5.8531 13.077 5.4241 13.189 5.0001C13.271 4.6871 13.404 4.3941 13.539 4.1021C13.694 3.7641 13.875 3.4401 14.092 3.1371C14.276 2.8811 14.487 2.6481 14.712 2.4291L14.742 2.4061C15.195 2.8081 15.705 3.1211 16.257 3.3691C16.254 3.3871 16.253 3.3991 16.249 3.4111C16.16 3.6661 16.073 3.9211 15.982 4.1751C15.938 4.2991 15.882 4.4171 15.838 4.5411C15.747 4.8011 15.691 5.0711 15.661 5.3441C15.63 5.6201 15.608 5.8961 15.581 6.1721C15.576 6.2361 15.569 6.2981 15.562 6.3701ZM15.563 6.8041L15.597 7.2061C15.635 7.6501 15.683 8.0931 15.809 8.5231C15.842 8.6331 15.889 8.7411 15.929 8.8501L16.207 9.6411L16.262 9.8011C15.704 10.0208 15.1886 10.3362 14.739 10.7331C14.657 10.6671 14.577 10.6111 14.512 10.5331C14.1952 10.1588 13.9171 9.75342 13.682 9.3231C13.4015 8.81541 13.2005 8.26771 13.086 7.6991C13.0313 7.42983 13.0032 7.15585 13.002 6.8811V6.8091C13.059 6.7911 15.469 6.7871 15.563 6.8041ZM21.994 6.3671C21.978 5.3221 21.795 4.3201 21.318 3.3751C21.398 3.3391 21.474 3.2991 21.554 3.2691C21.664 3.2281 21.766 3.1761 21.857 3.1011C21.8754 3.08457 21.8968 3.07168 21.92 3.0631C22.128 2.9991 22.298 2.8701 22.468 2.7431C22.597 2.6461 22.718 2.5391 22.841 2.4371C22.852 2.4271 22.865 2.4201 22.885 2.4071C22.951 2.4821 23.015 2.5571 23.082 2.6291C23.133 2.6861 23.187 2.7391 23.24 2.7951C23.259 2.8151 23.28 2.8331 23.295 2.8551C23.443 3.0691 23.595 3.2801 23.735 3.4981C23.917 3.7801 24.067 4.0791 24.186 4.3921C24.25 4.5581 24.29 4.7321 24.336 4.9051C24.393 5.1101 24.449 5.3151 24.496 5.5221C24.519 5.6211 24.528 5.7231 24.533 5.8241C24.543 5.9981 24.552 6.1701 24.593 6.3401C24.595 6.3471 24.593 6.3541 24.593 6.3621C24.543 6.3791 22.099 6.3851 21.994 6.3671ZM21.992 6.7971H24.598C24.591 6.8601 24.583 6.9201 24.578 6.9801C24.568 7.0881 24.553 7.1971 24.552 7.3061C24.5493 7.55648 24.5072 7.80488 24.427 8.0421C24.207 8.7021 23.922 9.3321 23.534 9.9131C23.3389 10.1964 23.1233 10.4652 22.889 10.7171C22.886 10.7211 22.88 10.7221 22.869 10.7271L22.547 10.4971C22.392 10.3871 22.24 10.2711 22.082 10.1651C21.8663 10.0249 21.6346 9.91074 21.392 9.8251C21.368 9.8171 21.346 9.8071 21.319 9.7971C21.722 8.8371 22.021 7.8571 21.992 6.7971ZM18.59 3.9101V6.3711H16.007C16.022 5.9571 16.08 5.5541 16.161 5.1551C16.273 4.6051 16.415 4.0661 16.659 3.5511C16.709 3.5641 16.755 3.5721 16.797 3.5901C16.986 3.6701 17.173 3.7481 17.377 3.7831C17.65 3.8301 17.923 3.8761 18.2 3.8921C18.31 3.8991 18.422 3.9001 18.533 3.9051C18.55 3.9051 18.567 3.9071 18.59 3.9091V3.9101ZM20.913 3.5501C21.232 4.0271 21.637 5.7801 21.566 6.3621L21.561 6.3671C21.559 6.3691 21.557 6.3711 21.555 6.3711C21.545 6.3731 21.535 6.3761 21.526 6.3761H19.063C19.051 6.3761 19.039 6.3741 19.019 6.3721C19.016 6.3451 19.012 6.3191 19.012 6.2931V4.7931C19.013 4.5391 19.012 4.2841 19.011 4.0291V3.9111C19.038 3.9081 19.055 3.9041 19.071 3.9041C19.531 3.9021 19.982 3.8311 20.431 3.7391C20.447 3.7351 20.467 3.7341 20.48 3.7251C20.565 3.6621 20.671 3.6461 20.764 3.6001C20.811 3.5761 20.864 3.5661 20.913 3.5501ZM18.584 9.1931C18.534 9.1971 18.487 9.2031 18.44 9.2041C18.092 9.2091 17.753 9.2781 17.414 9.3481L17.348 9.3621C17.1967 9.38559 17.0508 9.4357 16.917 9.5101C16.8356 9.55027 16.7474 9.5747 16.657 9.5821C16.252 8.6971 16.063 7.7661 16.005 6.7971H18.577L18.585 6.8041C18.587 6.8061 18.589 6.8081 18.589 6.8101C18.591 6.8251 18.594 6.8401 18.594 6.8541C18.594 7.6241 18.594 8.3951 18.592 9.1661C18.592 9.1731 18.589 9.1801 18.584 9.1931ZM21.565 6.8031C21.646 7.3531 21.251 9.0461 20.915 9.5831L20.576 9.4871C20.289 9.4041 20.002 9.3211 19.708 9.2641C19.5016 9.22417 19.2922 9.20209 19.082 9.1981C19.062 9.1981 19.043 9.1961 19.024 9.1951C19.0066 8.39921 19.0053 7.60304 19.02 6.8071C19.072 6.7911 21.468 6.7871 21.565 6.8031ZM18.21 0.7771C18.175 0.8311 18.153 0.877102 18.12 0.911102C18.006 1.0341 17.889 1.1551 17.77 1.2731C17.638 1.4041 17.499 1.5281 17.37 1.6611C17.219 1.8191 17.1 2.0041 16.981 2.1851C16.824 2.4251 16.679 2.6731 16.528 2.9181L16.48 2.9971C15.9535 2.81492 15.4742 2.51772 15.077 2.1271L15.142 2.0681C15.406 1.8451 15.698 1.6631 16.002 1.5021C16.3538 1.31529 16.7195 1.15615 17.096 1.0261C17.342 0.9411 17.596 0.891102 17.851 0.842102L18.127 0.789101L18.21 0.7771ZM19.387 0.7771C19.457 0.7871 19.517 0.793101 19.577 0.802101C19.986 0.868101 20.381 0.983099 20.77 1.1251C21.1 1.2451 21.422 1.3821 21.725 1.5631C21.999 1.7281 22.257 1.9151 22.506 2.1271C22.115 2.5171 21.654 2.7921 21.14 2.9971C21.123 2.9711 21.105 2.9451 21.089 2.9181L20.81 2.4531C20.7864 2.41521 20.7599 2.37911 20.731 2.3451C20.6203 2.20869 20.5212 2.06318 20.435 1.9101C20.4145 1.87652 20.3904 1.84532 20.363 1.8171C20.242 1.68651 20.1197 1.55717 19.996 1.4291C19.939 1.3701 19.876 1.3191 19.816 1.2631C19.7031 1.15605 19.5907 1.04838 19.479 0.940102C19.435 0.898102 19.414 0.8431 19.387 0.7771ZM22.508 11.0301C22.0691 11.4248 21.5608 11.7347 21.009 11.9441C20.889 11.9911 20.775 12.0491 20.654 12.0941C20.354 12.2061 20.042 12.2731 19.729 12.3311C19.625 12.3511 19.519 12.3651 19.4 12.3851C19.574 12.2051 19.742 12.0401 19.9 11.8661C20.2196 11.5139 20.5118 11.1378 20.774 10.7411C20.904 10.5441 21.021 10.3371 21.148 10.1291C21.648 10.3541 22.094 10.6641 22.508 11.0301ZM16.48 10.1291C16.684 10.5591 16.926 10.9611 17.216 11.3341C17.506 11.7061 17.838 12.0381 18.189 12.3761L18.103 12.3621C17.858 12.3171 17.613 12.2741 17.367 12.2251C17.0575 12.1573 16.7578 12.0508 16.475 11.9081C16.0013 11.6819 15.5534 11.4053 15.139 11.0831C15.119 11.0681 15.101 11.0521 15.082 11.0361C15.232 10.8201 16.125 10.2391 16.48 10.1291ZM16.9 10.0121C17.28 9.8051 18.237 9.6281 18.59 9.7001V12.1031C18.5 12.0681 17.907 11.4861 17.633 11.1481C17.3434 10.8006 17.0973 10.4191 16.9 10.0121ZM18.588 3.5021C18.556 3.5051 18.527 3.5091 18.498 3.5091C18.2802 3.50467 18.0637 3.47446 17.853 3.4191C17.545 3.3381 17.239 3.2491 16.932 3.1641C16.922 3.1621 16.914 3.1561 16.899 3.1471C17.301 2.3271 17.869 1.6471 18.582 1.0771C18.598 1.1401 18.603 3.3841 18.588 3.5021ZM19.014 12.1391V9.6921C19.608 9.6461 20.164 9.7921 20.716 10.0021C20.262 10.8041 19.746 11.5491 19.014 12.1391ZM19.014 3.5061V1.0551C19.042 1.0731 19.061 1.0851 19.08 1.0991C19.336 1.2921 19.564 1.5151 19.771 1.7591C20.106 2.1531 20.381 2.5881 20.644 3.0311L20.704 3.1341C20.706 3.1381 20.705 3.1441 20.707 3.1521C20.7 3.1561 20.692 3.1631 20.684 3.1661C20.379 3.2511 20.075 3.3381 19.769 3.4191C19.5678 3.47137 19.3617 3.50189 19.154 3.5101C19.11 3.5121 19.066 3.5081 19.014 3.5061Z" fill="#204376"/>
</svg>
