<svg width="38" height="14" viewBox="0 0 38 14" fill="none" xmlns="http://www.w3.org/2000/svg">
<path d="M2.79 13.9249H4.476V0.909912H3.053C2.734 2.27691 1.667 3.02591 0.411999 3.02591H0V4.54291H0.674C1.386 4.54291 2.397 4.2619 2.79 3.7189V13.9249ZM7.386 13.9249H15.926V12.4079H9.652C10.7831 11.6353 11.8538 10.7778 12.855 9.84291C14.859 7.98891 15.776 6.3969 15.776 4.5619C15.776 2.0329 14.259 0.628906 11.731 0.628906C9.109 0.628906 7.536 2.10791 7.536 4.41191C7.536 4.74891 7.574 5.08591 7.667 5.46091L9.353 5.62891C9.259 5.16091 9.203 4.76791 9.203 4.43091C9.203 3.00691 10.12 2.0899 11.637 2.0899C13.136 2.0899 14.016 2.98891 14.016 4.57991C14.016 6.13491 13.454 7.22091 11.806 8.81291C10.4093 10.1431 8.9333 11.3874 7.386 12.5389V13.9249ZM26.797 10.6289V9.3179H24.662V0.909912H22.789L16.965 9.48691V10.6289H23.07V13.9249H24.662V10.6289H26.797ZM23.07 4.54291V9.3179H18.67C19.081 8.8309 19.4 8.38191 19.905 7.61391L22.134 4.2619C22.584 3.5879 22.827 3.17591 23.07 2.55791H23.108C23.07 3.23191 23.07 3.49391 23.07 4.54291ZM37.556 7.07091H33.94V3.51291H32.35V7.07091H28.755V8.43791H32.35V12.2209H33.942V8.43791H37.557L37.556 7.07091Z" fill="#006351"/>
</svg>
