<svg width="258" height="67" viewBox="0 0 258 67" fill="none" xmlns="http://www.w3.org/2000/svg">
<g clip-path="url(#clip0_2_4924)">
<mask id="mask0_2_4924" style="mask-type:luminance" maskUnits="userSpaceOnUse" x="0" y="0" width="258" height="67">
<path d="M257.619 0H0V67H257.619V0Z" fill="white"/>
</mask>
<g mask="url(#mask0_2_4924)">
<path d="M257.619 0V66.9886H248.281C250.258 59.2906 250.699 49.7696 249.301 41.4233C247.618 30.8247 242.95 20.7458 236.333 14.5237C230.08 8.6038 222.137 6.28076 214.33 8.66896L212.535 9.32623V0H257.619ZM224.946 10.5024C222.548 8.53295 219.395 8.24539 216.571 8.96544L217.567 9.13486L217.708 9.03059C219.017 8.88721 220.397 8.95564 221.619 9.35555C221.219 9.51928 220.53 9.85243 220.048 10.1489C220.322 10.3021 220.671 10.5619 220.908 10.7908C221.427 10.5098 222.515 10.0805 223.046 9.92329C223.52 10.1294 224.738 10.9675 225.494 11.7894C224.596 11.9311 223.377 12.1933 222.393 12.5322C222.626 12.8336 222.822 13.1911 222.998 13.5813C223.951 13.3231 225.346 13.0853 226.553 13.0168C227.162 13.8004 227.662 14.7461 228.001 15.7252C226.675 15.594 224.912 15.6266 223.832 15.8009C223.944 16.0884 224.097 16.8223 224.162 17.2621C225.504 17.1775 227.69 17.3249 228.608 17.5228C228.909 18.5964 229.081 19.757 229.151 20.969C227.62 20.5202 225.816 20.1423 224.406 20.0413C224.422 20.7149 224.404 21.3592 224.362 21.9904C226.038 22.2494 227.663 22.6999 229.235 23.3026C229.214 24.4902 229.097 25.9694 228.887 27.113C227.641 26.4508 225.645 25.5726 223.958 25.0636C223.789 26.0923 223.564 27.1056 223.267 28.0765C224.919 28.8975 226.549 29.9662 228.11 31.1171C227.853 32.2175 227.481 33.4515 227.136 34.3655C225.572 33.059 223.962 31.7809 222.369 30.7702C221.887 32.0799 221.273 33.4776 220.698 34.6253C222.251 36.0295 223.718 37.551 225.176 39.1834C224.739 40.1355 224.11 41.2774 223.733 41.9576C222.335 40.2291 219.466 36.8358 219.466 36.8358C218.622 38.346 217.901 39.4749 216.838 40.6992C218.015 42.4895 219.555 45.0495 220.517 46.8219C220.022 47.594 219.535 48.2074 218.95 48.8077C217.782 46.6753 216.377 43.9792 215.559 42.2875C214.41 43.6265 213.709 44.3522 212.536 45.2531V47.7602L214.4 53.3022C213.977 53.7054 213.632 53.9506 213.089 54.2984L212.535 52.6824V55.5951C219.722 50.8497 227.039 40.3848 229.165 29.0214C229.944 25.0938 230.08 20.0396 228.807 16.3784C228.06 13.9698 226.549 11.7234 224.946 10.5024ZM223.874 8.85062C224.186 9.00287 224.485 9.20982 224.785 9.40362L224.954 9.36049C226.489 9.73837 227.956 10.4992 229.272 11.5662C228.558 11.5752 227.82 11.5588 227.106 11.6469C227.403 12.0419 227.719 12.5053 227.977 12.9313C228.942 12.9036 229.877 12.9346 230.798 13.025C231.712 14.0219 232.641 15.357 233.16 16.7343C232.092 16.3694 230.624 16.0575 229.314 15.8889C229.484 16.468 229.657 17.065 229.801 17.6841C231.256 18.0017 232.697 18.3968 234.102 18.9246C234.565 20.3492 234.916 21.8503 235.068 23.4379C233.52 22.6176 231.934 21.8381 230.306 21.3461C230.347 22.1273 230.351 22.9296 230.355 23.7204C232.033 24.4413 233.67 25.2787 235.258 26.3473C235.265 27.9503 235.15 29.4775 234.908 30.9281C233.313 29.7446 231.684 28.5734 229.99 27.7189C229.775 29.1321 229.493 30.5038 229.164 31.8388C230.79 33.0793 232.402 34.3418 233.94 35.8349C233.651 37.0623 233.227 38.3957 232.736 39.589C231.225 38.0527 229.713 36.5597 228.137 35.2598C227.601 36.9173 226.921 38.6164 226.116 40.164C227.521 41.8077 228.959 43.5206 230.312 45.3395C229.867 46.3364 229.27 47.4882 228.599 48.5422C227.611 46.9946 225.961 44.7905 224.587 43.0694C223.617 44.8117 222.469 46.7355 221.313 48.1773C222.195 49.5555 224.814 54.2462 224.814 54.2462C224.291 55.0225 223.638 55.8223 222.968 56.5375C222.968 56.5375 220.294 51.4386 219.635 50.2095C218.055 52.0739 216.79 53.3788 214.939 54.8408C215.672 56.6979 217.492 61.7325 217.492 61.7325C217.024 62.1585 216.536 62.5584 216.048 62.8248C215.188 60.7038 214.154 57.6314 213.603 55.8785C213.071 56.3135 212.536 56.5945 212.536 56.5945V65.7619C218.11 63.0691 223.247 58.3107 227.594 51.4223C231.556 45.0389 234.69 38.1473 235.62 29.9116C236.363 23.3474 234.9 17.162 231.394 12.9827C229.267 10.2744 226.632 9.33193 223.874 8.85062ZM222.017 13.223C219.578 9.5568 215.836 9.24968 212.535 10.4038C212.536 10.4023 212.535 10.8494 212.535 10.8494C213.224 10.6319 214.118 10.4218 214.938 10.4259C214.403 10.9064 213.888 11.4888 213.423 12.0573C213.622 12.1209 213.831 12.2211 214.024 12.3417C214.769 11.5507 215.489 10.8657 216.09 10.3786C216.869 10.3884 217.876 10.6034 218.532 10.9944C217.447 11.5743 216.132 12.4703 215.285 13.3183C215.441 13.442 215.606 13.6465 215.727 13.8338C216.77 13.007 218.266 12.0516 219.494 11.4685C220.076 11.8146 220.703 12.4288 221.058 12.946C219.488 13.4991 217.984 14.1099 216.472 15.0254C216.617 15.2812 216.777 15.6681 216.852 15.9084C217.946 15.3301 220.09 14.4016 221.772 13.9242C222.081 14.4138 222.449 15.1933 222.638 15.9222C220.779 16.2097 218.66 16.6904 217.229 17.2963C217.318 17.6539 217.375 18.0033 217.413 18.3373C219.174 17.8347 221.113 17.4593 223.009 17.3468C223.178 18.1565 223.273 19.0239 223.277 19.9126C221.387 19.735 219.222 19.858 217.501 20.1137C217.501 20.4469 217.469 21.1132 217.44 21.5253C219.185 21.4463 221.136 21.4748 223.22 21.8234C223.145 22.664 223.009 23.7506 222.828 24.6873C220.88 24.0267 219.106 23.705 217.144 23.5127C217.074 24.0764 216.91 24.7663 216.728 25.3552C218.562 25.8504 220.393 26.6063 222.162 27.5512C221.918 28.4007 221.634 29.2307 221.325 30.042C220.001 29.1159 217.652 27.8102 216.111 27.1692C215.856 27.9331 215.43 28.9741 215.005 29.7463C216.113 30.5486 218.236 32.3299 219.692 33.7293C219.344 34.4224 218.952 35.1408 218.542 35.777C217.132 34.1439 215.734 32.6093 214.202 31.1611C213.713 31.996 213.106 32.8985 212.534 33.612V33.8759L216.052 39.444C215.662 39.9726 215.264 40.4605 214.847 40.9101L212.534 36.5142V44.2716C216.106 41.1553 219.721 36.0401 221.754 30.6203C223.413 26.2813 224.668 20.4078 223.062 15.4189C222.779 14.6475 222.477 13.8981 222.017 13.223ZM232.528 13.2783L233.567 13.4672C234.603 14.2671 235.557 15.3953 236.415 16.7457C236.731 17.2589 237.072 17.7777 237.291 18.3382C236.434 17.9773 235.605 17.5391 234.719 17.254C235.019 17.9537 235.232 18.6362 235.452 19.4353C236.441 19.858 237.421 20.3655 238.381 20.8729C238.996 22.6095 239.445 24.4731 239.661 26.4467C238.553 25.6224 237.443 24.8201 236.303 24.1546C236.391 25.1222 236.415 26.1152 236.391 27.0755C237.643 27.9242 239.046 29.0678 239.914 29.8962C239.946 31.2588 239.855 33.6812 239.586 35.2247C238.586 34.1423 237.147 32.7535 235.979 31.8583C235.82 33.1966 235.391 35.2809 234.946 36.7512C236.164 37.9803 237.383 39.2387 238.536 40.7162C238.183 42.1653 237.73 43.5573 237.24 44.9119C236.084 43.4351 234.908 42.0219 233.684 40.6576C232.99 42.698 232.223 44.5372 231.174 46.4504C232.35 48.0624 233.471 49.6393 234.594 51.3669C234.044 52.5512 233.429 53.7274 232.71 54.8319C231.64 53.1271 230.54 51.3775 229.423 49.7436C228.259 51.7383 226.944 53.8316 225.574 55.547C226.205 56.5269 227.571 58.8964 228.564 61.0247C227.881 61.8946 227.244 62.7132 226.562 63.4576L223.673 57.9132C221.889 59.9821 219.993 61.6869 218.098 63.2256L219.614 66.9862H224.314C231.496 59.6954 237.983 48.8688 239.982 36.7829C241.189 29.3928 240.043 21.817 236.618 16.314C234.787 13.3817 232.757 12.4011 231.325 11.7429C231.691 12.1054 232.113 12.6519 232.528 13.2783ZM212.536 12.6625V13.9536L213.022 13.4526C213.427 13.5911 213.889 13.8957 214.199 14.1939C213.638 14.6834 213.061 15.1655 212.542 15.6933V16.503C213.235 15.875 214.049 15.1403 214.694 14.6541C214.954 14.9016 215.188 15.269 215.369 15.6355C214.439 16.1878 213.14 17.1285 212.535 17.6042V18.4392C213.568 17.6898 214.711 16.9396 215.798 16.4379C215.938 16.806 216.079 17.2678 216.129 17.6939C214.974 18.0262 213.636 18.751 212.542 19.3815V20.1439C213.7 19.5444 215.255 18.9376 216.274 18.6941C216.35 19.1819 216.359 19.8124 216.361 20.2571C214.826 20.4762 213.792 20.7426 212.545 21.1165V21.9871C213.657 21.7665 215.5 21.5652 216.299 21.6093C216.223 22.2063 216.135 22.8253 215.981 23.3678C215.063 23.2423 213.576 23.1414 212.541 23.1829C212.534 23.1829 212.534 24.3452 212.534 24.3501C213.546 24.4331 214.657 24.8021 215.546 25.0522C215.426 25.514 215.2 26.1559 215.005 26.6202C214.312 26.2715 213.291 25.7934 212.534 25.6142V27.9055C213.021 28.2313 213.727 28.7518 213.967 28.9831C213.805 29.3358 213.485 29.9108 213.27 30.2C212.947 29.8799 212.534 29.5231 212.534 29.5231V32.4521C213.347 31.2637 214.146 30.0183 214.782 28.7053C216.354 25.334 217.594 20.9617 216.464 16.7457C215.782 14.4333 214.123 12.9818 212.536 12.6625ZM238.867 19.116C239.196 19.9443 239.509 20.7939 239.768 21.6614L241.021 22.5199C241.911 24.6751 242.619 26.9419 243.007 29.4115C242.316 28.7632 241.613 28.0896 240.907 27.5202C241.019 28.6402 241.044 29.6502 241.063 30.828C241.855 31.6531 242.683 32.523 243.45 33.5363C243.523 35.6067 243.422 37.648 243.212 39.5637C242.37 38.3468 241.494 37.2741 240.632 36.3789C240.422 38.1497 239.991 40.1534 239.49 41.9299C240.372 42.9741 241.336 44.3343 242.18 45.7084C241.812 47.2967 241.374 48.7694 240.846 50.2013C239.994 48.8362 239.062 47.4182 238.133 46.2037C237.562 47.8555 236.403 50.5255 235.387 52.5798C236.316 53.9954 237.175 55.477 238.026 56.9626C237.424 58.2186 236.733 59.416 236.023 60.5791C235.161 59.1024 234.354 57.5857 233.453 56.1457C232.091 58.5062 230.95 60.3397 229.321 62.3736C230.283 64.1093 231.74 66.9902 231.74 66.9902H232.562C234.085 64.9792 235.553 62.7148 236.887 60.4252C240.174 54.4458 242.774 48.0592 243.681 40.6388C244.665 32.857 243.293 25.2811 239.828 19.6519L238.867 19.116ZM242.155 23.0127L242.139 23.0697C243.641 25.8154 244.837 28.7615 245.453 32.04L245.442 32.075L244.283 30.7709C244.432 32.1027 244.549 33.34 244.581 34.7279C245.127 35.3412 245.724 36.1436 246.19 36.9841C246.27 39.2444 246.269 41.6546 246.009 43.8758C245.489 42.847 245.026 42.0993 244.213 40.8946C244.034 42.5383 243.618 45.1293 243.118 46.857C243.833 48.0029 244.557 49.4528 245.017 50.5109C244.749 51.8736 244.233 53.7029 243.681 55.231C243.027 53.9758 242.563 52.9601 241.71 51.4663C240.863 53.791 239.868 56.1539 238.768 58.3237C239.514 59.631 240.201 60.9945 240.85 62.3736C240.237 63.6572 239.573 64.9246 238.853 66.1228C238.175 64.734 237.451 63.355 236.745 61.9834C235.759 63.6915 234.767 65.4263 233.567 66.9894H239.1C242.662 60.8447 245.246 54.0435 246.302 46.3527C247.389 38.6058 246.529 30.4053 243.171 24.5643C242.857 24.0471 242.531 23.3946 242.155 23.0127ZM246.876 33.7847C247.093 35.2639 247.185 36.488 247.31 38.4356C247.72 39.0978 248.212 40.2243 248.212 40.2243C248.264 42.4886 248.177 44.7709 247.859 47.1126L247.019 45.5741C246.767 47.7269 246.409 49.7289 245.882 51.9224L246.811 54.3212C246.536 55.7612 246.008 57.7487 245.492 59.3321C245.143 58.4939 244.819 57.5695 244.461 56.8372C243.625 59.2547 242.623 61.6071 241.538 63.8747L242.837 66.9886H243.138C246.271 60.0798 248.37 52.4567 248.585 43.7903C248.692 40.1624 247.927 37.0004 247.006 33.9744L246.876 33.7847ZM249.363 46.2127C249.256 47.3774 249.203 48.5551 249.061 49.6589L248.813 49.1571C248.546 51.5323 248.159 53.7388 247.606 55.938L247.992 57.528C247.678 59.1228 247.278 60.8316 246.763 62.6236C246.644 62.0778 246.413 61.4295 246.206 60.9269C245.512 62.9812 244.69 65.1681 243.865 66.9886H245.939C247.072 63.7468 247.951 60.2973 248.606 56.7411C249.15 53.4122 249.647 49.8576 249.372 46.2118L249.363 46.2127ZM249.49 54.7016C249.055 58.0997 248.268 62.288 247.61 65.2781C247.53 65.0452 247.454 64.8179 247.389 64.5703C247.08 65.4996 246.609 66.9886 246.609 66.9886H247.672C248.589 63.777 249.234 59.1375 249.49 54.7016ZM216.486 64.3658C215.188 65.2455 213.896 65.9777 212.535 66.622V66.9829H217.47L216.486 64.3658ZM227.292 64.8578C226.778 65.4044 226.126 66.2653 225.343 67H228.235C228.236 67 227.61 65.6015 227.292 64.8578Z" fill="#005DAA"/>
<path d="M175.826 25.9156H180.869C186.395 25.9262 188.64 29.3684 188.64 35.6133C188.64 42.0236 186.333 45.2849 180.869 45.2979H175.826V25.9156ZM169.112 18.0221V53.1882H181.019C190.824 53.1768 195.636 46.5873 195.636 35.566C195.636 25.1377 191.302 18.0383 181.019 18.0212L169.112 18.0221Z" fill="#005DAA"/>
<path d="M156.108 18.0221V25.7274H140.715V31.9618H153.752V39.1084H140.715V45.5333H156.207V53.1882H134.019V18.0221H156.108Z" fill="#005DAA"/>
<path d="M122.31 18.0229V25.9864H113.627V53.1857H106.898V25.9864H98.2287V18.0229H122.31Z" fill="#005DAA"/>
<path d="M79.4764 18.0229H86.3235V53.1882H79.4764V26.0858V18.0229Z" fill="#005DAA"/>
<path d="M44.9874 31.1766L59.5304 53.1882H64.5586V18.0221H58.2894V39.1084L44.5393 18.0221H38.715V53.1882H44.9874V31.1766Z" fill="#005DAA"/>
<path d="M25.8273 37.6765C25.8284 48.433 21.3239 53.8333 12.9613 53.8333C4.57684 53.8333 0 48.4591 0 37.7392V18.0229H6.71791V37.7644C6.72389 43.128 8.76417 45.8062 12.9838 45.7858C17.1558 45.7647 19.1286 43.1501 19.1319 37.8247V18.0229H25.8273V37.6765Z" fill="#005DAA"/>
</g>
</g>
<defs>
<clipPath id="clip0_2_4924">
<rect width="258" height="67" fill="white"/>
</clipPath>
</defs>
</svg>
