<svg width="177" height="67" viewBox="0 0 177 67" fill="none" xmlns="http://www.w3.org/2000/svg">
<g clip-path="url(#clip0_2_4936)">
<path d="M85.073 1.7336L65.4147 31.3644C63.4658 34.3542 62.0536 37.5032 61.8747 40.3591H54.2392C54.7664 36.582 56.3575 33.098 59.7187 27.9055L73.728 7.07685C76.5619 2.98985 79.2075 1.5661 84.1974 1.5661C84.0185 1.7336 85.073 1.7336 85.073 1.7336ZM83.4819 32.7797C82.0696 34.036 79.0569 35.7696 76.9385 35.7696C75.1685 35.7696 75.1685 34.3542 76.2324 32.4615C80.4785 25.3511 84.9317 21.5823 90.2323 21.5823H91.1173L83.4819 32.7797ZM90.9102 17.6461C80.7986 17.6461 74.7825 22.8386 69.1241 34.1951C67.7119 37.185 67.0058 40.6439 71.6003 40.4847C74.2553 40.4847 78.6708 39.0694 81.7119 37.1766C81.533 38.2821 81.3541 39.6975 81.3541 40.3256H88.4247C88.7824 37.8047 89.6674 34.974 91.9647 31.1717L100.664 18.09C97.8396 17.9643 94.2713 17.6461 90.9102 17.6461ZM155.977 32.7797C154.564 34.036 151.552 35.7696 149.433 35.7696C147.663 35.7696 147.663 34.3542 148.727 32.4615C152.973 25.3511 157.426 21.5823 162.727 21.5823H163.612L155.977 32.7797ZM163.405 17.6461C153.293 17.6461 147.277 22.8386 141.619 34.1951C140.207 37.185 139.5 40.6439 144.095 40.4847C146.75 40.4847 151.166 39.0694 154.207 37.1766C153.849 38.123 153.679 39.3792 153.849 40.1665H160.919C161.277 37.6456 162.162 34.8148 164.459 31.0126L173.159 17.9308C170.334 17.9643 166.766 17.6461 163.405 17.6461Z" fill="#01426A"/>
<path d="M140.376 46.6739H138.079C135.075 46.6739 132.599 44.9403 131.714 42.2686L128.353 30.6022L121.989 40.3843H114.532L135.254 8.86075C138.088 4.77375 140.734 3.35 145.724 3.35H146.609L132.609 24.3294L143.078 17.8806H151.42L133.88 28.7597L140.376 46.6739ZM71.2519 0C64.1813 0 60.4342 1.73362 53.5331 6.13887L29.9488 21.1134H15.0638C10.6388 21.1134 7.24947 21.2725 4.425 23.6342L0.536649 26.7832C0.536649 26.7832 11.8816 26.3142 22.5016 26.1551L0 40.5182H9.75383L32.8109 25.7029C37.4054 25.5437 40.2675 25.3846 40.2675 25.3846C45.5775 25.2255 48.6091 21.1385 48.6091 21.1385H39.9192L58.3441 9.15388L44.5136 29.0277C41.5103 33.5921 40.0886 36.7663 39.5614 40.3843H47.5546C47.9124 37.3944 48.9669 34.4045 51.0946 31.3895L69.8679 3.484C71.2802 1.4405 72.5229 0.025125 72.5229 0.025125H71.2519V0ZM108.808 23.9692C108.629 24.5974 108.987 24.9156 110.399 25.7029L112.517 26.9591C114.815 28.3745 115.879 30.418 115.521 31.9925C114.636 36.716 110.747 40.669 102.575 40.669C99.0353 40.669 97.4442 40.5099 92.9909 40.0409L96.352 35.3174C99.3554 35.7864 100.946 35.9455 103.253 35.9455C106.435 35.9455 107.678 34.6893 107.848 33.7429C108.026 33.1147 107.669 32.4866 106.078 31.5402L104.308 30.4347C101.474 28.7011 100.946 27.2857 101.125 25.2422C101.831 21.1552 107.141 17.9811 114.777 17.9811C117.074 17.9811 119.729 18.1402 122.412 18.4501L119.409 23.0145C117.46 22.8554 114.636 22.6963 112.508 22.8554C110.041 22.5539 108.808 23.0229 108.808 23.9692ZM172.81 33.5921C174.929 33.5921 176.878 35.3257 176.878 37.2101C176.878 39.0945 175.108 40.8281 172.81 40.8281C170.692 40.8281 168.922 39.0945 168.922 37.2101C169.063 35.3257 170.683 33.5921 172.81 33.5921ZM172.81 40.2C174.58 40.2 175.993 38.9437 175.993 37.2101C175.993 35.4765 174.402 34.3794 172.81 34.3794C171.04 34.3794 169.628 35.6356 169.628 37.3692C169.619 39.0945 171.219 40.2 172.81 40.2ZM172.274 39.2536H171.568V35.3174H173.159C173.865 35.3174 174.75 35.9455 174.75 36.5736C174.75 37.2017 174.223 37.52 173.865 37.6791L174.75 39.2536H173.865L172.98 37.8382H172.622L172.274 39.2536ZM172.98 37.051C173.507 37.051 173.686 36.7327 173.686 36.4229C173.686 35.9539 173.328 35.7948 172.98 35.7948H172.274V36.9002H172.98V37.051Z" fill="#01426A"/>
<path d="M116.622 62.4356C116.622 59.9148 116.622 57.2431 116.622 54.6971C117.507 54.6971 118.392 54.6971 119.277 54.6971C119.277 58.6334 119.277 62.5864 119.277 66.6818C118.392 66.6818 117.507 66.6818 116.622 66.6818C116.443 66.6818 116.265 66.5226 116.265 66.3635C114.495 63.8426 112.725 61.3301 110.955 58.9433C110.776 58.7841 110.597 58.625 110.427 58.3151C110.427 61.1459 110.427 63.9766 110.427 66.6818C109.542 66.6818 108.657 66.6818 107.772 66.6818C107.772 62.7455 107.772 58.7925 107.772 54.6971C108.836 54.6971 109.891 54.6971 110.776 54.6971C110.955 54.6971 111.133 54.8563 111.133 55.0154C112.725 57.3771 114.495 59.7389 116.086 61.9666C116.265 62.1258 116.265 62.2765 116.622 62.4356C116.443 62.4356 116.443 62.4356 116.622 62.4356Z" fill="#01426A"/>
<path d="M54.418 54.7055C55.8303 54.7055 57.073 54.7055 58.4853 54.7055C59.1914 54.7055 59.8975 54.7055 60.6036 54.7055C62.5525 55.0238 63.7859 56.1209 63.9647 57.8545C64.1436 59.5881 63.2586 60.8444 61.3097 61.6316C61.3097 61.6316 61.1309 61.6316 60.952 61.7908C61.837 63.3653 62.9009 64.9398 63.7859 66.665C62.722 66.665 61.837 66.665 60.952 66.665C60.7731 66.665 60.7731 66.5059 60.5942 66.3468C59.8881 65.0905 59.182 63.8259 58.4759 62.5696C58.297 62.1006 57.9486 61.9415 57.412 61.9415C57.2331 61.9415 57.0542 61.9415 56.8847 61.9415C56.8847 63.516 56.8847 64.9314 56.8847 66.5059C55.9997 66.5059 55.1147 66.5059 54.2297 66.5059C54.418 62.7539 54.418 58.6334 54.418 54.7055ZM56.8942 60.0739C57.7792 60.0739 58.4853 60.0739 59.3703 60.0739C60.4342 60.0739 61.1403 59.4458 61.1403 58.4994C61.1403 57.553 60.613 56.9249 59.5492 56.7658C58.843 56.6066 57.958 56.7658 57.2519 56.7658C57.073 56.7658 56.8942 56.9249 56.8942 57.084C56.8942 58.0053 56.8942 58.9516 56.8942 60.0739Z" fill="#01426A"/>
<path d="M17.5399 66.6818C18.246 65.1073 18.7827 63.6919 19.4888 62.2765C20.5527 59.9148 21.6072 57.4023 22.671 55.0154C22.8499 54.6971 23.0288 54.5464 23.3772 54.6971C24.0833 54.6971 24.7894 54.6971 25.6744 54.6971C25.8533 54.6971 26.0322 54.8563 26.2016 55.0154C27.7927 58.9516 29.5627 62.7539 31.1539 66.6818C31.1539 66.6818 31.1539 66.6818 31.1539 66.8409C30.2689 66.8409 29.3839 66.8409 28.4989 66.8409C28.32 66.8409 28.1411 66.6818 28.1411 66.5226C27.7833 65.8945 27.6139 65.1073 27.2561 64.4791C27.0772 64.1609 27.0772 64.1609 26.7289 64.1609C25.1377 64.1609 23.5466 64.1609 22.1344 64.1609C21.7766 64.1609 21.7766 64.32 21.6072 64.4791C21.2494 65.2664 21.0799 65.8945 20.7222 66.6818C20.7222 66.8409 20.3644 67 20.3644 67C19.131 66.6818 18.4249 66.6818 17.5399 66.6818ZM26.0604 61.8075C25.3543 60.233 24.8176 58.8176 24.1115 57.2431C23.4054 58.8176 22.8687 60.233 22.3415 61.8075C23.5843 61.8075 24.8176 61.8075 26.0604 61.8075Z" fill="#01426A"/>
<path d="M149.047 63.2229C149.753 63.0637 150.638 62.9046 151.344 62.5947V62.7539C151.702 64.4875 153.463 65.2747 155.233 64.7974C155.939 64.6382 156.475 64.1692 156.475 63.5411C156.475 62.913 156.118 62.4356 155.233 62.1257C154.348 61.9666 153.642 61.8075 152.757 61.6567C150.808 61.3385 149.574 60.2414 149.395 58.6669C149.217 57.5614 149.574 56.4642 150.638 55.677C152.587 53.9434 156.118 54.1025 157.888 55.677C158.415 56.146 158.773 56.7825 158.952 57.5614C158.245 57.7205 157.36 58.0304 156.654 58.1895C156.654 58.0304 156.475 58.0304 156.475 57.8712C155.948 56.2967 153.82 56.2967 152.935 56.7657C152.408 57.084 152.05 57.553 152.05 58.1811C152.05 58.8092 152.578 59.1275 153.293 59.2866C154.178 59.4457 155.063 59.6049 155.769 59.7556C157.36 60.0739 158.603 60.8611 159.13 62.4272C159.488 64.0017 158.603 65.7354 156.833 66.3635C154.884 67.1507 152.945 66.9916 151.175 66.0452C149.932 65.5846 149.226 64.4791 149.047 63.2229Z" fill="#01426A"/>
<path d="M130.622 54.7055C133.456 54.7055 136.102 54.7055 138.964 54.7055C138.964 55.3336 138.964 56.1209 138.964 56.9081C137.015 56.9081 135.075 56.9081 133.127 56.9081C133.127 57.8545 133.127 58.7925 133.127 59.7389C133.305 59.7389 133.484 59.7389 133.833 59.7389C135.245 59.7389 136.488 59.7389 137.9 59.7389C138.427 59.7389 138.427 59.898 138.427 60.2079C138.427 60.6769 138.427 61.1543 138.427 61.7824C136.657 61.7824 134.887 61.7824 133.117 61.7824C133.117 62.7288 133.117 63.6668 133.117 64.6131C135.066 64.6131 137.006 64.6131 138.954 64.6131C138.954 65.4004 138.954 66.0285 138.954 66.8158C136.121 66.8158 133.475 66.8158 130.613 66.8158C130.622 62.7539 130.622 58.6334 130.622 54.7055Z" fill="#01426A"/>
<path d="M77.0891 64.4791C79.2075 64.4791 81.1564 64.4791 83.1052 64.4791C83.1052 65.2664 83.1052 65.8945 83.1052 66.6818C80.2714 66.6818 77.4469 66.6818 74.4059 66.6818C74.4059 62.7455 74.4059 58.6334 74.4059 54.6971C75.2909 54.6971 75.997 54.6971 76.882 54.6971C77.0891 57.8461 77.0891 61.1794 77.0891 64.4791Z" fill="#01426A"/>
<path d="M40.2393 66.6818C40.2393 62.7455 40.2393 58.6334 40.2393 54.6971C41.1243 54.6971 42.0093 54.6971 42.8943 54.6971C42.8943 58.6334 42.8943 62.5864 42.8943 66.6818C42.0093 66.6818 41.1243 66.6818 40.2393 66.6818Z" fill="#01426A"/>
<path d="M96.2485 66.6818C95.3635 66.6818 94.6573 66.6818 93.7723 66.6818C93.7723 62.7455 93.7723 58.6334 93.7723 54.6971C94.6573 54.6971 95.3635 54.6971 96.2485 54.6971C96.2485 58.6334 96.2485 62.7539 96.2485 66.6818Z" fill="#01426A"/>
</g>
<defs>
<clipPath id="clip0_2_4936">
<rect width="177" height="67" fill="white"/>
</clipPath>
</defs>
</svg>
