<svg width="182" height="67" viewBox="0 0 182 67" fill="none" xmlns="http://www.w3.org/2000/svg">
<g clip-path="url(#clip0_2_4950)">
<path d="M69.6239 52.6955H66.314L58.9984 66.6566H62.0852L63.6643 63.449H72.229L73.7814 66.6566H76.8504L69.6239 52.6955ZM64.8598 61.104L67.9645 54.8814L71.0692 61.104H64.8598Z" fill="#003876"/>
<path d="M83.6932 52.6955H80.7937V66.6566H83.6932V52.6955Z" fill="#003876"/>
<path d="M100.073 60.97C102.259 60.8527 104.222 59.4374 104.222 56.8662C104.222 53.4492 101.688 52.6955 98.1729 52.6955H89.2335V66.6566H92.142V61.171H96.7455L101.064 66.6566H104.641L100.073 60.97ZM92.142 58.9014V54.9651H97.7447C100.118 54.9651 101.322 55.2917 101.322 56.9249C101.322 58.5747 100.118 58.9014 97.7447 58.9014H92.142Z" fill="#003876"/>
<path d="M107.889 52.6955H110.788L113.661 62.2932H113.696L116.542 52.6955H119.326L122.208 62.2765H122.243L125.089 52.6955H127.935L123.599 66.6566H120.816L117.988 56.749H117.952L115.106 66.6566H112.269L107.889 52.6955Z" fill="#003876"/>
<path d="M140.202 52.6955H136.893L129.577 66.6566H132.664L134.234 63.449H142.799L144.351 66.6566H147.42L140.202 52.6955ZM135.438 61.104L138.552 54.8814L141.657 61.104H135.438Z" fill="#003876"/>
<path d="M154.423 61.0621L147.161 52.6955H150.721L155.869 58.6082L161.008 52.6955H164.585L157.323 61.0621V66.6566H154.423V61.0621Z" fill="#003876"/>
<path d="M178.592 56.9416C178.119 55.6938 176.915 54.6218 173.382 54.6218C171.419 54.6218 169.438 55.0824 169.438 56.3638C169.438 56.9584 169.804 57.5949 172.775 57.9383L176.29 58.4408C179.627 58.9181 181.59 60.1325 181.59 62.4691C181.59 65.7689 178.235 67 174.265 67C167.886 67 166.334 64.0436 165.977 62.9884L168.778 62.1593C169.314 63.1726 170.411 64.655 174.345 64.655C176.718 64.655 178.681 63.9264 178.681 62.712C178.681 61.8075 177.575 61.2129 175.452 60.9616L171.892 60.501C168.457 60.0571 166.53 58.6585 166.53 56.5229C166.53 52.3354 172.32 52.3354 173.462 52.3354C179.868 52.3354 180.965 55.1159 181.331 56.079L178.592 56.9416Z" fill="#003876"/>
<path d="M5.10314 11.4319H11.1609V41.9001C11.1609 46.6404 7.47627 49.8145 2.36422 49.8145H0V44.4713H1.72186C3.80059 44.4713 5.11206 43.5751 5.11206 41.4563V11.4319H5.10314Z" fill="#003876"/>
<path d="M11.1609 0H5.10315V5.68663H11.1609V0Z" fill="#003876"/>
<path d="M39.8973 23.0312C39.8973 15.7282 34.1339 11.0969 27.4874 11.0969C21.6616 11.0969 15.0685 14.6646 15.0685 25.6526C15.0685 37.252 22.2504 40.0409 28.4331 40.0409C32.4656 40.0409 36.3286 38.7009 39.2995 35.4681L34.9101 31.959C33.1258 33.6842 30.6367 34.6892 28.3171 34.6892C24.1596 34.6892 21.1263 32.3442 21.1263 27.7212H39.8973V23.0312ZM21.1352 23.0312C21.2512 18.7349 23.9277 16.4569 27.4963 16.4569C31.0649 16.4569 33.67 18.7432 33.8484 23.0312H21.1352Z" fill="#003876"/>
<path d="M44.706 2.84747H50.7637V11.4318H55.1531V15.7785H50.7637V32.227C50.7637 33.7931 51.415 34.3458 52.896 34.3458H55.1531V39.6975H52.0038C47.7839 39.6975 44.697 37.185 44.697 32.7295V15.7785H41.6637V11.4318H44.697C44.7059 11.4318 44.706 2.84747 44.706 2.84747Z" fill="#003876"/>
<path d="M81.7037 19.2876V19.1788C86.6374 17.1185 87.9399 13.936 87.9399 10.6446C87.9399 4.40525 83.6665 0 75.4051 0H59.0162V39.6975H76.8325C83.1936 39.6975 88.5912 35.2923 88.5912 28.4331C88.5912 24.4215 86.334 20.301 81.7037 19.2876ZM65.4308 5.35162H74.6914C79.3217 5.35162 81.5253 7.973 81.5253 11.0383C81.5253 14.1621 79.3306 16.7249 74.6914 16.7249H65.4308V5.35162ZM75.2891 34.0109H65.4308V22.0849H75.2891C80.0354 22.0849 82.1766 24.924 82.1766 28.0479C82.1766 31.1718 80.0443 34.0109 75.2891 34.0109Z" fill="#003876"/>
<path d="M92.0795 0H98.1373V32.3945C98.1373 33.6759 98.9135 34.3459 100.403 34.3459H102.482V39.6975H99.8056C95.4073 39.6975 92.0795 37.9136 92.0795 32.8384V0Z" fill="#003876"/>
<path d="M105.025 11.4319H111.082V28.2656C111.082 32.1181 113.634 34.3459 117.087 34.3459C120.468 34.3459 123.02 32.1181 123.02 28.2656V11.4319H129.077V39.6975H123.02V36.6825H122.904C121.003 38.9103 118.264 40.0325 115.115 40.0325C110.369 40.0325 105.016 36.6323 105.016 30.217V11.4319H105.025Z" fill="#003876"/>
<path d="M157.162 23.0312C157.162 15.7282 151.399 11.0969 144.744 11.0969C138.927 11.0969 132.325 14.6646 132.325 25.6526C132.325 37.252 139.515 40.0409 145.689 40.0409C149.731 40.0409 153.594 38.7009 156.565 35.4681L152.166 31.959C150.382 33.6842 147.893 34.6892 145.573 34.6892C141.416 34.6892 138.382 32.3442 138.382 27.7212H157.153V23.0312H157.162ZM138.391 23.0312C138.516 18.7349 141.184 16.4569 144.744 16.4569C148.303 16.4569 150.917 18.7432 151.105 23.0312H138.391Z" fill="#003876"/>
</g>
<defs>
<clipPath id="clip0_2_4950">
<rect width="182" height="67" fill="white"/>
</clipPath>
</defs>
</svg>
