<svg width="208" height="67" viewBox="0 0 208 67" fill="none" xmlns="http://www.w3.org/2000/svg">
<g clip-path="url(#clip0_2_4967)">
<path d="M192.743 13.7601H201.422L199.565 23.8939H190.885L188.016 39.6137C187.356 43.1731 188.016 43.6672 191.545 43.6672C193.159 43.6672 194.479 43.6003 196.215 43.5249L194.479 53.0305C191.725 53.4492 188.253 53.7256 184.365 53.7256C175.808 53.7256 172.759 51.2801 174.316 42.8298L177.788 23.8269H170.909L172.702 13.7685H179.581L181.855 1.33162H194.96L192.743 13.7601ZM147.805 52.8881H160.91L168.033 13.7601H154.928L147.805 52.8881ZM155.767 9.28788H168.872L170.55 0.067H157.445L155.767 9.28788ZM120.218 13.7601L113.095 52.8881H125.842L132.964 13.7601H120.218ZM150.559 12.0851C149.72 12.0181 148.881 11.9427 148.106 11.9427C142.239 11.9427 132.907 18.6511 130.454 30.6692L129.794 33.3911H130.03C131.888 28.2237 136.551 25.4265 142.834 25.4265C144.513 25.4265 146.485 25.7029 147.977 26.1216L150.559 12.0851ZM101.669 13.7601L94.5461 52.8881H107.651L114.774 13.7601H101.669ZM117.291 0H104.186L102.508 9.22087H115.613L117.291 0ZM93.7714 33.9523C91.7343 45.2669 82.883 54.4207 70.5527 54.4207C64.7498 54.4207 60.6828 52.1846 59.0043 49.3204H58.8896L55.6546 67H42.5497L52.2403 13.6931H64.9865L64.0325 18.8605H64.1545C67.6836 14.8824 72.7118 12.6462 78.0341 12.6462C89.8837 12.7133 96.2246 20.4015 93.7714 33.9523ZM72.9485 23.4081C66.7869 23.4081 62.8992 27.3193 61.8161 33.3995C60.6828 39.4714 63.1933 43.3155 69.362 43.3155C75.3442 43.3155 79.2965 39.8231 80.4298 33.3911C81.5631 26.9005 78.9307 23.4081 72.9485 23.4081ZM32.5004 28.8519L21.4326 27.3862C18.2048 26.9675 17.4804 25.8452 17.7243 24.6644C18.2048 22.0095 20.5934 20.9626 24.4237 20.9626C26.1022 20.9626 27.7735 21.172 28.9714 21.8671C30.1692 22.4282 30.8865 23.5421 30.7072 25.1501H45.426C46.7458 14.0449 35.7928 12.1521 26.8769 12.1521C14.3099 12.1521 5.93199 15.5021 4.01683 26.1216C2.81895 32.7546 6.11132 35.9706 13.5927 37.0175L25.0191 38.6925C28.1895 39.1112 29.3874 39.7394 28.9714 41.7661C28.4334 44.5634 25.263 45.2585 22.3293 45.2585C19.4601 45.2585 17.7816 44.8397 16.7631 44.0692C15.7445 43.2987 15.4433 42.1849 15.5078 40.7192H0.186494C-1.67129 52.595 10.537 54.4794 19.8116 54.4794C33.7557 54.4794 42.0691 50.1495 43.7476 40.9286C45.1893 33.2571 41.2944 29.9741 32.5004 28.8519ZM206.027 17.1855L206.623 18.4417H205.905L205.489 17.3949H205.009V18.4417H204.292V15.2257H205.425C205.726 15.2257 205.963 15.2927 206.2 15.5021C206.436 15.6445 206.501 15.9209 206.501 16.3396C206.501 16.549 206.443 16.6914 206.379 16.8254C206.329 16.9761 206.207 17.1185 206.027 17.1855ZM205.784 16.348C205.784 16.2056 205.726 16.0716 205.662 15.9963C205.604 15.9292 205.425 15.8539 205.303 15.8539H205.002V16.8337H205.303C205.482 16.8337 205.604 16.7668 205.662 16.6914C205.726 16.6244 205.784 16.4904 205.784 16.348ZM208 16.9091C208 17.3949 207.943 17.8136 207.763 18.1654C207.641 18.5171 207.462 18.8605 207.225 19.2122C206.989 19.4886 206.687 19.698 206.386 19.8404C206.085 19.9827 205.726 20.0497 205.368 20.0497C205.009 20.0497 204.65 19.9827 204.349 19.8404C204.048 19.698 203.754 19.4886 203.51 19.2122C203.273 18.9359 203.094 18.5841 202.972 18.1654C202.85 17.8136 202.735 17.3279 202.735 16.9091C202.735 16.4234 202.792 16.0046 202.972 15.5859C203.094 15.1671 203.273 14.8154 203.51 14.539C203.746 14.2626 204.048 14.0533 204.349 13.9109C204.65 13.7685 205.009 13.7015 205.368 13.7015C205.726 13.7015 206.085 13.7685 206.386 13.9109C206.687 14.0533 206.981 14.2626 207.225 14.539C207.469 14.8154 207.641 15.1671 207.763 15.5859C207.943 15.9963 208 16.415 208 16.9091ZM207.34 16.9091C207.34 16.5574 207.283 16.214 207.161 15.8623C207.039 15.5105 206.924 15.3011 206.745 15.0247C206.565 14.8154 206.386 14.606 206.085 14.539C205.848 14.3966 205.547 14.3296 205.31 14.3296C205.009 14.3296 204.772 14.3966 204.471 14.539C204.234 14.6814 203.99 14.8154 203.811 15.0247C203.632 15.2341 203.51 15.5105 203.395 15.8623C203.28 16.214 203.216 16.4904 203.216 16.9091C203.216 17.2609 203.273 17.6042 203.395 17.956C203.517 18.2324 203.632 18.5171 203.811 18.7265C203.99 18.9359 204.17 19.0782 204.471 19.2122C204.708 19.3546 205.009 19.4216 205.31 19.4216C205.611 19.4216 205.848 19.3546 206.085 19.2122C206.322 19.0699 206.565 18.9359 206.745 18.7265C206.924 18.5171 207.046 18.2407 207.161 17.956C207.283 17.6042 207.34 17.2525 207.34 16.9091Z" fill="black"/>
</g>
<defs>
<clipPath id="clip0_2_4967">
<rect width="208" height="67" fill="white"/>
</clipPath>
</defs>
</svg>
