<svg width="293" height="149" viewBox="0 0 293 149" fill="none" xmlns="http://www.w3.org/2000/svg">
<g clip-path="url(#clip0_2_5156)">
<path d="M285 0.5H8C3.85786 0.5 0.5 3.85786 0.5 8V70C0.5 74.1421 3.85786 77.5 8 77.5H285C289.142 77.5 292.5 74.1421 292.5 70V8C292.5 3.85786 289.142 0.5 285 0.5Z" fill="white" stroke="#E2E2E8"/>
<path d="M276 12H17C14.7909 12 13 13.7909 13 16V62C13 64.2091 14.7909 66 17 66H276C278.209 66 280 64.2091 280 62V16C280 13.7909 278.209 12 276 12Z" fill="#FFF3DC"/>
<path d="M285 90.5H8C3.85786 90.5 0.5 93.8579 0.5 98V141C0.5 145.142 3.85786 148.5 8 148.5H285C289.142 148.5 292.5 145.142 292.5 141V98C292.5 93.8579 289.142 90.5 285 90.5Z" fill="white" stroke="#E2E2E8"/>
<path d="M25.1609 125.831L28.31 131.172C29.2862 132.773 30.8945 133.5 32.8982 133.5H41L31.5152 121.767L30.1696 120.985L26.6187 122.168L24.8193 124.826L25.1609 125.831Z" fill="url(#paint0_linear_2_5156)"/>
<path d="M31.5153 121.77L29.5352 119.32L24.302 122.193L24.857 125.093L25.1609 125.833C25.0419 123.867 28.3482 121.585 31.5153 121.77Z" fill="url(#paint1_linear_2_5156)"/>
<path d="M25.1622 125.835L22.3308 121.056C21.9897 120.514 21.8962 120.04 21.8962 119.487C21.8962 118.879 22.1501 118.546 23.1251 118.018C24.2608 117.463 26.5475 117.222 28.9047 117.222C32.7349 117.222 33.6531 118.477 34.0442 119.831C34.0442 119.831 33.5034 119.611 32.2313 119.611C28.1961 119.611 24.9706 121.611 24.9706 124.638C24.9706 125.273 25.1622 125.835 25.1622 125.835Z" fill="url(#paint2_linear_2_5156)"/>
<path d="M13 105.5H16.8085C18.4147 105.5 19.0735 106.17 19.7232 106.829C20.4669 107.519 22.7224 110.635 27.4905 116.717H22.3299C20.2197 116.717 19.5522 116.35 18.7361 115.079L13 105.5Z" fill="url(#paint3_linear_2_5156)"/>
<path d="M73.0683 114H74.1483V105.66H73.2363C73.0323 106.536 72.3483 107.016 71.5443 107.016H71.2803V107.988H71.7123C72.1683 107.988 72.8163 107.808 73.0683 107.46V114ZM78.9653 114.18C80.7053 114.18 81.7973 113.232 81.7973 111.636C81.7973 110.448 81.1613 109.788 79.9973 109.584C80.9333 109.356 81.5093 108.624 81.5093 107.664C81.5093 106.308 80.5613 105.48 78.9293 105.48C77.2253 105.48 76.1693 106.464 76.1693 108.072L77.1773 108.288C77.1773 107.052 77.7893 106.38 78.8693 106.38C79.8533 106.38 80.4293 106.896 80.4293 107.784C80.4293 108.672 79.9133 109.224 78.7973 109.224H78.3773V110.112H78.8453C80.0933 110.112 80.7173 110.664 80.7173 111.66C80.7173 112.716 80.1293 113.28 79.0013 113.28C77.8493 113.28 77.1173 112.62 77.0693 111.492L76.0133 111.624C76.0613 113.184 77.2253 114.18 78.9653 114.18ZM84.6459 108H83.2419V109.416H84.6459V108ZM84.6459 112.584H83.2419V114H84.6459V112.584ZM88.8319 114.18C90.5959 114.18 91.7239 112.98 91.7239 111.228C91.7239 109.428 90.7639 108.312 89.1799 108.312C88.2799 108.312 87.6079 108.696 87.2119 109.428L87.5239 106.596H91.3159V105.66H86.7079L86.2159 110.496L87.2479 110.604C87.4759 109.728 88.0279 109.212 88.9159 109.212C90.0679 109.212 90.6439 110.04 90.6439 111.288C90.6439 112.512 89.9959 113.256 88.8919 113.256C87.9199 113.256 87.3679 112.656 87.1999 111.828L86.0839 111.96C86.2999 113.316 87.3559 114.18 88.8319 114.18ZM96.085 114.18C98.197 114.18 99.301 112.5 99.301 109.836C99.301 107.16 98.197 105.48 96.085 105.48C93.973 105.48 92.869 107.16 92.869 109.836C92.869 112.5 93.973 114.18 96.085 114.18ZM96.085 113.28C94.645 113.28 93.949 111.948 93.949 109.836C93.949 107.712 94.645 106.38 96.085 106.38C97.525 106.38 98.221 107.712 98.221 109.836C98.221 111.948 97.525 113.28 96.085 113.28ZM103.615 110.184V111.144H107.083V110.184H103.615ZM113.064 114H114.144V105.66H113.232C113.028 106.536 112.344 107.016 111.54 107.016H111.276V107.988H111.708C112.164 107.988 112.812 107.808 113.064 107.46V114ZM118.853 105.48C117.161 105.48 116.069 106.644 116.069 108.216C116.069 109.968 117.221 110.892 118.745 110.892C119.621 110.892 120.341 110.544 120.761 109.824C120.737 111.912 120.233 113.28 118.889 113.28C117.857 113.28 117.413 112.668 117.245 111.756L116.165 111.996C116.429 113.4 117.353 114.18 118.877 114.18C121.013 114.18 121.841 112.212 121.841 109.668C121.841 106.92 120.881 105.48 118.853 105.48ZM118.853 109.992C117.857 109.992 117.149 109.32 117.149 108.204C117.149 107.112 117.821 106.38 118.841 106.38C120.173 106.38 120.629 107.424 120.737 108.42C120.545 109.308 119.753 109.992 118.853 109.992ZM124.689 108H123.285V109.416H124.689V108ZM124.689 112.584H123.285V114H124.689V112.584ZM125.947 114H131.419V113.028H127.399C128.215 112.464 128.803 111.984 129.451 111.384C130.735 110.196 131.323 109.176 131.323 108C131.323 106.38 130.351 105.48 128.731 105.48C127.051 105.48 126.043 106.428 126.043 107.904C126.043 108.12 126.067 108.336 126.127 108.576L127.207 108.684C127.147 108.384 127.111 108.132 127.111 107.916C127.111 107.004 127.699 106.416 128.671 106.416C129.631 106.416 130.195 106.992 130.195 108.012C130.195 109.008 129.835 109.704 128.779 110.724C127.711 111.744 126.631 112.608 125.947 113.112V114ZM135.367 114.18C137.131 114.18 138.259 112.98 138.259 111.228C138.259 109.428 137.299 108.312 135.715 108.312C134.815 108.312 134.143 108.696 133.747 109.428L134.059 106.596H137.851V105.66H133.243L132.751 110.496L133.783 110.604C134.011 109.728 134.563 109.212 135.451 109.212C136.603 109.212 137.179 110.04 137.179 111.288C137.179 112.512 136.531 113.256 135.427 113.256C134.455 113.256 133.903 112.656 133.735 111.828L132.619 111.96C132.835 113.316 133.891 114.18 135.367 114.18Z" fill="#100024"/>
<path d="M125.532 129H74.8003C72.5912 129 70.8003 130.791 70.8003 133C70.8003 135.209 72.5912 137 74.8003 137H125.532C127.741 137 129.532 135.209 129.532 133C129.532 130.791 127.741 129 125.532 129Z" fill="#E2E2E8" fill-opacity="0.5"/>
<path d="M174.557 114H177.329C179.813 114 181.397 112.212 181.397 109.728C181.397 107.196 179.801 105.48 177.353 105.48H174.557V114ZM175.697 113.04V106.44H177.329C179.165 106.44 180.185 107.832 180.185 109.728C180.185 111.552 179.141 113.04 177.305 113.04H175.697ZM182.944 106.884H184.108V105.6H182.944V106.884ZM183.016 114H184.036V108H183.016V114ZM187.139 109.368V108H186.191V114H187.211V111.432C187.211 110.712 187.235 109.908 187.811 109.332C188.099 109.044 188.507 108.864 189.131 108.864H189.179V107.868C189.107 107.856 189.035 107.856 188.963 107.856C188.051 107.856 187.427 108.528 187.139 109.368ZM195.185 110.58C195.185 108.78 194.249 107.856 192.629 107.856C190.913 107.856 189.905 109.068 189.905 111.072C189.905 113.052 190.925 114.144 192.641 114.144C193.853 114.144 194.729 113.568 195.149 112.476L194.309 112.104C194.045 112.836 193.481 113.244 192.713 113.244C191.645 113.244 190.937 112.476 190.925 111.3H195.185V110.58ZM194.153 110.472H190.925C190.949 109.344 191.549 108.66 192.605 108.66C193.589 108.66 194.153 109.236 194.153 110.34V110.472ZM199.087 114.144C200.431 114.144 201.331 113.352 201.547 111.984L200.575 111.828C200.419 112.764 199.915 113.256 199.099 113.256C198.031 113.256 197.407 112.428 197.407 110.988C197.407 109.584 198.031 108.744 199.063 108.744C199.879 108.744 200.407 109.248 200.515 110.16L201.559 110.04C201.403 108.66 200.491 107.856 199.087 107.856C197.383 107.856 196.327 109.044 196.327 111C196.327 112.92 197.407 114.144 199.087 114.144ZM202.284 108.84H203.4V112.2C203.4 113.316 203.736 114.108 205.032 114.108C205.416 114.108 205.656 114.072 205.92 114V113.064C205.716 113.112 205.56 113.148 205.296 113.148C204.684 113.148 204.42 112.848 204.42 112.164V108.84H205.92V108H204.42V105.996L203.4 106.428V108H202.284V108.84Z" fill="#100024"/>
<path d="M207.927 129H177.357C175.148 129 173.357 130.791 173.357 133C173.357 135.209 175.148 137 177.357 137H207.927C210.136 137 211.927 135.209 211.927 133C211.927 130.791 210.136 129 207.927 129Z" fill="#E2E2E8" fill-opacity="0.5"/>
<path d="M274 119.5C274 113.977 269.523 109.5 264 109.5C258.477 109.5 254 113.977 254 119.5C254 125.023 258.477 129.5 264 129.5C269.523 129.5 274 125.023 274 119.5Z" fill="#FFEAC2"/>
<path d="M263.765 123.5H264.995V116.55H263.975C263.755 117.29 263.225 117.66 262.475 117.67H262.275V118.78H262.595C263.015 118.78 263.525 118.64 263.765 118.36V123.5Z" fill="#AC7813"/>
<mask id="mask0_2_5156" style="mask-type:alpha" maskUnits="userSpaceOnUse" x="29" y="29" width="20" height="20">
<path d="M49 29H29V49H49V29Z" fill="#D9D9D9"/>
</mask>
<g mask="url(#mask0_2_5156)">
<path d="M38.9989 47.3332C37.8461 47.3332 36.7627 47.1143 35.7489 46.6765C34.735 46.2393 33.853 45.6457 33.103 44.8957C32.353 44.1457 31.7594 43.2637 31.3222 42.2498C30.8844 41.2359 30.6655 40.1526 30.6655 38.9998C30.6655 37.8471 30.8844 36.7637 31.3222 35.7498C31.7594 34.7359 32.353 33.854 33.103 33.104C33.853 32.354 34.735 31.7601 35.7489 31.3223C36.7627 30.8851 37.8461 30.6665 38.9989 30.6665C40.1516 30.6665 41.235 30.8851 42.2489 31.3223C43.2627 31.7601 44.1447 32.354 44.8947 33.104C45.6447 33.854 46.2383 34.7359 46.6755 35.7498C47.1133 36.7637 47.3322 37.8471 47.3322 38.9998C47.3322 40.1526 47.1133 41.2359 46.6755 42.2498C46.2383 43.2637 45.6447 44.1457 44.8947 44.8957C44.1447 45.6457 43.2627 46.2393 42.2489 46.6765C41.235 47.1143 40.1516 47.3332 38.9989 47.3332ZM38.1655 39.8332H39.8322V34.8332H38.1655V39.8332ZM38.9989 43.1665C39.235 43.1665 39.433 43.0865 39.593 42.9265C39.7525 42.7671 39.8322 42.5693 39.8322 42.3332C39.8322 42.0971 39.7525 41.899 39.593 41.739C39.433 41.5796 39.235 41.4998 38.9989 41.4998C38.7627 41.4998 38.565 41.5796 38.4055 41.739C38.2455 41.899 38.1655 42.0971 38.1655 42.3332C38.1655 42.5693 38.2455 42.7671 38.4055 42.9265C38.565 43.0865 38.7627 43.1665 38.9989 43.1665Z" fill="#DF9912"/>
</g>
<path d="M65.44 36.204C67.792 36.204 69.328 34.5 69.328 31.74C69.328 28.956 67.792 27.276 65.44 27.276C63.076 27.276 61.54 28.956 61.54 31.74C61.54 34.464 63.076 36.204 65.44 36.204ZM65.44 35.244C63.736 35.244 62.74 33.876 62.74 31.74C62.74 29.556 63.736 28.236 65.44 28.236C67.144 28.236 68.128 29.556 68.128 31.74C68.128 33.912 67.144 35.244 65.44 35.244ZM70.9511 36H71.9711V32.868C71.9711 31.536 72.5831 30.732 73.5791 30.732C74.4551 30.732 74.8991 31.272 74.8991 32.328V36H75.9191V32.268C75.9191 30.672 75.2351 29.856 73.9151 29.856C72.9671 29.856 72.3071 30.288 71.9111 31.188V30H70.9511V36ZM82.6403 32.58C82.6403 30.78 81.7043 29.856 80.0843 29.856C78.3683 29.856 77.3603 31.068 77.3603 33.072C77.3603 35.052 78.3803 36.144 80.0963 36.144C81.3083 36.144 82.1843 35.568 82.6043 34.476L81.7643 34.104C81.5003 34.836 80.9363 35.244 80.1683 35.244C79.1003 35.244 78.3923 34.476 78.3803 33.3H82.6403V32.58ZM81.6083 32.472H78.3803C78.4043 31.344 79.0043 30.66 80.0603 30.66C81.0443 30.66 81.6083 31.236 81.6083 32.34V32.472ZM89.6954 36.144C91.3874 36.144 92.4914 34.956 92.4914 33C92.4914 31.044 91.3874 29.856 89.6954 29.856C88.0034 29.856 86.8994 31.044 86.8994 33C86.8994 34.956 88.0034 36.144 89.6954 36.144ZM89.6954 35.256C88.6154 35.256 87.9794 34.488 87.9794 33C87.9794 31.512 88.6154 30.744 89.6954 30.744C90.7754 30.744 91.4114 31.512 91.4114 33C91.4114 34.488 90.7754 35.256 89.6954 35.256ZM95.0553 31.368V30H94.1073V36H95.1273V33.432C95.1273 32.712 95.1513 31.908 95.7273 31.332C96.0153 31.044 96.4233 30.864 97.0473 30.864H97.0953V29.868C97.0233 29.856 96.9513 29.856 96.8793 29.856C95.9673 29.856 95.3433 30.528 95.0553 31.368ZM101.537 30V36H102.557V32.496C102.557 31.404 103.073 30.732 103.913 30.732C104.633 30.732 105.041 31.224 105.041 32.1V36H106.061V32.448C106.061 31.356 106.553 30.732 107.405 30.732C108.161 30.732 108.545 31.212 108.545 32.148V36H109.565V32.064C109.565 30.672 108.893 29.856 107.741 29.856C106.925 29.856 106.313 30.252 105.917 31.056C105.641 30.276 105.041 29.856 104.213 29.856C103.409 29.856 102.833 30.252 102.497 31.044V30H101.537ZM113.801 36.144C115.493 36.144 116.597 34.956 116.597 33C116.597 31.044 115.493 29.856 113.801 29.856C112.109 29.856 111.005 31.044 111.005 33C111.005 34.956 112.109 36.144 113.801 36.144ZM113.801 35.256C112.721 35.256 112.085 34.488 112.085 33C112.085 31.512 112.721 30.744 113.801 30.744C114.881 30.744 115.517 31.512 115.517 33C115.517 34.488 114.881 35.256 113.801 35.256ZM119.161 31.368V30H118.213V36H119.233V33.432C119.233 32.712 119.257 31.908 119.833 31.332C120.121 31.044 120.529 30.864 121.153 30.864H121.201V29.868C121.129 29.856 121.057 29.856 120.985 29.856C120.073 29.856 119.449 30.528 119.161 31.368ZM127.207 32.58C127.207 30.78 126.271 29.856 124.651 29.856C122.935 29.856 121.927 31.068 121.927 33.072C121.927 35.052 122.947 36.144 124.663 36.144C125.875 36.144 126.751 35.568 127.171 34.476L126.331 34.104C126.067 34.836 125.503 35.244 124.735 35.244C123.667 35.244 122.959 34.476 122.947 33.3H127.207V32.58ZM126.175 32.472H122.947C122.971 31.344 123.571 30.66 124.627 30.66C125.611 30.66 126.175 31.236 126.175 32.34V32.472ZM134.79 30H133.29V29.196C133.29 28.464 133.542 28.128 134.154 28.128C134.346 28.128 134.574 28.152 134.79 28.188V27.312C134.562 27.252 134.31 27.228 134.022 27.228C132.954 27.228 132.27 27.96 132.27 29.052V30H131.166V30.84H132.27V36H133.29V30.84H134.79V30ZM137.25 27.3H136.23V36H137.25V27.3ZM139.399 28.884H140.563V27.6H139.399V28.884ZM139.471 36H140.491V30H139.471V36ZM147.314 29.904C147.482 29.904 147.626 29.928 147.746 29.952V29.064C147.614 29.028 147.482 29.016 147.35 29.016C146.546 29.016 146.102 29.496 145.922 30.108C145.586 29.952 145.202 29.856 144.746 29.856C143.354 29.856 142.526 30.72 142.526 31.884C142.526 32.472 142.73 32.976 143.114 33.348C142.61 33.54 142.262 33.948 142.262 34.548C142.262 34.98 142.454 35.364 142.958 35.592C142.322 35.796 141.986 36.276 141.986 36.84C141.986 37.692 142.574 38.484 144.686 38.484C146.774 38.484 147.662 37.704 147.662 36.576C147.662 35.496 146.978 34.884 145.622 34.884H144.158C143.414 34.884 143.162 34.608 143.162 34.272C143.162 33.996 143.342 33.792 143.594 33.684C143.918 33.84 144.302 33.936 144.746 33.936C146.138 33.936 146.966 33.048 146.966 31.884C146.966 31.32 146.774 30.828 146.414 30.468C146.558 30.084 146.858 29.904 147.314 29.904ZM144.746 33.156C143.978 33.156 143.486 32.616 143.486 31.884C143.486 31.152 143.978 30.636 144.746 30.636C145.514 30.636 146.006 31.164 146.006 31.896C146.006 32.628 145.514 33.156 144.746 33.156ZM145.394 35.784C146.222 35.784 146.642 36.084 146.642 36.648C146.642 37.188 146.27 37.644 144.806 37.644C143.726 37.644 142.982 37.404 142.982 36.66C142.982 36.3 143.186 35.952 143.618 35.76C143.774 35.772 143.942 35.784 144.122 35.784H145.394ZM149.128 36H150.148V32.868C150.148 31.512 150.736 30.732 151.768 30.732C152.632 30.732 153.076 31.284 153.076 32.34V36H154.096V32.268C154.096 30.684 153.412 29.856 152.116 29.856C151.18 29.856 150.508 30.288 150.148 31.128V27.3H149.128V36ZM155.059 30.84H156.175V34.2C156.175 35.316 156.511 36.108 157.807 36.108C158.191 36.108 158.431 36.072 158.695 36V35.064C158.491 35.112 158.335 35.148 158.071 35.148C157.459 35.148 157.195 34.848 157.195 34.164V30.84H158.695V30H157.195V27.996L156.175 28.428V30H155.059V30.84ZM162.171 36.144C163.635 36.144 164.463 35.388 164.463 34.308C164.463 33.432 163.983 32.88 162.903 32.676L161.739 32.46C161.151 32.352 160.815 32.112 160.815 31.608C160.815 31.02 161.283 30.684 162.051 30.684C162.867 30.684 163.335 31.104 163.467 31.704L164.475 31.476C164.355 30.468 163.443 29.856 162.099 29.856C160.683 29.856 159.819 30.624 159.819 31.656C159.819 32.568 160.395 33.144 161.415 33.336L162.591 33.552C163.131 33.648 163.455 33.864 163.455 34.392C163.455 34.908 163.011 35.304 162.207 35.304C161.331 35.304 160.767 34.872 160.623 34.116L159.591 34.296C159.795 35.484 160.755 36.144 162.171 36.144ZM169.199 28.884H170.363V27.6H169.199V28.884ZM169.271 36H170.291V30H169.271V36ZM172.447 36H173.467V32.868C173.467 31.536 174.079 30.732 175.075 30.732C175.951 30.732 176.395 31.272 176.395 32.328V36H177.415V32.268C177.415 30.672 176.731 29.856 175.411 29.856C174.463 29.856 173.803 30.288 173.407 31.188V30H172.447V36ZM181.614 30.84H182.73V34.2C182.73 35.316 183.066 36.108 184.362 36.108C184.746 36.108 184.986 36.072 185.25 36V35.064C185.046 35.112 184.89 35.148 184.626 35.148C184.014 35.148 183.75 34.848 183.75 34.164V30.84H185.25V30H183.75V27.996L182.73 28.428V30H181.614V30.84ZM186.804 36H187.824V32.868C187.824 31.512 188.412 30.732 189.444 30.732C190.308 30.732 190.752 31.284 190.752 32.34V36H191.772V32.268C191.772 30.684 191.088 29.856 189.792 29.856C188.856 29.856 188.184 30.288 187.824 31.128V27.3H186.804V36ZM193.68 28.884H194.844V27.6H193.68V28.884ZM193.752 36H194.772V30H193.752V36ZM198.968 36.144C200.432 36.144 201.26 35.388 201.26 34.308C201.26 33.432 200.78 32.88 199.7 32.676L198.536 32.46C197.948 32.352 197.612 32.112 197.612 31.608C197.612 31.02 198.08 30.684 198.848 30.684C199.664 30.684 200.132 31.104 200.264 31.704L201.272 31.476C201.152 30.468 200.24 29.856 198.896 29.856C197.48 29.856 196.616 30.624 196.616 31.656C196.616 32.568 197.192 33.144 198.212 33.336L199.388 33.552C199.928 33.648 200.252 33.864 200.252 34.392C200.252 34.908 199.808 35.304 199.004 35.304C198.128 35.304 197.564 34.872 197.42 34.116L196.388 34.296C196.592 35.484 197.552 36.144 198.968 36.144ZM65.008 51.144C66.508 51.144 67.48 49.872 67.48 48C67.48 46.164 66.532 44.856 65.068 44.856C64.132 44.856 63.472 45.372 63.16 46.044V42.3H62.14V51H62.92L63.1 49.968C63.412 50.664 64.096 51.144 65.008 51.144ZM64.732 50.244C63.724 50.244 63.136 49.428 63.136 48.18V47.868C63.136 46.56 63.736 45.756 64.744 45.756C65.812 45.756 66.4 46.656 66.4 48C66.4 49.368 65.776 50.244 64.732 50.244ZM71.3555 51.144C73.0475 51.144 74.1515 49.956 74.1515 48C74.1515 46.044 73.0475 44.856 71.3555 44.856C69.6635 44.856 68.5595 46.044 68.5595 48C68.5595 49.956 69.6635 51.144 71.3555 51.144ZM71.3555 50.256C70.2755 50.256 69.6395 49.488 69.6395 48C69.6395 46.512 70.2755 45.744 71.3555 45.744C72.4355 45.744 73.0715 46.512 73.0715 48C73.0715 49.488 72.4355 50.256 71.3555 50.256ZM78.0235 51.144C79.7155 51.144 80.8195 49.956 80.8195 48C80.8195 46.044 79.7155 44.856 78.0235 44.856C76.3315 44.856 75.2275 46.044 75.2275 48C75.2275 49.956 76.3315 51.144 78.0235 51.144ZM78.0235 50.256C76.9435 50.256 76.3075 49.488 76.3075 48C76.3075 46.512 76.9435 45.744 78.0235 45.744C79.1035 45.744 79.7395 46.512 79.7395 48C79.7395 49.488 79.1035 50.256 78.0235 50.256ZM86.4195 51H87.6795L85.3395 47.316L87.5355 45H86.2035L83.5155 47.952V42.3H82.4955V51H83.5155V49.164L84.6075 48.06L86.4195 51ZM88.8674 43.884H90.0314V42.6H88.8674V43.884ZM88.9394 51H89.9594V45H88.9394V51ZM92.1152 51H93.1352V47.868C93.1352 46.536 93.7472 45.732 94.7432 45.732C95.6192 45.732 96.0632 46.272 96.0632 47.328V51H97.0832V47.268C97.0832 45.672 96.3992 44.856 95.0792 44.856C94.1312 44.856 93.4712 45.288 93.0752 46.188V45H92.1152V51ZM103.732 44.904C103.9 44.904 104.044 44.928 104.164 44.952V44.064C104.032 44.028 103.9 44.016 103.768 44.016C102.964 44.016 102.52 44.496 102.34 45.108C102.004 44.952 101.62 44.856 101.164 44.856C99.7724 44.856 98.9444 45.72 98.9444 46.884C98.9444 47.472 99.1484 47.976 99.5324 48.348C99.0284 48.54 98.6804 48.948 98.6804 49.548C98.6804 49.98 98.8724 50.364 99.3764 50.592C98.7404 50.796 98.4044 51.276 98.4044 51.84C98.4044 52.692 98.9924 53.484 101.104 53.484C103.192 53.484 104.08 52.704 104.08 51.576C104.08 50.496 103.396 49.884 102.04 49.884H100.576C99.8324 49.884 99.5804 49.608 99.5804 49.272C99.5804 48.996 99.7604 48.792 100.012 48.684C100.336 48.84 100.72 48.936 101.164 48.936C102.556 48.936 103.384 48.048 103.384 46.884C103.384 46.32 103.192 45.828 102.832 45.468C102.976 45.084 103.276 44.904 103.732 44.904ZM101.164 48.156C100.396 48.156 99.9044 47.616 99.9044 46.884C99.9044 46.152 100.396 45.636 101.164 45.636C101.932 45.636 102.424 46.164 102.424 46.896C102.424 47.628 101.932 48.156 101.164 48.156ZM101.812 50.784C102.64 50.784 103.06 51.084 103.06 51.648C103.06 52.188 102.688 52.644 101.224 52.644C100.144 52.644 99.4004 52.404 99.4004 51.66C99.4004 51.3 99.6044 50.952 100.036 50.76C100.192 50.772 100.36 50.784 100.54 50.784H101.812ZM108.663 51H109.683V47.868C109.683 46.512 110.271 45.732 111.303 45.732C112.167 45.732 112.611 46.284 112.611 47.34V51H113.631V47.268C113.631 45.684 112.947 44.856 111.651 44.856C110.715 44.856 110.043 45.288 109.683 46.128V42.3H108.663V51ZM117.099 51.144C118.083 51.144 118.839 50.676 119.115 49.908C119.127 50.292 119.163 50.688 119.211 51H120.279C120.135 50.532 120.075 49.896 120.075 48.972V47.352C120.075 45.6 119.355 44.856 117.711 44.856C116.307 44.856 115.347 45.66 115.263 46.884H116.355C116.403 46.128 116.907 45.696 117.723 45.696C118.647 45.696 119.043 46.14 119.043 47.244V47.34L117.927 47.472C116.943 47.592 116.367 47.736 115.911 47.964C115.371 48.264 115.071 48.78 115.071 49.38C115.071 50.448 115.875 51.144 117.099 51.144ZM117.327 50.304C116.595 50.304 116.151 49.944 116.151 49.356C116.151 48.768 116.535 48.456 117.423 48.324L119.055 48.084V48.384C119.055 49.548 118.371 50.304 117.327 50.304ZM123.292 51H124.384L126.556 45H125.452L124.108 49.044C124 49.368 123.916 49.68 123.856 49.956H123.82C123.76 49.68 123.676 49.368 123.568 49.044L122.224 45H121.12L123.292 51ZM132.433 47.58C132.433 45.78 131.497 44.856 129.877 44.856C128.161 44.856 127.153 46.068 127.153 48.072C127.153 50.052 128.173 51.144 129.889 51.144C131.101 51.144 131.977 50.568 132.397 49.476L131.557 49.104C131.293 49.836 130.729 50.244 129.961 50.244C128.893 50.244 128.185 49.476 128.173 48.3H132.433V47.58ZM131.401 47.472H128.173C128.197 46.344 128.797 45.66 129.853 45.66C130.837 45.66 131.401 46.236 131.401 47.34V47.472ZM139.452 51.144C140.796 51.144 141.696 50.352 141.912 48.984L140.94 48.828C140.784 49.764 140.28 50.256 139.464 50.256C138.396 50.256 137.772 49.428 137.772 47.988C137.772 46.584 138.396 45.744 139.428 45.744C140.244 45.744 140.772 46.248 140.88 47.16L141.924 47.04C141.768 45.66 140.856 44.856 139.452 44.856C137.748 44.856 136.692 46.044 136.692 48C136.692 49.92 137.772 51.144 139.452 51.144ZM143.609 51H144.629V47.868C144.629 46.512 145.217 45.732 146.249 45.732C147.113 45.732 147.557 46.284 147.557 47.34V51H148.577V47.268C148.577 45.684 147.893 44.856 146.597 44.856C145.661 44.856 144.989 45.288 144.629 46.128V42.3H143.609V51ZM152.045 51.144C153.029 51.144 153.785 50.676 154.061 49.908C154.073 50.292 154.109 50.688 154.157 51H155.225C155.081 50.532 155.021 49.896 155.021 48.972V47.352C155.021 45.6 154.301 44.856 152.657 44.856C151.253 44.856 150.293 45.66 150.209 46.884H151.301C151.349 46.128 151.853 45.696 152.669 45.696C153.593 45.696 153.989 46.14 153.989 47.244V47.34L152.873 47.472C151.889 47.592 151.313 47.736 150.857 47.964C150.317 48.264 150.017 48.78 150.017 49.38C150.017 50.448 150.821 51.144 152.045 51.144ZM152.273 50.304C151.541 50.304 151.097 49.944 151.097 49.356C151.097 48.768 151.481 48.456 152.369 48.324L154.001 48.084V48.384C154.001 49.548 153.317 50.304 152.273 50.304ZM157.025 51H158.045V47.868C158.045 46.536 158.657 45.732 159.653 45.732C160.529 45.732 160.973 46.272 160.973 47.328V51H161.993V47.268C161.993 45.672 161.309 44.856 159.989 44.856C159.041 44.856 158.381 45.288 157.985 46.188V45H157.025V51ZM168.643 44.904C168.811 44.904 168.955 44.928 169.075 44.952V44.064C168.943 44.028 168.811 44.016 168.679 44.016C167.875 44.016 167.431 44.496 167.251 45.108C166.915 44.952 166.531 44.856 166.075 44.856C164.683 44.856 163.855 45.72 163.855 46.884C163.855 47.472 164.059 47.976 164.443 48.348C163.939 48.54 163.591 48.948 163.591 49.548C163.591 49.98 163.783 50.364 164.287 50.592C163.651 50.796 163.315 51.276 163.315 51.84C163.315 52.692 163.903 53.484 166.015 53.484C168.103 53.484 168.991 52.704 168.991 51.576C168.991 50.496 168.307 49.884 166.951 49.884H165.487C164.743 49.884 164.491 49.608 164.491 49.272C164.491 48.996 164.671 48.792 164.923 48.684C165.247 48.84 165.631 48.936 166.075 48.936C167.467 48.936 168.295 48.048 168.295 46.884C168.295 46.32 168.103 45.828 167.743 45.468C167.887 45.084 168.187 44.904 168.643 44.904ZM166.075 48.156C165.307 48.156 164.815 47.616 164.815 46.884C164.815 46.152 165.307 45.636 166.075 45.636C166.843 45.636 167.335 46.164 167.335 46.896C167.335 47.628 166.843 48.156 166.075 48.156ZM166.723 50.784C167.551 50.784 167.971 51.084 167.971 51.648C167.971 52.188 167.599 52.644 166.135 52.644C165.055 52.644 164.311 52.404 164.311 51.66C164.311 51.3 164.515 50.952 164.947 50.76C165.103 50.772 165.271 50.784 165.451 50.784H166.723ZM174.961 47.58C174.961 45.78 174.025 44.856 172.405 44.856C170.689 44.856 169.681 46.068 169.681 48.072C169.681 50.052 170.701 51.144 172.417 51.144C173.629 51.144 174.505 50.568 174.925 49.476L174.085 49.104C173.821 49.836 173.257 50.244 172.489 50.244C171.421 50.244 170.713 49.476 170.701 48.3H174.961V47.58ZM173.929 47.472H170.701C170.725 46.344 171.325 45.66 172.381 45.66C173.365 45.66 173.929 46.236 173.929 47.34V47.472ZM178.539 51.144C179.475 51.144 180.123 50.688 180.483 49.884V51H181.443V42.3H180.423V45.888C180.039 45.18 179.451 44.856 178.659 44.856C177.159 44.856 176.103 46.152 176.103 48C176.103 49.884 177.087 51.144 178.539 51.144ZM178.815 50.244C177.795 50.244 177.183 49.404 177.183 48C177.183 46.584 177.795 45.756 178.815 45.756C179.823 45.756 180.447 46.56 180.447 47.868V48.144C180.447 49.428 179.811 50.244 178.815 50.244ZM184.826 49.584H183.422V51H184.826V49.584Z" fill="#100024"/>
</g>
<defs>
<linearGradient id="paint0_linear_2_5156" x1="24.8128" y1="121.87" x2="24.8128" y2="133.471" gradientUnits="userSpaceOnUse">
<stop stop-color="#EB2023"/>
<stop offset="0.0963" stop-color="#E92026"/>
<stop offset="0.2039" stop-color="#E31E27"/>
<stop offset="0.2986" stop-color="#E01E26"/>
<stop offset="0.4043" stop-color="#D81F27"/>
<stop offset="0.5" stop-color="#CF2027"/>
<stop offset="0.6" stop-color="#C62127"/>
<stop offset="0.7" stop-color="#B92025"/>
<stop offset="0.8" stop-color="#AE1F23"/>
<stop offset="0.9" stop-color="#A01D22"/>
<stop offset="1" stop-color="#901C1C"/>
</linearGradient>
<linearGradient id="paint1_linear_2_5156" x1="25.128" y1="125.814" x2="31.5174" y2="121.805" gradientUnits="userSpaceOnUse">
<stop stop-color="#6C221F"/>
<stop offset="0.2491" stop-color="#7F2620"/>
<stop offset="0.4983" stop-color="#982B24"/>
<stop offset="0.7491" stop-color="#B53125"/>
<stop offset="1" stop-color="#CB3327"/>
</linearGradient>
<linearGradient id="paint2_linear_2_5156" x1="24.6336" y1="124.704" x2="33.9787" y2="119.407" gradientUnits="userSpaceOnUse">
<stop stop-color="#E7EBEE"/>
<stop offset="0.2491" stop-color="#DFE4E8"/>
<stop offset="0.4983" stop-color="#CAD1D7"/>
<stop offset="0.7491" stop-color="#A8B5BD"/>
<stop offset="1" stop-color="#93A6AD"/>
</linearGradient>
<linearGradient id="paint3_linear_2_5156" x1="19.3862" y1="105.503" x2="19.3862" y2="116.71" gradientUnits="userSpaceOnUse">
<stop stop-color="#05AEE9"/>
<stop offset="0.0963" stop-color="#00A9E0"/>
<stop offset="0.2039" stop-color="#07A3DC"/>
<stop offset="0.2986" stop-color="#089DD5"/>
<stop offset="0.4043" stop-color="#0A92CC"/>
<stop offset="0.5" stop-color="#0F87C3"/>
<stop offset="0.6" stop-color="#127CB8"/>
<stop offset="0.7" stop-color="#0E70AD"/>
<stop offset="0.8" stop-color="#0F63A3"/>
<stop offset="0.9" stop-color="#135393"/>
<stop offset="1" stop-color="#184485"/>
</linearGradient>
<clipPath id="clip0_2_5156">
<rect width="293" height="149" fill="white"/>
</clipPath>
</defs>
</svg>
