<svg width="112" height="32" viewBox="0 0 112 32" fill="none" xmlns="http://www.w3.org/2000/svg">
<g clip-path="url(#clip0_2_5332)">
<path fill-rule="evenodd" clip-rule="evenodd" d="M2.662 0.415C2.662 0.623 2.063 7.631 1.332 15.989C0.598 24.346 0 31.375 0 31.609V32H11.273L11.411 31.579C11.48 31.157 12.191 23.042 12.191 22.686C12.191 22.592 12.604 22.486 13.207 22.427C15.0725 22.2523 16.8716 21.6456 18.462 20.655L18.917 20.373V20.77C18.917 21.202 18.137 30.283 18.007 31.368L17.968 32H96.71L96.884 31.087C96.933 30.567 97.011 29.762 97.058 29.299L97.143 28.458L97.657 30.211L98.21 32H109.3V31.72C109.301 31.545 109.9 24.562 110.632 16.2C111.363 7.84 111.962 0.788 111.962 0.53L112 0H101.308L101.253 0.518C101.177 1.11253 101.114 1.70868 101.065 2.306L100.95 3.638L100.65 2.656C100.485 2.116 100.247 1.312 100.121 0.868L99.909 0H50.345L49.46 10.474L48.554 20.886L47.183 20.926L45.811 20.966L45.892 20.295C45.98 19.568 47.546 0.289 47.547 0H20.767L20.66 1.184C20.607 1.801 20.503 2.306 20.431 2.306C20.359 2.306 20.099 2.155 19.854 1.971C19.088 1.395 17.703 0.771 16.5 0.459C15.423 0.18 15.07 0 9.175 0H2.68L2.662 0.415ZM16.115 3.207C18.052 3.84 19.335 4.862 20.092 6.378C20.769 7.732 20.928 8.643 20.839 10.649C20.707 13.609 19.982 15.427 18.229 17.186C16.399 19.023 14.591 19.694 11.469 19.694C10.122 19.694 9.669 19.738 9.669 19.869C9.669 20.188 8.972 28.166 8.89 28.773L8.81 29.369H2.905L2.987 28.633C3.032 28.228 3.548 22.343 4.135 15.557C4.721 8.77 5.23 3.133 5.263 3.031C5.313 2.879 6.258 2.855 10.334 2.901C14.674 2.948 15.448 2.989 16.115 3.207ZM36.013 3.37C36.013 3.947 35.754 7.057 35.65 7.74L35.58 8.195H32.083C30.16 8.195 28.586 8.211 28.586 8.23C28.586 8.25 28.491 9.275 28.377 10.509C28.2953 11.3376 28.2252 12.1674 28.167 12.998C28.166 13.225 28.412 13.243 31.389 13.243C34.366 13.243 34.611 13.262 34.607 13.489C34.605 13.624 34.512 14.649 34.401 15.767C34.3213 16.5256 34.2526 17.2854 34.195 18.046C34.191 18.273 33.943 18.291 30.971 18.291H27.751L27.684 18.607C27.647 18.781 27.55 19.806 27.468 20.886C27.385 21.966 27.283 23.086 27.239 23.375L27.16 23.9H34.696L34.516 26.039C34.4427 26.9516 34.3557 27.863 34.255 28.773L34.174 29.369H21.019V29.017C21.019 28.823 21.524 22.907 22.139 15.871C22.756 8.834 23.261 3.03 23.261 2.971C23.261 2.914 26.131 2.867 29.637 2.867H36.013V3.37ZM44.599 2.972C44.629 3.03 44.257 7.526 43.773 12.962C43.29 18.4 42.891 23.054 42.886 23.305L42.879 23.76H49.881L49.801 24.566C49.758 25.01 49.648 26.256 49.558 27.336L49.394 29.299L42.844 29.336L36.294 29.372V29.018C36.294 28.823 36.797 22.908 37.414 15.87C38.03 8.834 38.534 3.03 38.534 2.972C38.535 2.914 39.887 2.867 41.54 2.867C43.192 2.867 44.569 2.914 44.599 2.972ZM58.894 2.972C58.935 3.048 56.69 29.099 56.622 29.334C56.616 29.354 55.247 29.369 53.58 29.369H50.548L50.63 28.633C50.675 28.228 51.192 22.343 51.779 15.557C52.365 8.77 52.87 3.138 52.902 3.042C52.946 2.909 53.672 2.867 55.898 2.867C57.515 2.867 58.863 2.914 58.894 2.972ZM68.172 3.672C67.962 5.7 67.286 13.735 67.322 13.772C67.345 13.794 68.795 11.35 70.545 8.34L73.726 2.867H80.45L80.127 3.401C79.949 3.694 78.196 6.414 76.23 9.444C74.265 12.474 72.677 15.026 72.702 15.115C72.726 15.204 74.034 18.385 75.609 22.186C77.184 25.986 78.473 29.157 78.473 29.233C78.473 29.317 77.178 29.369 75.05 29.369H71.626L71.324 28.563C71.158 28.119 70.168 25.453 69.126 22.638C68.083 19.823 67.176 17.425 67.11 17.31C67.013 17.14 66.988 17.152 66.977 17.38C66.969 17.534 66.73 20.28 66.447 23.48L65.93 29.3L62.998 29.337C61.385 29.358 60.02 29.327 59.965 29.267C59.893 29.189 62.103 3.167 62.205 2.902C62.212 2.882 63.576 2.867 65.238 2.867H68.258L68.173 3.673L68.172 3.672ZM87.947 3.392C87.904 3.682 87.391 9.502 86.807 16.328C86.222 23.154 85.715 28.88 85.678 29.054C85.613 29.369 85.608 29.369 82.681 29.369C81.069 29.369 79.719 29.32 79.682 29.261C79.616 29.154 81.808 3.381 81.912 3.041C81.953 2.909 82.694 2.867 84.996 2.867H88.025L87.947 3.392ZM98.017 3.602C98.137 4.008 99.157 7.589 100.281 11.561C101.406 15.533 102.369 18.861 102.421 18.958C102.472 19.055 102.785 15.71 103.115 11.526C103.445 7.342 103.75 3.682 103.793 3.392L103.871 2.867H109.052L108.968 3.603C108.922 4.008 108.406 9.892 107.822 16.679C107.237 23.466 106.733 29.099 106.702 29.197C106.657 29.335 105.935 29.367 103.461 29.337L100.278 29.299L97.936 21.306C96.363 15.938 95.57 13.428 95.519 13.664C95.478 13.857 95.183 17.421 94.863 21.584C94.543 25.749 94.252 29.204 94.215 29.262C94.13 29.401 89.016 29.402 88.939 29.264C88.897 29.188 91.143 3.14 91.213 2.902C91.219 2.882 92.703 2.867 94.511 2.867H97.798L98.018 3.603L98.017 3.602ZM10.733 8.072C10.699 8.179 10.568 9.56 10.443 11.141C10.317 12.721 10.181 14.189 10.141 14.401L10.067 14.787H11.387C12.957 14.787 13.669 14.493 14.394 13.543C14.961 12.801 15.179 12.043 15.184 10.79C15.194 8.819 14.38 8.065 12.112 7.947C11.069 7.892 10.782 7.918 10.733 8.072Z" fill="#20226D"/>
</g>
<defs>
<clipPath id="clip0_2_5332">
<rect width="112" height="32" fill="white"/>
</clipPath>
</defs>
</svg>
