<svg width="293" height="130" viewBox="0 0 293 130" fill="none" xmlns="http://www.w3.org/2000/svg">
<g clip-path="url(#clip0_2_5087)">
<path d="M285 0.5H8C3.85786 0.5 0.5 3.85786 0.5 8V122C0.5 126.142 3.85786 129.5 8 129.5H285C289.142 129.5 292.5 126.142 292.5 122V8C292.5 3.85786 289.142 0.5 285 0.5Z" fill="white" stroke="#E2E2E8"/>
<path fill-rule="evenodd" clip-rule="evenodd" d="M31.781 24.0018C31.781 28.2988 28.2976 31.7822 24.0006 31.7822C19.7036 31.7822 16.2202 28.2988 16.2202 24.0018C16.2202 19.7048 19.7036 16.2214 24.0006 16.2214C28.2976 16.2214 31.781 19.7048 31.781 24.0018ZM23.1473 27.1684L28.3342 21.9814L27.188 20.8353L22.5742 25.4491L21.0725 23.9474L19.9263 25.0936L22.0011 27.1684C22.1531 27.3204 22.3592 27.4057 22.5742 27.4057C22.7891 27.4057 22.9953 27.3204 23.1473 27.1684Z" fill="#5B92E3"/>
<path d="M42.07 28.6869C44.226 28.6869 45.634 27.1249 45.634 24.5949C45.634 22.0429 44.226 20.5029 42.07 20.5029C39.903 20.5029 38.495 22.0429 38.495 24.5949C38.495 27.0919 39.903 28.6869 42.07 28.6869ZM42.07 27.8069C40.508 27.8069 39.595 26.5529 39.595 24.5949C39.595 22.5929 40.508 21.3829 42.07 21.3829C43.632 21.3829 44.534 22.5929 44.534 24.5949C44.534 26.5859 43.632 27.8069 42.07 27.8069ZM47.1218 28.4999H48.0568V25.6289C48.0568 24.4079 48.6178 23.6709 49.5308 23.6709C50.3338 23.6709 50.7408 24.1659 50.7408 25.1339V28.4999H51.6758V25.0789C51.6758 23.6159 51.0488 22.8679 49.8388 22.8679C48.9698 22.8679 48.3648 23.2639 48.0018 24.0889V22.9999H47.1218V28.4999ZM57.837 25.3649C57.837 23.7149 56.979 22.8679 55.494 22.8679C53.921 22.8679 52.997 23.9789 52.997 25.8159C52.997 27.6309 53.932 28.6319 55.505 28.6319C56.616 28.6319 57.419 28.1039 57.804 27.1029L57.034 26.7619C56.792 27.4329 56.275 27.8069 55.571 27.8069C54.592 27.8069 53.943 27.1029 53.932 26.0249H57.837V25.3649ZM56.891 25.2659H53.932C53.954 24.2319 54.504 23.6049 55.472 23.6049C56.374 23.6049 56.891 24.1329 56.891 25.1449V25.2659ZM63.0721 28.4999H64.0951L65.1401 24.5399C65.1841 24.3639 65.2391 24.0889 65.2611 23.9239H65.2831C65.3051 24.0889 65.3601 24.3639 65.4041 24.5399L66.4491 28.4999H67.4721L69.0231 22.9999H68.0551L67.0651 26.9269C67.0211 27.1249 66.9771 27.3559 66.9441 27.5759H66.9221C66.8891 27.3559 66.8231 27.1249 66.7791 26.9269L65.7781 22.9999H64.7661L63.7651 26.9269C63.7211 27.1249 63.6551 27.3559 63.6221 27.5759H63.6001C63.5671 27.3559 63.5231 27.1249 63.4791 26.9269L62.4891 22.9999H61.5211L63.0721 28.4999ZM71.603 28.6319C72.505 28.6319 73.198 28.2029 73.451 27.4989C73.462 27.8509 73.495 28.2139 73.539 28.4999H74.518C74.386 28.0709 74.331 27.4879 74.331 26.6409V25.1559C74.331 23.5499 73.671 22.8679 72.164 22.8679C70.877 22.8679 69.997 23.6049 69.92 24.7269H70.921C70.965 24.0339 71.427 23.6379 72.175 23.6379C73.022 23.6379 73.385 24.0449 73.385 25.0569V25.1449L72.362 25.2659C71.46 25.3759 70.932 25.5079 70.514 25.7169C70.019 25.9919 69.744 26.4649 69.744 27.0149C69.744 27.9939 70.481 28.6319 71.603 28.6319ZM71.812 27.8619C71.141 27.8619 70.734 27.5319 70.734 26.9929C70.734 26.4539 71.086 26.1679 71.9 26.0469L73.396 25.8269V26.1019C73.396 27.1689 72.769 27.8619 71.812 27.8619ZM76.1907 30.6999C77.1147 30.6999 77.7747 30.2379 78.2807 28.8519L80.4257 22.9999H79.4137L78.1377 26.8279C78.0497 27.1029 77.9837 27.3229 77.9507 27.4769H77.9287C77.8957 27.3229 77.8407 27.1029 77.7417 26.8279L76.3337 22.9999H75.2887L77.4777 28.4339L77.3347 28.8409C77.0817 29.5559 76.7407 29.8529 76.0807 29.8529C75.9597 29.8529 75.8277 29.8529 75.6847 29.8309V30.6559C75.8607 30.6889 76.0257 30.6999 76.1907 30.6999Z" fill="#161616"/>
<path d="M108.273 16.6599H108.273C104.219 16.6599 100.933 19.9461 100.933 23.9999V23.9999C100.933 28.0537 104.219 31.3399 108.273 31.3399H108.273C112.327 31.3399 115.613 28.0537 115.613 23.9999V23.9999C115.613 19.9461 112.327 16.6599 108.273 16.6599Z" fill="white"/>
<path d="M108.273 16.6599H108.273C104.219 16.6599 100.933 19.9461 100.933 23.9999V23.9999C100.933 28.0537 104.219 31.3399 108.273 31.3399H108.273C112.327 31.3399 115.613 28.0537 115.613 23.9999V23.9999C115.613 19.9461 112.327 16.6599 108.273 16.6599Z" stroke="#E2E2E8" stroke-width="1.32004"/>
<path d="M127.916 28.4999H129.093L127.091 25.1119C128.4 24.8149 128.851 23.8579 128.851 22.9779C128.851 21.8339 128.312 20.6899 126.266 20.6899H123.373V28.4999H124.418V25.2549H126.002L127.916 28.4999ZM124.418 21.5699H126.145C127.344 21.5699 127.751 22.1749 127.751 22.9779C127.751 23.7589 127.355 24.3749 126.145 24.3749H124.418V21.5699ZM134.709 25.3649C134.709 23.7149 133.851 22.8679 132.366 22.8679C130.793 22.8679 129.869 23.9789 129.869 25.8159C129.869 27.6309 130.804 28.6319 132.377 28.6319C133.488 28.6319 134.291 28.1039 134.676 27.1029L133.906 26.7619C133.664 27.4329 133.147 27.8069 132.443 27.8069C131.464 27.8069 130.815 27.1029 130.804 26.0249H134.709V25.3649ZM133.763 25.2659H130.804C130.826 24.2319 131.376 23.6049 132.344 23.6049C133.246 23.6049 133.763 24.1329 133.763 25.1449V25.2659ZM135.426 23.7699H136.449V26.8499C136.449 27.8729 136.757 28.5989 137.945 28.5989C138.297 28.5989 138.517 28.5659 138.759 28.4999V27.6419C138.572 27.6859 138.429 27.7189 138.187 27.7189C137.626 27.7189 137.384 27.4439 137.384 26.8169V23.7699H138.759V22.9999H137.384V21.1629L136.449 21.5589V22.9999H135.426V23.7699ZM141.845 28.6319C142.615 28.6319 143.297 28.1369 143.55 27.4659V28.4999H144.43V22.9999H143.495V25.9589C143.495 27.0809 142.901 27.8289 142.021 27.8289C141.295 27.8289 140.899 27.3229 140.899 26.3989V22.9999H139.964V26.5089C139.964 27.7959 140.459 28.6319 141.845 28.6319ZM147.282 24.2539V22.9999H146.413V28.4999H147.348V26.1459C147.348 25.4859 147.37 24.7489 147.898 24.2209C148.162 23.9569 148.536 23.7919 149.108 23.7919H149.152V22.8789C149.086 22.8679 149.02 22.8679 148.954 22.8679C148.118 22.8679 147.546 23.4839 147.282 24.2539ZM150.366 28.4999H151.301V25.6289C151.301 24.4079 151.862 23.6709 152.775 23.6709C153.578 23.6709 153.985 24.1659 153.985 25.1339V28.4999H154.92V25.0789C154.92 23.6159 154.293 22.8679 153.083 22.8679C152.214 22.8679 151.609 23.2639 151.246 24.0889V22.9999H150.366V28.4999Z" fill="#696972"/>
<path d="M186 16.6599H186C181.946 16.6599 178.66 19.9461 178.66 23.9999V23.9999C178.66 28.0537 181.946 31.3399 186 31.3399H186C190.054 31.3399 193.34 28.0537 193.34 23.9999V23.9999C193.34 19.9461 190.054 16.6599 186 16.6599Z" fill="white"/>
<path d="M186 16.6599H186C181.946 16.6599 178.66 19.9461 178.66 23.9999V23.9999C178.66 28.0537 181.946 31.3399 186 31.3399H186C190.054 31.3399 193.34 28.0537 193.34 23.9999V23.9999C193.34 19.9461 190.054 16.6599 186 16.6599Z" stroke="#E2E2E8" stroke-width="1.32004"/>
<path d="M198.647 28.4999H199.604V22.4719C199.604 22.1529 199.593 21.8889 199.56 21.6359H199.604C199.626 21.7899 199.736 22.2629 199.835 22.5269L201.903 28.4999H202.915L204.983 22.5269C205.082 22.2629 205.192 21.7899 205.214 21.6359H205.258C205.225 21.8889 205.214 22.1529 205.214 22.4719V28.4999H206.171V20.6899H204.686L202.618 26.6959C202.486 27.0809 202.464 27.1469 202.42 27.4329H202.398C202.354 27.1469 202.332 27.0809 202.2 26.6959L200.132 20.6899H198.647V28.4999ZM209.975 28.6319C210.745 28.6319 211.427 28.1369 211.68 27.4659V28.4999H212.56V22.9999H211.625V25.9589C211.625 27.0809 211.031 27.8289 210.151 27.8289C209.425 27.8289 209.029 27.3229 209.029 26.3989V22.9999H208.094V26.5089C208.094 27.7959 208.589 28.6319 209.975 28.6319ZM215.533 20.5249H214.598V28.4999H215.533V20.5249ZM216.747 23.7699H217.77V26.8499C217.77 27.8729 218.078 28.5989 219.266 28.5989C219.618 28.5989 219.838 28.5659 220.08 28.4999V27.6419C219.893 27.6859 219.75 27.7189 219.508 27.7189C218.947 27.7189 218.705 27.4439 218.705 26.8169V23.7699H220.08V22.9999H218.705V21.1629L217.77 21.5589V22.9999H216.747V23.7699ZM221.384 21.9769H222.451V20.7999H221.384V21.9769ZM221.45 28.4999H222.385V22.9999H221.45V28.4999ZM223.921 25.0019V25.8819H227.1V25.0019H223.921ZM230.671 28.6319C231.903 28.6319 232.728 27.9059 232.926 26.6519L232.035 26.5089C231.892 27.3669 231.43 27.8179 230.682 27.8179C229.703 27.8179 229.131 27.0589 229.131 25.7389C229.131 24.4519 229.703 23.6819 230.649 23.6819C231.397 23.6819 231.881 24.1439 231.98 24.9799L232.937 24.8699C232.794 23.6049 231.958 22.8679 230.671 22.8679C229.109 22.8679 228.141 23.9569 228.141 25.7499C228.141 27.5099 229.131 28.6319 230.671 28.6319ZM234.361 21.9769H235.428V20.7999H234.361V21.9769ZM234.427 28.4999H235.362V22.9999H234.427V28.4999ZM236.513 23.7699H237.536V26.8499C237.536 27.8729 237.844 28.5989 239.032 28.5989C239.384 28.5989 239.604 28.5659 239.846 28.4999V27.6419C239.659 27.6859 239.516 27.7189 239.274 27.7189C238.713 27.7189 238.471 27.4439 238.471 26.8169V23.7699H239.846V22.9999H238.471V21.1629L237.536 21.5589V22.9999H236.513V23.7699ZM241.452 30.6999C242.376 30.6999 243.036 30.2379 243.542 28.8519L245.687 22.9999H244.675L243.399 26.8279C243.311 27.1029 243.245 27.3229 243.212 27.4769H243.19C243.157 27.3229 243.102 27.1029 243.003 26.8279L241.595 22.9999H240.55L242.739 28.4339L242.596 28.8409C242.343 29.5559 242.002 29.8529 241.342 29.8529C241.221 29.8529 241.089 29.8529 240.946 29.8309V30.6559C241.122 30.6889 241.287 30.6999 241.452 30.6999Z" fill="#696972"/>
<path d="M16 44H277" stroke="#E2E2E8"/>
<path d="M20.6888 70.2153C23.1726 70.2153 24.7946 68.4159 24.7946 65.5012C24.7946 62.5612 23.1726 60.7871 20.6888 60.7871C18.1923 60.7871 16.5703 62.5612 16.5703 65.5012C16.5703 68.3778 18.1923 70.2153 20.6888 70.2153ZM20.6888 69.2015C18.8893 69.2015 17.8375 67.7569 17.8375 65.5012C17.8375 63.1948 18.8893 61.8009 20.6888 61.8009C22.4883 61.8009 23.5274 63.1948 23.5274 65.5012C23.5274 67.7949 22.4883 69.2015 20.6888 69.2015ZM27.5098 65.1084V63.6637H26.5087V69.9999H27.5858V67.288C27.5858 66.5277 27.6112 65.6786 28.2194 65.0703C28.5236 64.7662 28.9544 64.5761 29.6134 64.5761H29.6641V63.5243C29.588 63.5116 29.512 63.5116 29.436 63.5116C28.4729 63.5116 27.8139 64.2213 27.5098 65.1084ZM30.9868 62.4852H32.216V61.1292H30.9868V62.4852ZM31.0628 69.9999H32.1399V63.6637H31.0628V69.9999ZM39.3461 63.5623C39.5235 63.5623 39.6755 63.5877 39.8023 63.613V62.6753C39.6629 62.6373 39.5235 62.6246 39.3841 62.6246C38.535 62.6246 38.0662 63.1315 37.8761 63.7778C37.5212 63.613 37.1157 63.5116 36.6342 63.5116C35.1642 63.5116 34.2898 64.4241 34.2898 65.6533C34.2898 66.2742 34.5052 66.8065 34.9107 67.1993C34.3785 67.4021 34.011 67.8329 34.011 68.4665C34.011 68.9227 34.2138 69.3283 34.746 69.569C34.0744 69.7845 33.7195 70.2914 33.7195 70.887C33.7195 71.7867 34.3405 72.6231 36.5708 72.6231C38.7758 72.6231 39.7136 71.7994 39.7136 70.6082C39.7136 69.4677 38.9912 68.8214 37.5593 68.8214H36.0132C35.2275 68.8214 34.9614 68.5299 34.9614 68.1751C34.9614 67.8836 35.1515 67.6682 35.4176 67.5541C35.7598 67.7189 36.1653 67.8203 36.6342 67.8203C38.1042 67.8203 38.9786 66.8825 38.9786 65.6533C38.9786 65.0577 38.7758 64.5381 38.3956 64.1579C38.5477 63.7524 38.8645 63.5623 39.3461 63.5623ZM36.6342 66.9965C35.8231 66.9965 35.3036 66.4263 35.3036 65.6533C35.3036 64.8803 35.8231 64.3354 36.6342 64.3354C37.4452 64.3354 37.9648 64.8929 37.9648 65.666C37.9648 66.439 37.4452 66.9965 36.6342 66.9965ZM37.3185 69.7718C38.1929 69.7718 38.6364 70.0886 38.6364 70.6842C38.6364 71.2545 38.2436 71.736 36.6975 71.736C35.557 71.736 34.7713 71.4826 34.7713 70.6969C34.7713 70.3167 34.9868 69.9492 35.443 69.7465C35.6077 69.7591 35.7851 69.7718 35.9752 69.7718H37.3185ZM41.1222 62.4852H42.3514V61.1292H41.1222V62.4852ZM41.1982 69.9999H42.2754V63.6637H41.1982V69.9999ZM44.5519 69.9999H45.6291V66.6924C45.6291 65.2858 46.2754 64.4367 47.3272 64.4367C48.2523 64.4367 48.7211 65.007 48.7211 66.1222V69.9999H49.7983V66.0588C49.7983 64.3734 49.076 63.5116 47.682 63.5116C46.6809 63.5116 45.9839 63.9679 45.5657 64.9183V63.6637H44.5519V69.9999Z" fill="#161616"/>
<path d="M136.5 79.396H20C18.0096 79.396 16.396 81.0096 16.396 83V110C16.396 111.99 18.0096 113.604 20 113.604H136.5C138.49 113.604 140.104 111.99 140.104 110V83C140.104 81.0096 138.49 79.396 136.5 79.396Z" fill="white"/>
<path d="M29.2672 101H30.3444V94.4863C30.3444 93.9414 30.3317 93.6119 30.3064 93.2951H30.3317C30.4711 93.7006 30.6359 94.0048 30.8893 94.4483L34.7037 101H36.161V92.0025H35.0839V98.5161C35.0839 99.061 35.0965 99.3905 35.1219 99.7073H35.0965C34.9571 99.3271 34.7924 98.9977 34.5389 98.5541L30.7246 92.0025H29.2672V101ZM40.4841 101H41.7006V97.4136L44.7546 92.0025H43.4114L41.3458 95.8169C41.2191 96.0577 41.143 96.2224 41.105 96.3365H41.0797C41.0416 96.2224 40.9656 96.0577 40.8389 95.8169L38.7733 92.0025H37.43L40.4841 97.4136V101ZM48.8743 101.215C51.0412 101.215 52.1311 99.8721 52.4732 98.174L51.3073 97.9712C51.0539 99.3145 50.1542 100.164 48.8743 100.164C47.0368 100.164 46.0863 98.5668 46.0863 96.4632C46.0863 94.2835 47.0875 92.8136 48.8489 92.8136C50.2429 92.8136 51.0666 93.7133 51.244 95.0692L52.4732 94.9425C52.2451 93.0797 51.1046 91.7871 48.9123 91.7871C46.2384 91.7871 44.8191 93.7133 44.8191 96.4759C44.8191 99.0864 46.0863 101.215 48.8743 101.215Z" fill="#161616"/>
<mask id="mask0_2_5087" style="mask-type:alpha" maskUnits="userSpaceOnUse" x="115" y="90" width="14" height="13">
<path d="M128.5 90.1638H115.828V102.836H128.5V90.1638Z" fill="#D9D9D9"/>
</mask>
<g mask="url(#mask0_2_5087)">
<path d="M122.164 98.2953L118.996 95.1272L119.735 94.3879L122.164 96.8168L124.593 94.3879L125.332 95.1272L122.164 98.2953Z" fill="#CCCCD4"/>
</g>
<path d="M136.5 79.396H20C18.0096 79.396 16.396 81.0096 16.396 83V110C16.396 111.99 18.0096 113.604 20 113.604H136.5C138.49 113.604 140.104 111.99 140.104 110V83C140.104 81.0096 138.49 79.396 136.5 79.396Z" stroke="#E2E2E8" stroke-width="0.792023"/>
<path d="M153.767 70.0001H156.695C159.318 70.0001 160.99 68.1119 160.99 65.4887C160.99 62.8149 159.305 61.0027 156.72 61.0027H153.767V70.0001ZM154.971 68.9863V62.0165H156.695C158.633 62.0165 159.711 63.4865 159.711 65.4887C159.711 67.4149 158.608 68.9863 156.669 68.9863H154.971ZM167.829 66.3885C167.829 64.4876 166.84 63.5118 165.129 63.5118C163.317 63.5118 162.253 64.7918 162.253 66.908C162.253 68.999 163.33 70.1522 165.142 70.1522C166.422 70.1522 167.347 69.5439 167.791 68.3907L166.904 67.9979C166.625 68.7709 166.029 69.2017 165.218 69.2017C164.09 69.2017 163.343 68.3907 163.33 67.1488H167.829V66.3885ZM166.739 66.2744H163.33C163.355 65.0832 163.989 64.3609 165.104 64.3609C166.143 64.3609 166.739 64.9692 166.739 66.135V66.2744ZM171.759 70.1522C173.305 70.1522 174.179 69.3538 174.179 68.2133C174.179 67.2882 173.673 66.7053 172.532 66.4899L171.303 66.2618C170.682 66.1477 170.327 65.8943 170.327 65.362C170.327 64.7411 170.821 64.3862 171.632 64.3862C172.494 64.3862 172.988 64.8298 173.128 65.4634L174.192 65.2226C174.065 64.1581 173.102 63.5118 171.683 63.5118C170.188 63.5118 169.275 64.3229 169.275 65.4127C169.275 66.3758 169.884 66.9841 170.961 67.1868L172.203 67.4149C172.773 67.5163 173.115 67.7444 173.115 68.302C173.115 68.8469 172.646 69.2651 171.797 69.2651C170.872 69.2651 170.276 68.8089 170.124 68.0105L169.034 68.2006C169.25 69.4552 170.264 70.1522 171.759 70.1522ZM175.015 64.551H176.194V68.0992C176.194 69.2778 176.549 70.1142 177.917 70.1142C178.323 70.1142 178.576 70.0761 178.855 70.0001V69.0117C178.64 69.0623 178.475 69.1004 178.196 69.1004C177.55 69.1004 177.271 68.7836 177.271 68.0612V64.551H178.855V63.6639H177.271V61.5476L176.194 62.0038V63.6639H175.015V64.551ZM180.357 62.4854H181.586V61.1294H180.357V62.4854ZM180.433 70.0001H181.51V63.6639H180.433V70.0001ZM183.787 70.0001H184.864V66.6926C184.864 65.286 185.51 64.4369 186.562 64.4369C187.487 64.4369 187.956 65.0072 187.956 66.1224V70.0001H189.033V66.059C189.033 64.3736 188.311 63.5118 186.917 63.5118C185.916 63.5118 185.219 63.9681 184.801 64.9185V63.6639H183.787V70.0001ZM192.697 70.1522C193.736 70.1522 194.534 69.6579 194.826 68.8469C194.838 69.2524 194.876 69.6706 194.927 70.0001H196.055C195.903 69.5059 195.84 68.8342 195.84 67.8585V66.1477C195.84 64.2975 195.079 63.5118 193.343 63.5118C191.86 63.5118 190.847 64.3609 190.758 65.6535H191.911C191.962 64.8551 192.494 64.3989 193.356 64.3989C194.332 64.3989 194.75 64.8678 194.75 66.0336V66.135L193.571 66.2744C192.532 66.4011 191.924 66.5532 191.442 66.794C190.872 67.1108 190.555 67.6557 190.555 68.2893C190.555 69.4172 191.404 70.1522 192.697 70.1522ZM192.938 69.2651C192.165 69.2651 191.696 68.8849 191.696 68.264C191.696 67.643 192.101 67.3136 193.039 67.1742L194.762 66.9207V67.2375C194.762 68.4667 194.04 69.2651 192.938 69.2651ZM197.006 64.551H198.185V68.0992C198.185 69.2778 198.54 70.1142 199.908 70.1142C200.314 70.1142 200.567 70.0761 200.846 70.0001V69.0117C200.631 69.0623 200.466 69.1004 200.187 69.1004C199.541 69.1004 199.262 68.7836 199.262 68.0612V64.551H200.846V63.6639H199.262V61.5476L198.185 62.0038V63.6639H197.006V64.551ZM202.348 62.4854H203.577V61.1294H202.348V62.4854ZM202.424 70.0001H203.501V63.6639H202.424V70.0001ZM208.16 70.1522C209.947 70.1522 211.113 68.8976 211.113 66.832C211.113 64.7664 209.947 63.5118 208.16 63.5118C206.373 63.5118 205.208 64.7664 205.208 66.832C205.208 68.8976 206.373 70.1522 208.16 70.1522ZM208.16 69.2144C207.02 69.2144 206.348 68.4034 206.348 66.832C206.348 65.2606 207.02 64.4496 208.16 64.4496C209.301 64.4496 209.972 65.2606 209.972 66.832C209.972 68.4034 209.301 69.2144 208.16 69.2144ZM212.819 70.0001H213.897V66.6926C213.897 65.286 214.543 64.4369 215.595 64.4369C216.52 64.4369 216.989 65.0072 216.989 66.1224V70.0001H218.066V66.059C218.066 64.3736 217.343 63.5118 215.95 63.5118C214.948 63.5118 214.251 63.9681 213.833 64.9185V63.6639H212.819V70.0001Z" fill="#161616"/>
<path d="M273 79.396H156.5C154.51 79.396 152.896 81.0096 152.896 83V110C152.896 111.99 154.51 113.604 156.5 113.604H273C274.99 113.604 276.604 111.99 276.604 110V83C276.604 81.0096 274.99 79.396 273 79.396Z" fill="white"/>
<path d="M171.52 101H172.762L169.354 92.0027H168.162L164.753 101H165.995L166.92 98.4023H170.595L171.52 101ZM167.275 97.3885L168.53 93.8782C168.606 93.6755 168.669 93.46 168.745 93.1939H168.771C168.847 93.46 168.91 93.6755 168.986 93.8782L170.241 97.3885H167.275ZM179.044 92.0027H172.188V93.0165H175.014V101H176.218V93.0165H179.044V92.0027ZM180.432 101H185.792V99.9863H181.636V92.0027H180.432V101Z" fill="#161616"/>
<mask id="mask1_2_5087" style="mask-type:alpha" maskUnits="userSpaceOnUse" x="252" y="90" width="14" height="13">
<path d="M265 90.1638H252.328V102.836H265V90.1638Z" fill="#D9D9D9"/>
</mask>
<g mask="url(#mask1_2_5087)">
<path d="M258.664 98.2953L255.496 95.1272L256.235 94.3879L258.664 96.8168L261.093 94.3879L261.832 95.1272L258.664 98.2953Z" fill="#CCCCD4"/>
</g>
<path d="M273 79.396H156.5C154.51 79.396 152.896 81.0096 152.896 83V110C152.896 111.99 154.51 113.604 156.5 113.604H273C274.99 113.604 276.604 111.99 276.604 110V83C276.604 81.0096 274.99 79.396 273 79.396Z" stroke="#E2E2E8" stroke-width="0.792023"/>
</g>
<defs>
<clipPath id="clip0_2_5087">
<rect width="293" height="130" fill="white"/>
</clipPath>
</defs>
</svg>
