<svg width="91" height="32" viewBox="0 0 91 32" fill="none" xmlns="http://www.w3.org/2000/svg">
<g clip-path="url(#clip0_2_5339)">
<path d="M90.24 2.48878C89.835 4.69178 89.412 6.89378 89.027 9.10178C88.549 11.8318 88.137 14.5738 87.631 17.2978C87.245 19.3708 85.6 19.9808 83.906 18.7018C82.1218 17.3532 80.355 15.9817 78.606 14.5878C77.396 13.6278 77.272 12.4928 78.225 11.2328C79.055 10.1308 79.915 9.05478 80.765 7.96778L80.576 7.72978C80.232 7.87278 79.88 7.99978 79.545 8.16278C77.863 8.98178 76.215 9.88278 74.491 10.5968C73.868 10.8508 72.987 10.8628 72.371 10.6128C70.94 10.0298 69.564 9.27978 68.241 8.47678C67.819 8.21978 67.401 7.56178 67.411 7.09678C67.417 6.71378 67.996 6.13678 68.431 5.99978C74.756 4.01678 81.1 2.07978 87.442 0.147777C88.648 -0.219223 89.637 0.0717769 90.241 1.28278L90.24 2.48878ZM23.395 31.9998V28.0868C24.047 27.9128 24.515 27.8238 24.958 27.6648C26.737 27.0288 27.045 26.3128 26.324 24.5528L21.888 13.7578C21.724 13.3588 21.581 12.9528 21.398 12.4728H25.742C26.809 15.0098 27.882 17.5488 29.079 20.3928C29.795 18.3878 30.413 16.6668 31.023 14.9458C31.92 12.4348 31.92 12.4348 34.485 12.4358H36.106C35.946 12.9758 35.833 13.4168 35.684 13.8428C34.308 17.7818 32.875 21.7008 31.562 25.6598C30.422 29.1018 28.253 31.2578 24.652 31.8198C24.545 31.8368 24.451 31.9378 24.35 31.9998H23.395ZM0 12.4048H4.057V19.8648C4.057 21.1018 4.514 22.0788 5.713 22.5268C7.421 23.1638 9.105 22.0388 9.158 20.1828C9.218 18.0928 9.175 15.9978 9.177 13.9048V12.5158H13.035C13.035 15.5328 13.292 18.5258 12.965 21.4498C12.632 24.4298 9.791 26.4738 6.72 26.5108C3.562 26.5508 0.97 24.5478 0.253 21.5228C0.183986 21.2995 0.0994464 21.0813 0 20.8698L0 12.4048ZM74.828 21.0738H65.488C65.651 22.8058 68.256 23.6638 69.679 22.8768C71.402 21.9188 72.536 22.6468 73.811 23.5068C73.976 23.6188 74.148 23.7188 74.498 23.9378C73.825 24.5108 73.26 25.1018 72.594 25.5368C69.55 27.5188 64.694 26.6798 62.534 23.8368C60.337 20.9418 60.667 16.8348 63.298 14.2828C65.486 12.1638 69.394 11.7728 71.938 13.4198C74.435 15.0278 75.702 18.3008 74.828 21.0738ZM65.322 18.0638H71.083C70.727 16.5668 69.826 15.8358 68.378 15.7958C66.787 15.7538 65.783 16.4568 65.322 18.0638ZM58.909 15.2128L55.958 16.8198C55.038 16.4398 54.32 16.0488 53.556 15.8798C53.279 15.8188 52.888 16.2928 52.55 16.5228C52.783 16.8098 52.962 17.2438 53.261 17.3568C54.221 17.7268 55.237 17.9418 56.208 18.2828C58.318 19.0248 59.368 20.4308 59.144 22.5268C59.054 23.3798 58.646 24.3538 58.068 24.9688C55.891 27.2788 50.708 27.0138 48.652 24.5868C48.375 24.2608 48.159 23.8828 47.846 23.4268L51.189 21.5448C51.857 22.6258 52.753 23.2478 53.986 23.0288C54.393 22.9578 54.746 22.5718 55.123 22.3288C54.837 21.9948 54.613 21.5038 54.253 21.3538C53.305 20.9578 52.276 20.7658 51.317 20.3918C49.213 19.5708 48.357 18.2858 48.494 16.3018C48.614 14.5688 49.868 13.1898 51.809 12.6558C54.658 11.8728 57.237 12.7728 58.909 15.2128ZM46.491 15.2298L43.689 16.7628C42.597 16.4088 41.789 16.0878 40.952 15.9168C40.737 15.8738 40.263 16.2638 40.212 16.5168C40.168 16.7388 40.495 17.1868 40.755 17.2928C41.521 17.6078 42.331 17.8178 43.129 18.0428C45.763 18.7868 47.001 20.2468 46.745 22.6328C46.656 23.4448 46.252 24.3728 45.697 24.9628C43.505 27.2968 37.56 27.1668 35.778 23.9268C35.703 23.7908 35.64 23.6478 35.518 23.3988L38.288 21.8378C39.586 22.3368 40.504 22.7948 41.476 23.0088C41.832 23.0878 42.308 22.5888 42.73 22.3518C42.414 21.9998 42.163 21.4938 41.771 21.3268C40.827 20.9248 39.793 20.7438 38.84 20.3608C36.868 19.5668 36.01 18.2878 36.093 16.4438C36.173 14.6868 37.395 13.2498 39.289 12.6868C42.206 11.8198 45.013 12.8028 46.491 15.2298ZM15.129 26.4368V7.20078H19.289V26.4368H15.129Z" fill="#0F2041"/>
</g>
<defs>
<clipPath id="clip0_2_5339">
<rect width="91" height="32" fill="white"/>
</clipPath>
</defs>
</svg>
